<svg width="26" height="26" viewBox="0 0 26 26" fill="none" xmlns="http://www.w3.org/2000/svg">
<g clip-path="url(#clip0_0_123)">
<path d="M24.6268 1.36841C22.3346 -0.924705 17.7874 -0.240579 13.0003 2.70877C8.2133 -0.239653 3.66608 -0.923779 1.37389 1.36841C-0.918345 3.66064 -0.234219 8.20787 2.71519 12.994C-0.234219 17.781 -0.918345 22.3282 1.37389 24.6205C2.39314 25.5687 3.75279 26.0639 5.1431 25.9933C7.9565 25.8063 10.669 24.8715 13.0004 23.2857C15.3317 24.8716 18.0442 25.8063 20.8577 25.9933C22.248 26.0639 23.6076 25.5686 24.6269 24.6205C26.9191 22.3283 26.2349 17.781 23.2856 12.994C26.2349 8.20787 26.9191 3.66064 24.6268 1.36841ZM20.8167 1.83968C21.7278 1.77765 22.626 2.0814 23.3125 2.68372C24.7272 4.09843 24.3638 7.41688 22.1534 11.2958C21.118 9.86592 19.9697 8.52126 18.7197 7.27468C17.4723 6.02243 16.1264 4.87237 14.6949 3.83542C16.5382 2.67233 18.6421 1.98647 20.8167 1.83968ZM2.68823 2.68274C3.3748 2.0808 4.27303 1.77738 5.184 1.83968C7.35897 1.98832 9.46277 2.67571 11.3058 3.83999C8.44292 5.91775 5.9258 8.43428 3.84734 11.2966C1.6369 7.41683 1.27346 4.09843 2.68823 2.68274ZM2.68823 23.3061C1.27352 21.8904 1.63696 18.5711 3.84734 14.6932C4.88276 16.123 6.03097 17.4677 7.28098 18.7142C8.52696 19.9643 9.87098 21.1125 11.3002 22.1479C7.42319 24.3583 4.10294 24.7218 2.68823 23.3061ZM8.59537 17.3971C7.23507 16.046 6.00254 14.572 4.91353 12.994C7.10866 9.84049 9.8469 7.10224 13.0004 4.90711C14.579 5.99782 16.0536 7.23187 17.4054 8.59359C18.7654 9.94403 19.9979 11.4171 21.0872 12.994C19.9975 14.5731 18.764 16.048 17.4026 17.3999C16.0516 18.7597 14.5779 19.9919 13.0004 21.0808C11.4217 19.9912 9.94712 18.758 8.59537 17.3971ZM23.3125 23.3061C21.8968 24.7228 18.5775 24.3583 14.7004 22.148C16.1297 21.1125 17.4738 19.9643 18.7197 18.7143C19.9697 17.4677 21.118 16.1231 22.1533 14.6932C24.3638 18.5711 24.7272 21.8904 23.3125 23.3061Z" fill="#062E32"/>
<path d="M13 16.7121C15.0534 16.7121 16.7181 15.0474 16.7181 12.994C16.7181 10.9405 15.0534 9.27588 13 9.27588C10.9465 9.27588 9.28186 10.9405 9.28186 12.994C9.28186 15.0474 10.9465 16.7121 13 16.7121Z" fill="#062E32"/>
</g>
<defs>
<clipPath id="clip0_0_123">
<rect width="26" height="26" fill="white"/>
</clipPath>
</defs>
</svg>
