<svg width="32" height="21" viewBox="0 0 32 21" fill="none" xmlns="http://www.w3.org/2000/svg">
<path d="M0.867559 15.055C1.08409 17.9992 3.52949 20.2814 6.48135 20.2945H6.48202H24.9972C28.3965 20.2945 31.1521 17.5387 31.1521 14.1394C31.1521 10.7401 28.3965 7.98457 24.9972 7.98457H24.9971C24.7928 7.98474 24.5887 7.99503 24.3855 8.01533C23.6847 5.91337 21.7178 4.48635 19.4929 4.48179H19.4928C18.9731 4.48124 18.4568 4.56067 17.962 4.71662C16.6193 1.95879 13.5573 0.471252 10.5508 1.13402L10.5508 1.13402C7.50025 1.8066 5.3291 4.51072 5.33131 7.63418M0.867559 15.055L1.01716 15.044M0.867559 15.055L1.01716 15.044M0.867559 15.055C0.654624 12.1653 2.65941 9.59234 5.49298 9.07708C5.38597 8.60397 5.33149 8.11999 5.33131 7.63418M1.01716 15.044C1.22794 17.9101 3.60847 20.1317 6.48202 20.1445L5.52779 9.22321C2.76519 9.72146 0.809672 12.2283 1.01716 15.044ZM5.33131 7.63418L5.48131 7.63412M5.33131 7.63418L5.48131 7.63412M5.48131 7.63412C5.47915 4.5811 7.60133 1.93792 10.5831 1.2805C13.5645 0.623278 16.6017 2.12933 17.8832 4.90052L5.64113 9.05214C5.53534 8.58722 5.48148 8.11155 5.48131 7.63412ZM6.48136 18.9936L6.48202 18.9936L24.9972 18.9936C27.6781 18.9936 29.8513 16.8203 29.8513 14.1394C29.8513 11.459 27.6782 9.28557 24.9974 9.28548C24.6741 9.28586 24.352 9.31814 24.0354 9.38159C23.6835 9.45262 23.3403 9.22493 23.2694 8.87264C22.9034 7.07694 21.3253 5.78604 19.4927 5.7825C18.9369 5.78309 18.3879 5.90457 17.8838 6.13901L17.8834 6.13921C17.719 6.21506 17.5305 6.21883 17.3629 6.14968L17.3628 6.14965C17.1956 6.0805 17.0649 5.945 17.0017 5.77528C15.9688 3.03479 12.9238 1.63433 10.171 2.63397L10.1198 2.49298L10.171 2.63397C7.4181 3.6336 5.98093 6.66113 6.94678 9.42588C7.01654 9.62191 6.98826 9.83929 6.87041 10.0111C6.87037 10.0112 6.87034 10.0112 6.8703 10.0113L6.74663 9.92638L6.48136 18.9936ZM6.48136 18.9936C4.09656 19.004 2.14784 17.0923 2.11226 14.7077L6.48136 18.9936Z" fill="#062E32" stroke="#062E32" stroke-width="0.3"/>
</svg>
