<svg width="32" height="32"  viewBox="0 0 32 32" fill="none" xmlns="http://www.w3.org/2000/svg">
<path d="M0.867559 20.055C1.08409 22.9992 3.52949 25.2814 6.48135 25.2945H6.48202H24.9972C28.3965 25.2945 31.1521 22.5387 31.1521 19.1394C31.1521 15.7401 28.3965 12.9846 24.9972 12.9846H24.9971C24.7928 12.9847 24.5887 12.995 24.3855 13.0153C23.6847 10.9134 21.7178 9.48635 19.4929 9.48179H19.4928C18.9731 9.48124 18.4568 9.56067 17.962 9.71662C16.6193 6.95879 13.5573 5.47125 10.5508 6.13402L10.5508 6.13402C7.50025 6.8066 5.3291 9.51072 5.33131 12.6342M0.867559 20.055L1.01716 20.044M0.867559 20.055L1.01716 20.044M0.867559 20.055C0.654624 17.1653 2.65941 14.5923 5.49298 14.0771C5.38597 13.604 5.33149 13.12 5.33131 12.6342M1.01716 20.044C1.22794 22.9101 3.60847 25.1317 6.48202 25.1445L5.52779 14.2232C2.76519 14.7215 0.809672 17.2283 1.01716 20.044ZM5.33131 12.6342L5.48131 12.6341M5.33131 12.6342L5.48131 12.6341M5.48131 12.6341C5.47915 9.5811 7.60133 6.93792 10.5831 6.2805C13.5645 5.62328 16.6017 7.12933 17.8832 9.90052L5.64113 14.0521C5.53534 13.5872 5.48148 13.1116 5.48131 12.6341ZM6.48136 23.9936L6.48202 23.9936L24.9972 23.9936C27.6781 23.9936 29.8513 21.8203 29.8513 19.1394C29.8513 16.459 27.6782 14.2856 24.9974 14.2855C24.6741 14.2859 24.352 14.3181 24.0354 14.3816C23.6835 14.4526 23.3403 14.2249 23.2694 13.8726C22.9034 12.0769 21.3253 10.786 19.4927 10.7825C18.9369 10.7831 18.3879 10.9046 17.8838 11.139L17.8834 11.1392C17.719 11.2151 17.5305 11.2188 17.3629 11.1497L17.3628 11.1496C17.1956 11.0805 17.0649 10.945 17.0017 10.7753C15.9688 8.03479 12.9238 6.63433 10.171 7.63397L10.1198 7.49298L10.171 7.63397C7.4181 8.6336 5.98093 11.6611 6.94678 14.4259C7.01654 14.6219 6.98826 14.8393 6.87041 15.0111C6.87037 15.0112 6.87034 15.0112 6.8703 15.0113L6.74663 14.9264L6.48136 23.9936ZM6.48136 23.9936C4.09656 24.004 2.14784 22.0923 2.11226 19.7077L6.48136 23.9936Z" stroke="#062E32"  stroke-width="0.9"/>
</svg>
