<svg width="32" height="32" viewBox="0 0 32 32" fill="none" xmlns="http://www.w3.org/2000/svg">
<g clip-path="url(#clip0_2_478)">
<rect width="32" height="32" rx="6" fill="white"/>
<g clip-path="url(#clip1_2_478)">
<path d="M29.4774 21.5872L17.3496 14.5592V14.0363C17.3496 13.4399 17.6899 12.8853 18.2377 12.5887C19.472 11.9206 20.2056 10.6338 20.1524 9.23047C20.0803 7.33352 18.5382 5.79108 16.6416 5.71909C15.638 5.68058 14.6877 6.04285 13.9655 6.738C13.2429 7.43366 12.8449 8.36914 12.8449 9.37202C12.8449 9.84123 13.2253 10.2216 13.6945 10.2216C14.1637 10.2216 14.5441 9.84123 14.5441 9.37202C14.5441 8.83518 14.7572 8.33453 15.144 7.96212C15.5303 7.59022 16.0387 7.39611 16.5771 7.41706C17.5912 7.45558 18.4158 8.28044 18.4544 9.29493C18.4829 10.0469 18.09 10.7364 17.4289 11.0943C16.3319 11.6882 15.6504 12.8154 15.6504 14.0363V14.5592L3.52256 21.5872C2.5834 22.1315 2 23.144 2 24.2295C2 25.9134 3.36968 27.2833 5.05327 27.2833H27.9467C29.6303 27.2833 31 25.9133 31 24.2295C31 23.1439 30.4166 22.1315 29.4774 21.5872ZM27.9467 25.584H5.05327C4.30663 25.584 3.69922 24.9763 3.69922 24.2295C3.69922 23.7479 3.95795 23.2988 4.37454 23.0575L16.5 16.0308L28.6255 23.0575C29.042 23.2989 29.3008 23.7479 29.3008 24.2295C29.3008 24.9764 28.6934 25.584 27.9467 25.584Z" fill="#062E32"/>
</g>
</g>
<defs>
<clipPath id="clip0_2_478">
<rect width="32" height="32" rx="6" fill="white"/>
</clipPath>
<clipPath id="clip1_2_478">
<rect width="29" height="29" fill="white" transform="translate(2 2)"/>
</clipPath>
</defs>
</svg>
