<svg width="28" height="28" viewBox="0 0 28 28" fill="none" xmlns="http://www.w3.org/2000/svg">
<g clip-path="url(#clip0_2_732)">
<path d="M25.8238 11.0313C26.3308 10.5371 26.5098 9.81173 26.2911 9.13836C26.0723 8.465 25.5011 7.98347 24.8005 7.8817L18.6738 6.99144C18.5536 6.974 18.4496 6.89847 18.3958 6.78943L15.6559 1.23782C15.3426 0.602902 14.7081 0.208496 14.0001 0.208496C13.292 0.208496 12.6575 0.602902 12.3442 1.23782L9.60434 6.78948C9.55047 6.89847 9.44656 6.974 9.32625 6.9915L3.19972 7.8817C2.49906 7.98347 1.92796 8.465 1.7091 9.13836C1.49024 9.81173 1.66929 10.5371 2.17635 11.0313L6.60959 15.3526C6.6966 15.4375 6.73636 15.5597 6.7158 15.6795L5.66924 21.7813C5.54959 22.4792 5.83101 23.1712 6.40381 23.5873C6.9766 24.0036 7.72188 24.0574 8.34849 23.728L13.8282 20.8471C13.9359 20.7905 14.0643 20.7905 14.172 20.8471L19.6518 23.728C19.9244 23.8713 20.2193 23.9421 20.5128 23.9421C20.894 23.9421 21.2727 23.8226 21.5963 23.5873C22.1691 23.1711 22.4506 22.4791 22.3309 21.7813L21.2843 15.6795C21.2638 15.5597 21.3035 15.4374 21.3905 15.3526L25.8238 11.0313ZM19.8285 15.9293L20.875 22.0312C20.91 22.2354 20.784 22.3519 20.7282 22.3924C20.6723 22.4328 20.5225 22.5169 20.3392 22.4204L14.8594 19.5395C14.5904 19.3982 14.2953 19.3274 14.0002 19.3274C13.705 19.3274 13.4099 19.3982 13.1409 19.5395L7.66118 22.4203C7.47776 22.5167 7.32808 22.4328 7.27224 22.3923C7.21641 22.3517 7.0903 22.2353 7.12535 22.0311L8.17191 15.9293C8.27466 15.3302 8.0762 14.7192 7.64084 14.2949L3.20759 9.97355C3.05923 9.82885 3.09281 9.66057 3.11419 9.59495C3.13546 9.52927 3.20727 9.37336 3.41229 9.34361L9.53877 8.45335C10.1403 8.36596 10.6601 7.9884 10.9291 7.44322L13.669 1.89156C13.7608 1.70579 13.9312 1.68571 14.0002 1.68571C14.0692 1.68571 14.2396 1.70573 14.3314 1.89156V1.89161L17.0713 7.44327C17.3403 7.98845 17.86 8.36601 18.4615 8.4534L24.5881 9.34366C24.7931 9.37341 24.8649 9.52933 24.8862 9.59501C24.9075 9.66068 24.9412 9.82901 24.7928 9.97361L20.3595 14.295C19.9242 14.7192 19.7257 15.3302 19.8285 15.9293Z" fill="#062E32"/>
<path d="M22.6287 1.23729C22.2986 0.997537 21.8368 1.07071 21.597 1.40069L20.813 2.47979C20.5732 2.80977 20.6464 3.27172 20.9764 3.51147C21.1076 3.60668 21.2595 3.65256 21.41 3.65256C21.6384 3.65256 21.8636 3.54696 22.0081 3.34811L22.7921 2.26902C23.0319 1.93898 22.9588 1.47704 22.6287 1.23729Z" fill="#062E32"/>
<path d="M7.18371 2.47531L6.39966 1.39622C6.15996 1.06634 5.69807 0.993173 5.36798 1.23281C5.03799 1.47256 4.96482 1.93451 5.20457 2.26449L5.98863 3.34359C6.13317 3.54259 6.35837 3.64814 6.58685 3.64814C6.73741 3.64814 6.88933 3.60226 7.02036 3.50699C7.35035 3.2673 7.42352 2.80535 7.18371 2.47531Z" fill="#062E32"/>
<path d="M2.70986 16.7796C2.58381 16.3917 2.16715 16.1793 1.77914 16.3054L0.510551 16.7176C0.122544 16.8437 -0.0896986 17.2605 0.0363561 17.6484C0.137747 17.9606 0.427317 18.159 0.738653 18.159C0.814286 18.159 0.891231 18.1472 0.967083 18.1225L2.23567 17.7103C2.62362 17.5843 2.83592 17.1676 2.70986 16.7796Z" fill="#062E32"/>
<path d="M14.0003 24.9805C13.5924 24.9805 13.2617 25.3112 13.2617 25.7191V27.053C13.2617 27.4609 13.5924 27.7916 14.0003 27.7916C14.4082 27.7916 14.7389 27.4609 14.7389 27.053V25.7191C14.7389 25.3111 14.4083 24.9805 14.0003 24.9805Z" fill="#062E32"/>
<path d="M27.4895 16.7186L26.2209 16.3063C25.833 16.1804 25.4162 16.3926 25.2901 16.7806C25.1641 17.1686 25.3763 17.5853 25.7643 17.7113L27.0329 18.1235C27.1088 18.1481 27.1857 18.1599 27.2613 18.1599C27.5727 18.1599 27.8623 17.9614 27.9636 17.6492C28.0897 17.2613 27.8774 16.8446 27.4895 16.7186Z" fill="#062E32"/>
</g>
<defs>
<clipPath id="clip0_2_732">
<rect width="28" height="28" fill="white"/>
</clipPath>
</defs>
</svg>
