<svg width="32" height="32" viewBox="0 0 32 32" fill="none" xmlns="http://www.w3.org/2000/svg">
<g clip-path="url(#clip0_2_460)">
<rect width="32" height="32" rx="6" fill="white"/>
<path d="M15.9989 6.4248C14.6782 6.4248 13.6041 7.49887 13.6041 8.81955C13.6041 10.1402 14.6782 11.2142 15.9989 11.2142C17.3195 11.2142 18.3936 10.1402 18.3936 8.81955C18.3936 7.49893 17.3195 6.4248 15.9989 6.4248ZM15.9989 10.0175C15.3385 10.0175 14.8009 9.47989 14.8009 8.81955C14.8009 8.15921 15.3385 7.62162 15.9989 7.62162C16.6592 7.62162 17.1968 8.15921 17.1968 8.81955C17.1968 9.47989 16.6592 10.0175 15.9989 10.0175Z" fill="#062E32"/>
<path d="M28.5662 13.6064C28.8969 13.6064 29.1646 13.3404 29.1646 13.0097V10.6164C29.1646 10.4055 29.0536 10.2097 28.8718 10.1022L17.1664 3.15077C17.1611 3.14723 17.1558 3.14432 17.1506 3.1414C16.4231 2.73822 15.6026 2.72599 14.833 3.14959L3.12829 10.1022C2.94653 10.2097 2.83551 10.4055 2.83551 10.6164V13.0097C2.83551 13.3404 3.10316 13.6064 3.43392 13.6064H5.22908V24.3779C3.90896 24.3779 2.83551 25.4512 2.83551 26.7712V28.5662C2.83551 28.8969 3.10316 29.1645 3.43392 29.1645H28.5662C28.8969 29.1645 29.1646 28.8969 29.1646 28.5662V26.7712C29.1646 25.4512 28.0911 24.3779 26.771 24.3779V13.6064H28.5662ZM27.9678 26.7709V27.9677H4.03227V26.7709C4.03227 26.1112 4.5693 25.5742 5.22902 25.5742H5.82743H26.1726H26.771C27.4307 25.5741 27.9678 26.1112 27.9678 26.7709ZM6.42583 24.3774V13.6064H8.8194V24.3774H6.42583ZM10.0162 24.3774V13.6064H13.6065V24.3774H10.0162ZM14.8032 24.3774V13.6064H17.1968V24.3774H14.8032ZM18.3936 24.3774V13.6064H21.9839V24.3774H18.3936ZM23.1807 24.3774V13.6064H25.5743V24.3774H23.1807ZM4.03227 12.4096V10.9552L15.4268 4.1859C15.7996 3.98081 16.1958 3.98137 16.5639 4.18181L27.9678 10.9552V12.4096H4.03227Z" fill="#062E32"/>
</g>
<defs>
<clipPath id="clip0_2_460">
<rect width="32" height="32" rx="6" fill="white"/>
</clipPath>
</defs>
</svg>
