<svg width="32" height="32" viewBox="0 0 32 32" fill="none" xmlns="http://www.w3.org/2000/svg">
<rect width="32" height="32" rx="6" fill="white"/>
<path d="M27.6938 3.48713L27.6938 3.48712C27.4639 3.25739 27.0913 3.25718 26.8612 3.48713L26.8612 3.48713L21.2756 9.07263C21.2756 9.07263 21.2756 9.07263 21.2756 9.07264C21.0456 9.30257 21.0456 9.67524 21.2755 9.90523L21.2755 9.90525C21.3905 10.0202 21.5412 10.0776 21.6918 10.0776C21.8424 10.0776 21.9932 10.0202 22.1082 9.90525L22.1082 9.90524L27.6938 4.31974L27.6939 4.31973C27.9237 4.08974 27.9237 3.71702 27.6938 3.48713Z" fill="#062E32" stroke="#062E32" stroke-width="0.1"/>
<path d="M28.3802 4.98271L28.3802 4.98272L22.7946 10.5683L22.7946 10.5683C22.5647 10.7983 22.5647 11.171 22.7945 11.4009L22.7945 11.4009C22.9095 11.5159 23.0603 11.5733 23.2108 11.5733C23.3614 11.5733 23.5122 11.5159 23.6272 11.4009L23.6272 11.4009L29.2128 5.81526C29.4427 5.58533 29.4427 5.21259 29.2128 4.98271L29.2128 4.9827C28.9828 4.7529 28.6101 4.7529 28.3802 4.98271Z" fill="#062E32" stroke="#062E32" stroke-width="0.1"/>
<path d="M30.8775 6.71905L30.8775 6.71907C31.1074 6.949 31.1074 7.32167 30.8775 7.55167L30.8421 7.51632L30.8775 7.55167L23.9436 14.4855C22.8596 15.5694 21.2536 15.9259 19.828 15.4345L18.1365 17.3403L27.0275 25.2318C27.0276 25.232 27.0278 25.2321 27.0279 25.2322C27.0888 25.2842 27.1442 25.3351 27.1967 25.3878C28.3081 26.4994 28.3081 28.3083 27.1964 29.4201L27.161 29.3848L27.1964 29.4201C26.6404 29.9761 25.91 30.254 25.1799 30.254C24.4498 30.254 23.7195 29.9761 23.1636 29.4202C23.1635 29.4202 23.1635 29.4202 23.1635 29.4202L23.1989 29.3848C23.1475 29.3336 23.0974 29.2791 23.046 29.2188L30.8775 6.71905ZM30.8775 6.71905C30.6475 6.48933 30.2748 6.48911 30.0449 6.71907L30.0802 6.75436M30.8775 6.71905L30.0802 6.75436M7.40856 29.4204C7.46123 29.3678 7.51212 29.3125 7.56421 29.2515C7.56432 29.2514 7.56443 29.2513 7.56454 29.2511L15.2862 20.5514L23.0079 29.2512C23.0081 29.2514 23.0082 29.2515 23.0083 29.2517L7.37324 29.385M7.40856 29.4204L7.37324 29.385M7.40856 29.4204C7.40857 29.4204 7.40858 29.4204 7.4086 29.4204L7.37324 29.385M7.40856 29.4204C6.85291 29.9761 6.12249 30.2539 5.3926 30.2539C4.66238 30.254 3.93213 29.976 3.37608 29.4201L3.41143 29.3847C3.9577 29.9309 4.67506 30.204 5.3926 30.2039C6.10984 30.2039 6.82738 29.9309 7.37324 29.385M3.37611 25.3873L3.41149 25.4226L3.37613 25.3873C3.37612 25.3873 3.37612 25.3873 3.37611 25.3873ZM3.37611 25.3873C3.42775 25.3356 3.48304 25.2846 3.54463 25.232C3.54477 25.2319 3.5449 25.2318 3.54504 25.2317L9.90614 19.5857C10.1492 19.3697 10.5214 19.3919 10.7372 19.6352C10.953 19.8783 10.9309 20.2504 10.6877 20.4662L4.32165 26.1167L4.32149 26.1168L4.31196 26.125C4.27297 26.1582 4.23946 26.1889 4.20936 26.2191L4.20926 26.2192C3.89238 26.5361 3.7183 26.9564 3.7183 27.4037C3.7183 27.851 3.89239 28.2713 4.20867 28.5875L4.17332 28.6229M3.37611 25.3873L6.67086 28.4844M30.0802 6.75436L30.0449 6.71907L23.1111 13.6529C22.2719 14.4921 20.9885 14.7123 19.9178 14.201L19.8963 14.2462M30.0802 6.75436L19.8963 14.2462M19.8963 14.2462L19.9178 14.201C19.6809 14.088 19.398 14.1451 19.2238 14.3415L16.8689 16.9947C16.8682 16.9954 16.8666 16.9969 16.8649 16.9988C16.8634 17.0006 16.8621 17.0022 16.8615 17.003L6.67936 28.4746L6.67922 28.4747L6.67101 28.4842L6.70908 28.5166M19.8963 14.2462L6.67086 28.4844M4.17391 26.1839C3.84766 26.5101 3.6683 26.9431 3.6683 27.4037C3.6683 27.8642 3.84766 28.2973 4.17332 28.6229M4.17391 26.1839L6.71676 28.5077L6.70908 28.5166M4.17391 26.1839C4.2052 26.1524 4.23977 26.1208 4.27955 26.0869L4.17391 26.1839ZM4.17332 28.6229C4.84539 29.2951 5.93934 29.2952 6.6117 28.6229C6.64381 28.5907 6.67551 28.5561 6.70908 28.5166M4.17332 28.6229L4.20868 28.5875C4.86121 29.2402 5.92347 29.2403 6.57631 28.5876M6.70908 28.5166L6.67086 28.4844M6.67086 28.4844C6.63806 28.5229 6.6073 28.5565 6.57631 28.5876M6.57631 28.5876L6.61157 28.6228L6.57634 28.5875C6.57633 28.5875 6.57632 28.5875 6.57631 28.5876ZM15.2528 20.5138L15.2862 20.4761L15.3196 20.5138H15.2528ZM16.8623 17.0021L16.8623 17.0021C16.8623 17.0021 16.8623 17.0021 16.8623 17.0021L16.8623 17.0021ZM26.2508 26.1167L26.2509 26.1169L26.2604 26.1251C26.299 26.1579 26.3327 26.1887 26.3638 26.2198C27.0164 26.8726 27.0164 27.9348 26.3638 28.5874C25.711 29.2401 24.6487 29.2401 23.9957 28.5871C23.965 28.5564 23.9341 28.5227 23.9012 28.4841L23.893 28.4746L23.8929 28.4744L16.0733 19.6645L17.3547 18.2208L26.2508 26.1167Z" fill="#062E32" stroke="#062E32" stroke-width="0.1"/>
<path d="M26.077 1.91826L26.077 1.91825C25.847 1.68845 25.4743 1.68844 25.2444 1.91825L25.2444 1.91826L18.3106 8.85218C17.2265 9.93622 16.8701 11.5421 17.3615 12.9679L15.2861 14.8101L13.2974 13.0449C14.346 10.9457 13.9503 8.40734 12.2617 6.71873C10.5859 5.04291 8.64278 3.86139 6.7887 3.39458L6.77649 3.44307L6.7887 3.39458C4.85325 2.90741 3.18314 3.23043 2.09495 4.31855C1.00677 5.40668 0.683686 7.07703 1.17098 9.01236C1.63784 10.8663 2.81931 12.8094 4.49525 14.4852C6.18379 16.1739 8.72208 16.5696 10.8214 15.521L10.8821 15.5893L11.1096 15.8456L11.8018 16.6254L12.8267 17.7801L12.8267 17.7802C12.9431 17.9112 13.1048 17.978 13.2672 17.978C13.4062 17.978 13.5457 17.9291 13.6578 17.8296L13.6246 17.7922L13.6578 17.8296L18.4547 13.5719L18.4215 13.5345L18.4547 13.5719C18.6509 13.3977 18.7081 13.1147 18.5951 12.8779L18.55 12.8994L18.5951 12.8779C18.0837 11.8071 18.3039 10.5239 19.1432 9.68473L26.077 2.75087L26.0416 2.71551L26.077 2.75086C26.3069 2.52087 26.3069 2.1482 26.077 1.91826ZM2.92756 5.15116L2.92756 5.15115C3.70335 4.37519 4.96837 4.15047 6.50114 4.5364C8.14775 4.95098 9.89846 6.02057 11.429 7.55127L11.4644 7.51592L11.429 7.55127C12.8492 8.97134 13.1054 11.1554 12.0524 12.8629C11.9023 13.1063 11.9489 13.4223 12.1627 13.6122L12.1627 13.6122L14.3992 15.5972L13.3165 16.5584L11.3887 14.3864L11.3513 14.4196L11.3886 14.3864C11.1989 14.1726 10.8827 14.1259 10.6393 14.2762C8.93185 15.329 6.74779 15.0729 5.32767 13.6527C3.79697 12.1221 2.72732 10.3715 2.31268 8.72486C1.92681 7.19204 2.15164 5.92701 2.92756 5.15116Z" fill="#062E32" stroke="#062E32" stroke-width="0.1"/>
</svg>
