<svg width="32" height="32" viewBox="0 0 32 32" fill="none" xmlns="http://www.w3.org/2000/svg">
<rect width="32" height="32" rx="6" fill="white"/>
<path d="M19.4909 24.9552C19.4909 24.9552 19.4909 24.9552 19.4909 24.9552L23.6774 20.7643L21.3506 18.4375L17.1599 22.6239C17.1598 22.6239 17.1598 22.6239 17.1598 22.624C16.6501 23.1379 16.0434 23.5454 15.3749 23.8228C14.7064 24.1002 13.9894 24.242 13.2656 24.2399M19.4909 24.9552L9.37589 14.8358C8.60427 15.6053 8.07836 16.5864 7.86474 17.655C7.65112 18.7236 7.75942 19.8316 8.17593 20.8386C8.59245 21.8456 9.29844 22.7064 10.2045 23.3118C11.1105 23.9173 12.1759 24.2403 13.2656 24.2399M19.4909 24.9552C18.6737 25.7724 17.7035 26.4207 16.6357 26.8629C15.568 27.3052 14.4236 27.5329 13.2678 27.5329C10.9337 27.5329 8.6952 26.6056 7.04474 24.9552C5.39428 23.3047 4.46705 21.0662 4.46705 18.7321C4.46705 16.398 5.39428 14.1595 7.04474 12.509L11.2356 8.31811L13.5624 10.6449L9.37595 14.8357L19.4909 24.9552ZM13.2656 24.2399C13.2655 24.2399 13.2655 24.2399 13.2655 24.2399L13.2656 24.1899L13.2657 24.2399C13.2656 24.2399 13.2656 24.2399 13.2656 24.2399ZM16.1659 21.6258L16.1659 21.6258L16.1648 21.6269C15.7891 22.0273 15.3367 22.348 14.8347 22.5701C14.3326 22.7923 13.7909 22.9112 13.242 22.9199C12.693 22.9286 12.1479 22.8269 11.639 22.6208C11.1301 22.4148 10.6678 22.1085 10.2796 21.7203C9.8914 21.3321 9.58516 20.8698 9.37908 20.3609C9.17301 19.852 9.0713 19.3069 9.08001 18.7579C9.08872 18.209 9.20766 17.6674 9.42977 17.1653C9.65188 16.6632 9.97263 16.2108 10.373 15.8351L10.373 15.8351L10.3741 15.834L18.612 7.59172C18.6121 7.59168 18.6121 7.59164 18.6121 7.5916C18.6782 7.52634 18.7306 7.44864 18.7664 7.36298C18.8022 7.27727 18.8206 7.1853 18.8206 7.0924C18.8206 6.99951 18.8022 6.90754 18.7664 6.82183C18.7306 6.73614 18.6781 6.65841 18.6121 6.59314C18.6121 6.59312 18.612 6.5931 18.612 6.59308L15.2875 3.27727C15.2874 3.27721 15.2874 3.27716 15.2873 3.27711C15.2221 3.2111 15.1444 3.15868 15.0587 3.1229C14.973 3.08709 14.881 3.06865 14.7881 3.06865C14.6952 3.06865 14.6033 3.08709 14.5176 3.1229C14.4319 3.15869 14.3542 3.2111 14.289 3.27712C14.2889 3.27717 14.2889 3.27722 14.2888 3.27727L6.04656 11.5064L6.04655 11.5064L6.04584 11.5071C4.1917 13.4355 3.16778 16.0141 3.19402 18.6891C3.22026 21.3641 4.29456 23.9221 6.18617 25.8137C8.07778 27.7054 10.6358 28.7797 13.3108 28.8059C15.9858 28.8321 18.5644 27.8082 20.4928 25.9541L20.4935 25.9534L28.7226 17.7111C28.7227 17.7111 28.7227 17.711 28.7227 17.711C28.7888 17.6457 28.8412 17.568 28.877 17.4824C28.9128 17.3966 28.9313 17.3047 28.9313 17.2118C28.9313 17.1189 28.9128 17.0269 28.877 16.9412C28.8412 16.8555 28.7888 16.7778 28.7227 16.7125C28.7227 16.7125 28.7227 16.7125 28.7226 16.7125L25.3981 13.3879C25.398 13.3878 25.398 13.3878 25.3979 13.3877C25.3327 13.3217 25.255 13.2693 25.1693 13.2335C25.0836 13.1977 24.9916 13.1793 24.8988 13.1793C24.8059 13.1793 24.7139 13.1977 24.6282 13.2335C24.5425 13.2693 24.4648 13.3217 24.3996 13.3877C24.3995 13.3878 24.3995 13.3878 24.3994 13.3879L16.1659 21.6258ZM14.7881 4.76561L17.1149 7.0924L14.5606 9.64669L12.2338 7.3199L14.7881 4.76561ZM24.68 19.7661L22.3532 17.4393L24.9075 14.885L27.2343 17.2118L24.68 19.7661Z" fill="#062E32" stroke="black" stroke-width="0.1"/>
</svg>
