<svg width="52" height="52" viewBox="0 0 52 52" fill="none" xmlns="http://www.w3.org/2000/svg">
<path d="M48.1831 42.9226H46.0628V14.98C46.0628 14.8711 46.0414 14.7633 45.9998 14.6627C45.9581 14.5621 45.897 14.4707 45.82 14.3937C45.743 14.3167 45.6516 14.2556 45.551 14.2139C45.4504 14.1723 45.3426 14.1508 45.2337 14.1509H39.7045C39.5956 14.1509 39.4878 14.1723 39.3872 14.2139C39.2865 14.2556 39.1951 14.3167 39.1181 14.3937C39.0411 14.4707 38.9801 14.5621 38.9384 14.6627C38.8967 14.7633 38.8753 14.8711 38.8753 14.98V42.9226H34.9474V21.8797C34.9474 21.7708 34.926 21.6629 34.8843 21.5623C34.8427 21.4617 34.7816 21.3703 34.7046 21.2933C34.6276 21.2163 34.5362 21.1552 34.4356 21.1136C34.335 21.0719 34.2271 21.0505 34.1182 21.0505H28.5891C28.4802 21.0505 28.3723 21.0719 28.2717 21.1136C28.1711 21.1552 28.0797 21.2163 28.0027 21.2933C27.9257 21.3703 27.8646 21.4617 27.823 21.5623C27.7813 21.6629 27.7599 21.7708 27.7599 21.8797V42.9226H23.832V27.0635C23.832 26.9546 23.8106 26.8467 23.7689 26.7461C23.7273 26.6455 23.6662 26.5541 23.5892 26.4771C23.5122 26.4001 23.4208 26.339 23.3202 26.2974C23.2195 26.2557 23.1117 26.2343 23.0028 26.2343H17.4736C17.3648 26.2343 17.2569 26.2557 17.1563 26.2974C17.0557 26.339 16.9643 26.4001 16.8873 26.4771C16.8103 26.5541 16.7492 26.6455 16.7076 26.7461C16.6659 26.8467 16.6445 26.9546 16.6445 27.0635V42.9227H12.7166V32.6416C12.7166 32.5327 12.6952 32.4249 12.6535 32.3243C12.6118 32.2237 12.5508 32.1323 12.4738 32.0553C12.3968 31.9783 12.3053 31.9172 12.2047 31.8755C12.1041 31.8339 11.9963 31.8125 11.8874 31.8125H6.35823C6.24933 31.8125 6.1415 31.8339 6.04089 31.8755C5.94028 31.9172 5.84886 31.9783 5.77186 32.0553C5.69486 32.1323 5.63379 32.2237 5.59213 32.3243C5.55047 32.4249 5.52904 32.5327 5.52907 32.6416V42.9226H3.40882C3.19123 42.9262 2.98374 43.0151 2.83112 43.1702C2.67849 43.3253 2.59295 43.5342 2.59296 43.7518C2.59296 43.9694 2.67851 44.1783 2.83115 44.3334C2.98379 44.4885 3.19128 44.5774 3.40887 44.5809C5.21357 44.579 48.1831 44.5809 48.1831 44.5809C48.4008 44.5777 48.6086 44.4889 48.7615 44.3338C48.9143 44.1786 49 43.9696 49 43.7518C49 43.534 48.9143 43.3249 48.7615 43.1698C48.6086 43.0146 48.4008 42.9259 48.1831 42.9226ZM7.18738 42.9226V33.4708H11.0582V42.9226H7.18738ZM18.3028 42.9226V27.8926H22.1737V42.9227L18.3028 42.9226ZM29.4182 42.9226V22.7088H33.2891V42.9226H29.4182ZM40.5336 42.9226V15.8092H44.4045V42.9226H40.5336Z" fill="#062E32"/>
<path d="M13.2055 23.0498C23.0925 22.2349 29.7814 15.4802 32.8529 11.5268L32.6327 13.2109C32.6088 13.4267 32.6704 13.6433 32.8044 13.8142C32.9385 13.985 33.1341 14.0965 33.3494 14.1247C33.5647 14.1529 33.7825 14.0955 33.956 13.9649C34.1295 13.8343 34.2448 13.6409 34.2773 13.4262L34.9404 8.35336C34.9628 8.15623 34.9137 7.9576 34.8019 7.79367C34.6902 7.62973 34.5232 7.51139 34.3316 7.46019C34.2402 7.43935 34.1473 7.42556 34.0538 7.41895L28.9534 7.81652C28.8447 7.82476 28.7386 7.85436 28.6413 7.90363C28.5441 7.9529 28.4575 8.02088 28.3865 8.10366C28.3155 8.18644 28.2616 8.28241 28.2278 8.38606C28.1939 8.48972 28.1809 8.59903 28.1893 8.70774C28.1978 8.81645 28.2276 8.92243 28.2771 9.0196C28.3266 9.11677 28.3947 9.20323 28.4776 9.27403C28.5606 9.34483 28.6566 9.39857 28.7604 9.43219C28.8641 9.46582 28.9734 9.47865 29.0821 9.46996L32.4908 9.20417C30.1754 12.4648 23.4824 20.4862 13.1339 21.3947C12.9244 21.4175 12.7313 21.5192 12.594 21.6791C12.4566 21.839 12.3853 22.0452 12.3944 22.2558C12.4035 22.4664 12.4924 22.6656 12.643 22.8131C12.7937 22.9605 12.9948 23.0452 13.2055 23.0498Z" fill="#062E32"/>
</svg>
