<svg width="52" height="52" viewBox="0 0 52 52" fill="none" xmlns="http://www.w3.org/2000/svg">
<path fill-rule="evenodd" clip-rule="evenodd" d="M47.3446 9.85315C47.3143 10.2429 47.6032 10.5836 47.9901 10.6142C48.3769 10.6447 48.7151 10.3536 48.7454 9.96384L48.9974 6.85235C49.0008 6.80799 48.9998 6.76265 48.9946 6.71678C48.9507 6.32856 48.6026 6.0498 48.2173 6.09416L45.1402 6.45989C44.7549 6.50416 44.4782 6.85483 44.5222 7.24305C44.5662 7.63126 44.9142 7.91003 45.2995 7.86566L46.4327 7.73098L38.4048 16.1414L30.0023 11.9656C29.7493 11.8177 29.4209 11.8398 29.188 12.044L23.7459 16.8198C23.8505 16.2381 23.9053 15.6392 23.9053 15.0276C23.9053 9.4984 19.4406 5 13.9527 5C8.46484 5 4 9.49832 4 15.0275C4 20.5566 8.46467 25.055 13.9525 25.055C17.8625 25.055 21.2526 22.771 22.8791 19.4581L29.7592 13.4206L38.244 17.6373C38.5312 17.7801 38.8683 17.7066 39.0734 17.4792L47.4365 8.71763L47.3446 9.85315ZM13.9526 23.6382C9.24013 23.6382 5.40625 19.7754 5.40625 15.0275C5.40625 10.2795 9.24013 6.41676 13.9525 6.41676C18.6649 6.41676 22.4988 10.2795 22.4988 15.0275C22.4988 19.7754 18.665 23.6382 13.9526 23.6382ZM26.1134 24.7425H22.1343C21.262 24.7425 20.5523 25.4576 20.5523 26.3365V45.406C20.5523 46.2848 21.262 46.9999 22.1343 46.9999H26.1134C26.9857 46.9999 27.6954 46.2848 27.6954 45.406V26.3366C27.6954 25.4576 26.9857 24.7425 26.1134 24.7425ZM26.2892 45.406C26.2892 45.502 26.2086 45.5831 26.1134 45.5831H22.1343C22.039 45.5831 21.9585 45.502 21.9585 45.406V26.3366C21.9585 26.2406 22.039 26.1595 22.1343 26.1595H26.1134C26.2086 26.1595 26.2892 26.2406 26.2892 26.3366V45.406ZM36.7658 28.6846H32.7867C31.9144 28.6846 31.2047 29.3996 31.2047 30.2785V45.406C31.2047 46.2849 31.9144 47 32.7867 47H36.7658C37.6381 47 38.3478 46.2849 38.3478 45.406V30.2785C38.3478 29.3996 37.6381 28.6846 36.7658 28.6846ZM36.9416 45.406C36.9416 45.502 36.8611 45.5831 36.7658 45.5831H32.7867C32.6915 45.5831 32.6109 45.502 32.6109 45.406V30.2785C32.6109 30.1825 32.6915 30.1014 32.7867 30.1014H36.7658C36.8611 30.1014 36.9416 30.1825 36.9416 30.2785V45.406ZM47.418 17.1605H43.4389C42.5666 17.1605 41.8569 17.8756 41.8569 18.7545V45.406C41.8569 46.2848 42.5666 46.9999 43.4389 46.9999H47.418C48.2903 46.9999 49 46.2848 49 45.406V18.7545C49 17.8756 48.2903 17.1605 47.418 17.1605ZM47.5938 45.406C47.5938 45.5019 47.5132 45.5831 47.418 45.5831H43.4389C43.3436 45.5831 43.2631 45.5019 43.2631 45.406V18.7545C43.2631 18.6585 43.3436 18.5774 43.4389 18.5774H47.418C47.5132 18.5774 47.5938 18.6585 47.5938 18.7545V45.406ZM15.461 34.4944H11.482C10.6097 34.4944 9.90001 35.2094 9.90001 36.0883V45.406C9.90001 46.2848 10.6097 46.9999 11.482 46.9999H15.461C16.3333 46.9999 17.0431 46.2848 17.0431 45.406V36.0883C17.0431 35.2094 16.3333 34.4944 15.461 34.4944ZM15.6368 45.406C15.6368 45.5019 15.5563 45.5831 15.461 45.5831H11.482C11.3868 45.5831 11.3063 45.5019 11.3063 45.406V36.0883C11.3063 35.9923 11.3868 35.9112 11.482 35.9112H15.461C15.5563 35.9112 15.6368 35.9923 15.6368 36.0883V45.406ZM17.5795 17.1286C17.6857 17.9979 17.3833 18.9008 16.5895 19.5076C16.0429 19.9254 15.3405 20.1717 14.6557 20.2677V20.9246C14.6557 21.3158 14.3409 21.633 13.9526 21.633C13.5643 21.633 13.2494 21.3158 13.2494 20.9246V20.2546C12.6811 20.1618 12.1375 19.9592 11.6721 19.6468C11.0175 19.2075 10.516 18.5597 10.3041 17.703C10.2116 17.324 10.4416 16.9412 10.8178 16.848C11.1939 16.7547 11.5739 16.9865 11.6664 17.3655C11.7861 17.849 12.0722 18.2167 12.4467 18.468C13.3677 19.086 14.8533 19.0647 15.7436 18.3841C16.5287 17.7839 16.2408 16.677 15.4794 16.2138C15.0176 15.9329 14.4135 15.7847 13.8484 15.6913C13.1627 15.5778 12.4199 15.3724 11.8171 14.9759C10.2625 13.9533 10.216 11.7036 11.6355 10.5407C12.0717 10.1834 12.6135 9.93807 13.191 9.82092L13.2495 9.80949V9.13029C13.2495 8.73906 13.5643 8.42187 13.9526 8.42187C14.3409 8.42187 14.6558 8.73906 14.6558 9.13029V9.79869C14.7504 9.81516 14.8446 9.83535 14.9378 9.85908C15.9372 10.1144 16.8464 10.7764 17.3239 11.9224C17.474 12.283 17.3056 12.6981 16.9476 12.8494C16.5896 13.0007 16.1777 12.831 16.0275 12.4703C15.6857 11.6494 14.8461 11.1623 13.9689 11.1619C13.0338 11.1613 11.9425 11.7274 11.9943 12.8022C12.0444 13.8418 13.2456 14.1595 14.0737 14.2965C14.7849 14.4141 15.5602 14.6098 16.2045 15.0017C16.9938 15.4819 17.4769 16.2896 17.5795 17.1286Z" fill="#062E32"/>
</svg>
