<svg width="52" height="52" viewBox="0 0 52 52" fill="none" xmlns="http://www.w3.org/2000/svg">
<g clip-path="url(#clip0_0_27)">
<path d="M49.4508 32.8918C48.9043 31.9514 48.0183 31.278 46.9562 30.9952C45.8942 30.7126 44.7879 30.8557 43.8409 31.3988L32.9898 37.6202C32.9264 37.0138 32.7362 36.4202 32.4209 35.873C31.8281 34.8437 30.872 34.1068 29.7288 33.7977L17.4857 30.4885C17.4502 30.4788 17.4142 30.4716 17.3778 30.4669C15.5316 30.2239 13.8465 30.671 12.3689 31.7948L9.08949 34.289L8.95037 33.7732C8.72994 32.9561 7.88066 32.4695 7.05828 32.6882L4.14504 33.4635C3.32225 33.6825 2.83231 34.5255 3.05285 35.3426L7.27614 50.9955C7.46095 51.6802 8.08682 52.1328 8.76885 52.1328C8.90078 52.1328 9.03487 52.1159 9.16823 52.0804L12.0815 51.3052C12.9043 51.0861 13.3942 50.2431 13.1738 49.426L13.0103 48.8202C14.7501 47.5236 16.349 47.1589 18.2873 47.6L25.2999 49.1967C25.9071 49.3348 26.4988 49.4038 27.0734 49.4038C28.264 49.4038 29.3813 49.1077 30.4108 48.5175L47.9477 38.4626C49.9085 37.3387 50.5827 34.8394 49.4508 32.8918ZM8.83754 50.4796L4.66486 35.0141L7.38898 34.2893L11.5617 49.7548L8.83754 50.4796ZM47.1264 37.0501L29.5894 47.1049C28.4176 47.7767 27.1345 47.9411 25.667 47.6068L18.6543 46.0102C16.4275 45.5031 14.5086 45.8516 12.5571 47.1412L9.54955 35.994L13.3678 33.09C14.4885 32.2375 15.713 31.906 17.1091 32.0773L29.2972 35.3718C30.0171 35.5664 30.62 36.0321 30.9951 36.683C31.37 37.334 31.4687 38.0863 31.2727 38.8011C30.8653 40.2873 29.3163 41.1671 27.8197 40.7629L21.2798 38.9952C20.8421 38.8767 20.3907 39.1332 20.2716 39.568C20.1525 40.0026 20.4107 40.4509 20.8484 40.5691L27.3883 42.3368C27.7748 42.4412 28.1674 42.4929 28.5581 42.4929C29.3245 42.4929 30.0831 42.294 30.7689 41.9043C31.6702 41.3923 32.3488 40.606 32.715 39.6614L44.6622 32.8114C45.229 32.4864 45.8927 32.401 46.531 32.5709C47.1692 32.7407 47.7009 33.1442 48.028 33.7072C48.7073 34.876 48.3027 36.3756 47.1264 37.0501ZM30.5226 6.61527C24.6916 6.61527 19.9477 11.3265 19.9477 17.1172C19.9477 22.908 24.6916 27.6192 30.5226 27.6192C36.3536 27.6192 41.0975 22.908 41.0975 17.1172C41.0975 11.3265 36.3537 6.61527 30.5226 6.61527ZM30.5226 25.9878C25.5974 25.9878 21.5904 22.0085 21.5904 17.1172C21.5904 12.226 25.5974 8.24664 30.5226 8.24664C35.4478 8.24664 39.4548 12.226 39.4548 17.1172C39.4548 22.0085 35.4478 25.9878 30.5226 25.9878ZM30.5226 9.23862C26.1482 9.23862 22.5892 12.7729 22.5892 17.1172C22.5892 21.4616 26.1482 24.9958 30.5226 24.9958C34.897 24.9958 38.4559 21.4616 38.4559 17.1172C38.4559 12.7729 34.897 9.23862 30.5226 9.23862ZM30.5226 23.3644C27.0539 23.3644 24.232 20.562 24.232 17.1171C24.232 13.6723 27.0539 10.8699 30.5226 10.8699C33.9913 10.8699 36.8132 13.6723 36.8132 17.1171C36.8132 20.562 33.9913 23.3644 30.5226 23.3644ZM33.0383 18.6307C33.0383 19.6907 32.3215 20.5877 31.344 20.8686V21.1356C31.344 21.5861 30.9762 21.9513 30.5226 21.9513C30.069 21.9513 29.7012 21.5861 29.7012 21.1356V20.903C29.149 20.7789 28.651 20.4576 28.312 19.9919C28.0462 19.6268 28.1288 19.1169 28.4963 18.8529C28.864 18.5891 29.3774 18.6711 29.6431 19.036C29.7764 19.2192 29.9895 19.3285 30.213 19.3285H30.6928C31.0803 19.3285 31.3955 19.0154 31.3955 18.6306C31.3955 18.2458 31.0803 17.9328 30.6928 17.9328H30.3522C29.0589 17.9328 28.0068 16.8879 28.0068 15.6036C28.0068 14.5436 28.7236 13.6467 29.701 13.3658V13.0988C29.701 12.6483 30.0688 12.2831 30.5224 12.2831C30.976 12.2831 31.3437 12.6483 31.3437 13.0988V13.3313C31.8959 13.4553 32.3939 13.7767 32.733 14.2422C32.9988 14.6073 32.9164 15.1172 32.5489 15.3811C32.1813 15.6453 31.6679 15.5633 31.4021 15.1983C31.2687 15.0152 31.0556 14.9059 30.8319 14.9059H30.3522C29.9647 14.9059 29.6495 15.2189 29.6495 15.6037C29.6495 15.9885 29.9647 16.3015 30.3522 16.3015H30.6928C31.9862 16.3015 33.0383 17.3464 33.0383 18.6307ZM19.754 24.6332L19.2114 24.405C21.6735 28.1655 25.9222 30.507 30.5226 30.507C33.6214 30.507 36.6476 29.4365 39.0441 27.4928C39.3956 27.208 39.913 27.2597 40.1998 27.6086C40.4867 27.9575 40.4346 28.4714 40.0833 28.7564C37.3942 30.9374 33.9989 32.1385 30.5225 32.1385C25.2323 32.1385 20.3577 29.3777 17.6306 24.9723L17.4131 25.7594C17.313 26.1216 16.9822 26.3594 16.6215 26.3594C16.5495 26.3594 16.4764 26.3499 16.4036 26.3301C15.9662 26.2108 15.7089 25.762 15.829 25.3275L16.6 22.5383C16.6627 22.3115 16.8209 22.1227 17.0339 22.0202C17.2471 21.9176 17.4944 21.9117 17.7123 22.0031L20.3944 23.131C20.8121 23.3068 21.0073 23.7854 20.8305 24.2001C20.6537 24.6149 20.1716 24.8086 19.754 24.6332ZM15.5903 19.5181C15.4621 18.7258 15.3971 17.9181 15.3971 17.1174C15.3971 8.96893 21.9641 2.31517 30.1181 2.10156L29.5412 1.52161C29.2224 1.20115 29.2256 0.684716 29.5483 0.368128C29.871 0.0516415 30.391 0.0548023 30.7098 0.375163L32.7567 2.43294C32.9231 2.60025 33.0087 2.83058 32.9916 3.0652C32.9744 3.29971 32.8563 3.51545 32.6673 3.65718L30.3426 5.4C30.1945 5.51103 30.0206 5.56466 29.8484 5.56466C29.5996 5.56466 29.3537 5.45281 29.1922 5.24043C28.9189 4.88091 28.9909 4.36938 29.3528 4.09796L29.8231 3.74538C22.7123 4.10795 17.0396 9.96712 17.0396 17.1175C17.0396 17.8318 17.0976 18.5523 17.212 19.2593C17.2839 19.7041 16.9792 20.1226 16.5314 20.1941C16.4872 20.2011 16.4434 20.2046 16.4 20.2046C16.0039 20.2044 15.6552 19.919 15.5903 19.5181ZM34.8363 3.54543C34.9975 3.12433 35.4721 2.91297 35.896 3.07284C38.733 4.14394 41.1582 6.0191 42.9093 8.49532C44.7011 11.0292 45.6482 14.0106 45.6482 17.1173C45.6482 19.6495 45.0217 22.09 43.8234 24.2762L44.6135 24.0711C45.0525 23.9576 45.5012 24.2181 45.6159 24.654C45.7307 25.0897 45.4678 25.5355 45.029 25.6495L42.2111 26.3811C42.1426 26.3988 42.0728 26.4076 42.0034 26.4076C41.8405 26.4076 41.6797 26.3595 41.5423 26.2669C41.3463 26.135 41.2172 25.9253 41.1882 25.6919L40.8308 22.8212C40.7751 22.3741 41.095 21.9669 41.5452 21.9116C41.9956 21.8566 42.4054 22.1739 42.4611 22.6211L42.5342 23.2083C43.5014 21.3351 44.0055 19.2633 44.0055 17.1174C44.0055 11.5923 40.512 6.56092 35.3123 4.59777C34.8883 4.43769 34.6753 3.96653 34.8363 3.54543Z" fill="#062E32"/>
</g>
<defs>
<clipPath id="clip0_0_27">
<rect width="52" height="52" rx="6" fill="white"/>
</clipPath>
</defs>
</svg>
