<svg width="24" height="24" viewBox="0 0 24 24" fill="none" xmlns="http://www.w3.org/2000/svg">
<path d="M21.5312 5H2.78125C2.57405 5 2.37534 5.07726 2.22882 5.21477C2.08231 5.35229 2 5.5388 2 5.73328V18.199C2 18.588 2.16462 18.961 2.45765 19.236C2.75067 19.5111 3.1481 19.6656 3.5625 19.6656H20.75C21.1644 19.6656 21.5618 19.5111 21.8549 19.236C22.1479 18.961 22.3125 18.588 22.3125 18.199V5.73328C22.3125 5.5388 22.2302 5.35229 22.0837 5.21477C21.9372 5.07726 21.7385 5 21.5312 5ZM12.1562 12.8048L4.79004 6.46656H19.5225L12.1562 12.8048ZM9.2959 12.3328L3.5625 17.265V7.40057L9.2959 12.3328ZM10.4521 13.3273L11.624 14.3401C11.7682 14.4643 11.9567 14.5332 12.1523 14.5332C12.348 14.5332 12.5365 14.4643 12.6807 14.3401L13.8525 13.3273L19.5166 18.199H4.79004L10.4521 13.3273ZM15.0166 12.3328L20.75 7.39965V17.2659L15.0166 12.3328Z" fill="#BACFC2"/>
</svg>
