<svg width="32" height="32" viewBox="0 0 32 32" fill="none" xmlns="http://www.w3.org/2000/svg">
<rect width="32" height="32" rx="6" fill="white"/>
<path d="M3.50845 16.8248L8.17512 21.4915C8.28274 21.6029 8.41148 21.6918 8.55382 21.753C8.69615 21.8141 8.84924 21.8463 9.00415 21.8476C9.15906 21.849 9.31269 21.8195 9.45607 21.7608C9.59945 21.7021 9.72971 21.6155 9.83925 21.506C9.94879 21.3964 10.0354 21.2662 10.0941 21.1228C10.1527 20.9794 10.1823 20.8258 10.1809 20.6709C10.1796 20.516 10.1474 20.3629 10.0862 20.2205C10.0251 20.0782 9.93622 19.9495 9.82479 19.8418L5.98295 16L9.82479 12.1582C9.93622 12.0506 10.0251 11.9218 10.0862 11.7795C10.1474 11.6371 10.1796 11.4841 10.1809 11.3291C10.1823 11.1742 10.1527 11.0206 10.0941 10.8772C10.0354 10.7339 9.94879 10.6036 9.83925 10.4941C9.72971 10.3845 9.59945 10.2979 9.45607 10.2392C9.31269 10.1806 9.15906 10.151 9.00415 10.1524C8.84924 10.1537 8.69615 10.1859 8.55382 10.2471C8.41148 10.3082 8.28274 10.3971 8.17512 10.5085L3.50845 15.1752C3.28974 15.394 3.16687 15.6907 3.16687 16C3.16687 16.3094 3.28974 16.6061 3.50845 16.8248Z" fill="#062E32"/>
<path d="M23.8248 10.5085C23.7172 10.3971 23.5884 10.3082 23.4461 10.2471C23.3038 10.1859 23.1507 10.1537 22.9958 10.1524C22.8409 10.151 22.6872 10.1806 22.5439 10.2392C22.4005 10.2979 22.2702 10.3845 22.1607 10.4941C22.0511 10.6036 21.9645 10.7339 21.9058 10.8772C21.8472 11.0206 21.8177 11.1742 21.819 11.3291C21.8204 11.4841 21.8525 11.6371 21.9137 11.7795C21.9748 11.9218 22.0637 12.0506 22.1751 12.1582L26.017 16L22.1751 19.8418C22.0637 19.9495 21.9748 20.0782 21.9137 20.2205C21.8525 20.3629 21.8204 20.516 21.819 20.6709C21.8177 20.8258 21.8472 20.9794 21.9058 21.1228C21.9645 21.2662 22.0511 21.3964 22.1607 21.506C22.2702 21.6155 22.4005 21.7021 22.5439 21.7608C22.6872 21.8195 22.8409 21.849 22.9958 21.8476C23.1507 21.8463 23.3038 21.8141 23.4461 21.753C23.5884 21.6918 23.7172 21.6029 23.8248 21.4915L28.4915 16.8248C28.7102 16.6061 28.8331 16.3094 28.8331 16C28.8331 15.6907 28.7102 15.394 28.4915 15.1752L23.8248 10.5085Z" fill="#062E32"/>
<path d="M17.2122 7.51354L12.5455 23.8469C12.4605 24.1442 12.4971 24.4631 12.6472 24.7335C12.7973 25.0039 13.0486 25.2037 13.3458 25.2889C13.4504 25.3177 13.5582 25.3326 13.6667 25.3332C13.9202 25.333 14.1668 25.2502 14.3691 25.0974C14.5714 24.9446 14.7184 24.73 14.7878 24.4862L19.4545 8.15287C19.5031 8.00371 19.5212 7.84628 19.5076 7.68998C19.494 7.53368 19.449 7.38174 19.3753 7.24323C19.3016 7.10472 19.2007 6.9825 19.0787 6.88387C18.9567 6.78525 18.8161 6.71224 18.6652 6.66922C18.5143 6.62621 18.3563 6.61406 18.2007 6.63352C18.045 6.65297 17.8948 6.70362 17.7592 6.78244C17.6235 6.86126 17.5052 6.96663 17.4112 7.09225C17.3172 7.21787 17.2495 7.36116 17.2122 7.51354Z" fill="#062E32"/>
</svg>
