<svg width="24" height="24" viewBox="0 0 24 24" fill="none" xmlns="http://www.w3.org/2000/svg">
<path fill-rule="evenodd" clip-rule="evenodd" d="M2.19995 6.0002C2.19995 5.55837 2.55812 5.2002 2.99995 5.2002H21C21.4418 5.2002 21.7999 5.55837 21.7999 6.0002C21.7999 6.44202 21.4418 6.8002 21 6.8002H2.99995C2.55812 6.8002 2.19995 6.44202 2.19995 6.0002ZM2.19995 12.0002C2.19995 11.5584 2.55812 11.2002 2.99995 11.2002H21C21.4418 11.2002 21.7999 11.5584 21.7999 12.0002C21.7999 12.442 21.4418 12.8002 21 12.8002H2.99995C2.55812 12.8002 2.19995 12.442 2.19995 12.0002ZM2.99995 17.2002C2.55812 17.2002 2.19995 17.5584 2.19995 18.0002C2.19995 18.442 2.55812 18.8002 2.99995 18.8002H21C21.4418 18.8002 21.7999 18.442 21.7999 18.0002C21.7999 17.5584 21.4418 17.2002 21 17.2002H2.99995Z" fill="#E2FFCF"/>
</svg>
