<svg width="32" height="32" viewBox="0 0 32 32" fill="none" xmlns="http://www.w3.org/2000/svg">
<g clip-path="url(#clip0_2_442)">
<path d="M28.9693 4.94095C28.913 3.90817 28.0916 3.08688 27.0588 3.03051C24.9748 2.91666 20.8969 3.02742 16.9975 5.04429C15.0097 6.07251 12.9073 7.81578 11.2296 9.82713C11.2089 9.85191 11.1888 9.87684 11.1683 9.90167L7.36071 10.1958C6.73397 10.2442 6.17573 10.5727 5.8291 11.097L3.23143 15.0261C2.96854 15.4237 2.92675 15.9213 3.11956 16.3571C3.31243 16.793 3.70873 17.0968 4.17972 17.1698L7.38762 17.6666C7.3763 17.729 7.36492 17.7913 7.35452 17.8537C7.24772 18.4925 7.45938 19.1493 7.92078 19.6106L12.3891 24.079C12.7717 24.4616 13.2886 24.6725 13.8182 24.6725C13.9273 24.6725 14.037 24.6635 14.1462 24.6452C14.2085 24.6348 14.2708 24.6235 14.3332 24.6121L14.83 27.8201C14.903 28.2911 15.2068 28.6874 15.6426 28.8803C15.8239 28.9605 16.0158 29.0001 16.2069 29.0001C16.4751 29 16.7415 28.9219 16.9737 28.7684L20.9028 26.1707C21.4271 25.824 21.7555 25.2658 21.8039 24.6391L22.098 20.8316C22.1228 20.8111 22.1478 20.791 22.1726 20.7703C24.184 19.0925 25.9273 16.9902 26.9555 15.0023C28.9725 11.1028 29.083 7.02476 28.9693 4.94095ZM20.0626 24.8999L16.3042 27.3847L15.82 24.2584C17.4084 23.7914 18.9797 23.0434 20.4767 22.0413L20.2851 24.5217C20.2732 24.6764 20.192 24.8143 20.0626 24.8999ZM13.4663 23.0018L8.99795 18.5334C8.88394 18.4194 8.83123 18.2592 8.85708 18.1048C8.98993 17.3105 9.19635 16.5543 9.45188 15.8419L16.1564 22.5465C15.3009 22.8529 14.5345 23.0357 13.8949 23.1427C13.7404 23.1684 13.5803 23.1158 13.4663 23.0018ZM7.47807 11.7147L9.95843 11.5231C8.95631 13.0201 8.2083 14.5914 7.74127 16.1799L4.61497 15.6957L7.0999 11.9372C7.18551 11.8077 7.32339 11.7267 7.47807 11.7147ZM21.1969 19.6003C19.9663 20.6268 18.7718 21.3692 17.6707 21.9064L10.0931 14.3288C10.7968 12.8915 11.6557 11.6946 12.3994 10.803C13.9521 8.9416 15.8831 7.33585 17.6975 6.39741C21.2762 4.54628 25.0468 4.4466 26.9759 4.55161C27.2312 4.56553 27.4343 4.7686 27.4482 5.02398C27.5534 6.95306 27.4535 10.7236 25.6024 14.3024C24.664 16.1167 23.0582 18.0477 21.1969 19.6003Z" fill="#062E32"/>
<path d="M20.81 14.9967C21.7852 14.9966 22.7607 14.6253 23.503 13.883C24.2224 13.1637 24.6185 12.2072 24.6185 11.19C24.6185 10.1727 24.2223 9.21633 23.503 8.49701C22.0181 7.01201 19.6019 7.01212 18.1171 8.49701C17.3977 9.21633 17.0016 10.1727 17.0016 11.19C17.0016 12.2072 17.3978 13.1637 18.1171 13.883C18.8596 14.6255 19.8346 14.9968 20.81 14.9967ZM19.1942 9.57418C19.6396 9.12868 20.2248 8.90595 20.8099 8.90595C21.3952 8.90595 21.9803 9.12868 22.4258 9.57418C22.8573 10.0058 23.095 10.5796 23.095 11.1899C23.095 11.8003 22.8573 12.3742 22.4258 12.8057C21.5348 13.6967 20.0851 13.6967 19.1941 12.8057C18.7625 12.3742 18.5248 11.8003 18.5248 11.19C18.5248 10.5797 18.7626 10.0058 19.1942 9.57418Z" fill="#062E32"/>
<path d="M3.777 24.4264C3.97195 24.4264 4.1669 24.352 4.31558 24.2033L6.80249 21.7163C7.09997 21.4189 7.09997 20.9366 6.80249 20.6391C6.50507 20.3416 6.02275 20.3416 5.72527 20.6391L3.23841 23.126C2.94094 23.4235 2.94094 23.9058 3.23841 24.2033C3.3871 24.352 3.58205 24.4264 3.777 24.4264Z" fill="#062E32"/>
<path d="M9.08162 22.9184C8.78419 22.6209 8.30187 22.6209 8.0044 22.9184L3.22314 27.6997C2.92566 27.9972 2.92566 28.4795 3.22314 28.777C3.37188 28.9257 3.56677 29 3.76172 29C3.95667 29 4.15162 28.9257 4.30031 28.7769L9.08157 23.9956C9.3791 23.6982 9.3791 23.2159 9.08162 22.9184Z" fill="#062E32"/>
<path d="M10.2833 25.1977L7.79635 27.6846C7.49887 27.9821 7.49887 28.4644 7.79635 28.7618C7.94509 28.9106 8.14004 28.985 8.33494 28.985C8.52983 28.985 8.72483 28.9106 8.87352 28.7618L11.3604 26.2749C11.6579 25.9775 11.6579 25.4952 11.3604 25.1977C11.063 24.9002 10.5807 24.9002 10.2833 25.1977Z" fill="#062E32"/>
</g>
<defs>
<clipPath id="clip0_2_442">
<rect width="26" height="26" fill="white" transform="translate(3 3)"/>
</clipPath>
</defs>
</svg>
