<svg width="32" height="32" viewBox="0 0 32 32" fill="none" xmlns="http://www.w3.org/2000/svg">
<rect width="32" height="32" rx="6" fill="white"/>
<g clip-path="url(#clip0_2_493)">
<path d="M21.3928 17.3695C20.0878 15.3337 17.8653 14.1182 15.4475 14.1182C13.0299 14.1182 10.8072 15.3337 9.50245 17.3695L6.35801 22.2749C5.8363 23.0888 5.59557 24.0289 5.66173 24.9934C5.72788 25.958 6.09494 26.8563 6.72308 27.5916C7.35166 28.3266 8.18224 28.8288 9.12499 29.0443C10.0677 29.2596 11.0342 29.1678 11.9196 28.7786L11.9774 28.7529C14.2056 27.7924 16.7524 27.8011 18.9752 28.7786C19.5484 29.0306 20.1558 29.158 20.7686 29.158C21.1018 29.158 21.437 29.1202 21.7691 29.0445C22.7119 28.8292 23.5425 28.327 24.1713 27.592C24.7996 26.857 25.1669 25.9585 25.2333 24.9938C25.2997 24.0289 25.0589 23.0888 24.5372 22.2746L21.3928 17.3695ZM22.8794 26.4871C22.0795 27.4221 20.7857 27.7177 19.6595 27.2225C18.3209 26.6337 16.8841 26.3395 15.4468 26.3395C14.0109 26.3395 12.5743 26.6335 11.2366 27.2216L11.1986 27.2384C10.081 27.711 8.80617 27.4117 8.01519 26.4871C7.21625 25.5518 7.12531 24.2279 7.78907 23.1922L10.9337 18.2868C11.9245 16.7411 13.6118 15.8183 15.4475 15.8183C17.2832 15.8183 18.9707 16.7411 19.9617 18.2868L23.1059 23.1919C23.7699 24.2281 23.6788 25.5523 22.8794 26.4871Z" fill="#062E32"/>
<path d="M7.20499 17.3632C8.14044 17.0039 8.85111 16.2501 9.20622 15.2405C9.54385 14.2798 9.51619 13.1953 9.12789 12.1863C8.73937 11.1781 8.03269 10.355 7.13817 9.8685C6.19807 9.35763 5.16548 9.27444 4.23158 9.63441C2.3527 10.3568 1.49048 12.6786 2.30978 14.8113C2.96424 16.5087 4.49066 17.5803 6.0339 17.5803C6.42795 17.5803 6.82311 17.5103 7.20499 17.3632ZM3.89616 14.2006C3.41338 12.9439 3.83753 11.6071 4.84223 11.2208C5.02366 11.1509 5.21549 11.1161 5.41129 11.1161C5.71352 11.1161 6.02571 11.1987 6.32617 11.3622C6.86647 11.6558 7.29813 12.1655 7.54151 12.7972C7.78467 13.4293 7.80635 14.0966 7.60236 14.6765C7.4154 15.208 7.05763 15.5987 6.59522 15.7764L6.59433 15.7768C5.59095 16.1636 4.38048 15.4562 3.89616 14.2006Z" fill="#062E32"/>
<path d="M13.3062 13.5199C15.655 13.5199 17.566 11.3428 17.566 8.66678C17.566 5.99007 15.655 3.8125 13.3062 3.8125C10.9576 3.8125 9.04688 5.99007 9.04688 8.66678C9.04688 11.3428 10.9576 13.5199 13.3062 13.5199ZM13.3062 5.51238C14.7176 5.51238 15.8661 6.92751 15.8661 8.66678C15.8661 10.4054 14.7176 11.8201 13.3062 11.8201C11.8948 11.8201 10.7468 10.4054 10.7468 8.66678C10.7468 6.92751 11.8948 5.51238 13.3062 5.51238Z" fill="#062E32"/>
<path d="M20.6628 14.7121H20.6631C21.0244 14.832 21.393 14.8893 21.76 14.8893C23.473 14.8893 25.1423 13.6425 25.7793 11.7265C26.1461 10.6235 26.122 9.45731 25.7114 8.44287C25.2817 7.38108 24.4854 6.61024 23.469 6.27216C22.4525 5.93453 21.3527 6.07525 20.3728 6.66865C19.4367 7.23572 18.7194 8.15524 18.3532 9.25818C17.5799 11.5849 18.616 14.0315 20.6628 14.7121ZM19.9663 9.79428C20.2055 9.0741 20.6626 8.4807 21.2536 8.12272C21.8003 7.7915 22.3968 7.7072 22.9329 7.88531C23.4688 8.06364 23.8958 8.488 24.1356 9.08052C24.3947 9.72082 24.4058 10.47 24.1661 11.1902C23.6885 12.6274 22.3574 13.4837 21.1992 13.0989C20.0418 12.7139 19.4886 11.2315 19.9663 9.79428Z" fill="#062E32"/>
<path d="M29.6335 14.1458L29.6329 14.1451C28.0131 12.9486 25.5906 13.4672 24.2323 15.3018C22.8754 17.1373 23.0876 19.6049 24.7049 20.8024C25.2948 21.2393 25.9917 21.4482 26.705 21.4482C27.9482 21.4482 29.2417 20.8136 30.1061 19.6468C31.4631 17.8112 31.2511 15.3436 29.6335 14.1458ZM28.7399 18.6354C27.9378 19.718 26.5818 20.0771 25.7165 19.4361C24.8518 18.796 24.7992 17.3946 25.599 16.3127C26.1307 15.5945 26.9073 15.1949 27.623 15.1949C27.985 15.1949 28.3315 15.2972 28.6226 15.5124C29.4866 16.1532 29.5391 17.5541 28.7399 18.6354Z" fill="#062E32"/>
</g>
<defs>
<clipPath id="clip0_2_493">
<rect width="29" height="29" fill="white" transform="translate(2 2)"/>
</clipPath>
</defs>
</svg>
