<svg width="147" height="36" viewBox="0 0 147 36" fill="none" xmlns="http://www.w3.org/2000/svg">
<path d="M15.78 0.261003C13.8786 0.476372 11.0264 1.37099 9.40361 2.2656C5.04338 4.63466 2.09286 8.32908 0.617593 13.2495C0.322541 14.2103 -0.0216875 16.8279 -0.00529566 18.0539C-0.00529566 19.1307 0.322541 21.7648 0.519242 22.3944C0.617593 22.6926 0.830687 23.405 1.011 23.9517C1.30605 24.8794 2.73214 27.7952 2.97801 27.994C3.02719 28.0437 3.28946 28.375 3.53534 28.7561C4.14183 29.6672 5.73184 31.2908 6.92844 32.2186C7.84638 32.9309 10.4363 34.4385 10.7641 34.4551C10.8461 34.4551 10.8625 33.8255 10.8133 32.9972C10.6986 31.1583 11.0428 28.6567 11.7804 26.1054C11.9116 25.6746 12.0099 25.1114 12.0099 24.8629C12.0099 24.6143 12.0755 24.3493 12.1574 24.2664C12.2394 24.167 12.3869 23.6866 12.4689 23.1896C12.5672 22.6926 12.7311 21.9305 12.8459 21.4998C13.0098 20.8537 12.9934 20.6052 12.7639 19.9093C12.4361 18.8491 12.4197 17.1261 12.7475 16.2978C13.518 14.3263 14.3703 13.5808 15.8128 13.5808C17.5503 13.5808 18.3863 14.9061 18.0585 17.1261C17.911 18.1367 17.5012 19.7271 17.2389 20.2241C17.1733 20.3732 17.0586 20.7874 17.0094 21.1353C16.9438 21.4998 16.8127 22.0133 16.7307 22.295C16.5013 22.9411 16.9438 24.2002 17.5339 24.6806C18.0913 25.1279 19.2551 25.2605 20.3206 25.0119C21.0746 24.8463 21.386 24.6475 22.1728 23.8854C23.1072 22.9577 23.812 21.8808 23.812 21.3672C23.812 21.2181 23.894 21.0193 23.9923 20.9199C24.4513 20.4561 24.6972 16.8445 24.3529 15.3203C23.9759 13.6471 22.8121 12.0069 21.3041 11.0461C19.796 10.0686 16.6816 9.78697 14.7637 10.4496C13.4196 10.9135 12.223 11.6922 11.4526 12.6033C10.7641 13.4151 10.0429 14.7405 10.0429 15.2043C10.0429 15.37 9.96093 15.5854 9.86258 15.6848C9.76423 15.7842 9.64948 16.4137 9.60031 17.093C9.51835 18.1036 9.58392 18.5674 9.87897 19.5614C10.0757 20.2407 10.4363 21.0359 10.6494 21.3341C11.092 21.9305 11.092 22.1624 10.6822 23.7529C10.5674 24.1836 10.3707 24.5812 10.256 24.6309C9.2233 25.0285 7.12514 22.5269 6.4203 20.0419C6.15803 19.0976 6.14164 15.7345 6.4039 14.7405C6.51865 14.3263 6.71535 13.763 6.84648 13.4648C6.97762 13.1832 7.09236 12.9015 7.09236 12.8353C7.09236 12.769 7.4202 12.2057 7.82999 11.5928C9.96093 8.34565 13.4196 6.62269 17.7962 6.62269C18.7961 6.62269 19.8288 6.68896 20.1075 6.77179C22.3695 7.48417 22.976 7.71611 23.8612 8.24625C25.5823 9.28996 26.8281 10.7147 28.0739 13.1003C28.1558 13.2495 28.2706 13.6471 28.3198 13.9784C28.3853 14.3097 28.5001 14.6245 28.582 14.6742C28.664 14.7239 28.7296 15.8008 28.7296 17.0764C28.7296 19.3792 28.5656 20.307 27.8772 22.1956C27.1068 24.2664 25.1234 26.5527 23.3203 27.4473C22.2876 27.9443 20.3533 28.491 19.5829 28.491C18.5502 28.491 16.5177 27.6295 15.9603 26.9337C15.6981 26.6189 15.4522 26.7349 15.4522 27.1822C15.4522 27.3479 15.3866 27.6295 15.2883 27.7952C15.2063 27.9443 15.0588 28.4082 14.9768 28.8223C14.5015 31.0092 13.8294 32.7818 12.7967 34.4385C12.4853 34.9521 12.7475 35.2503 13.5999 35.3663C14.0261 35.4325 14.5998 35.5485 14.8621 35.6313C15.5178 35.8467 19.0748 35.8136 20.2714 35.5982C21.3532 35.3994 23.1072 34.9024 23.894 34.5711C28.8443 32.5168 32.598 28.3419 34.2208 23.0239C35.0896 20.191 35.1388 16.8942 34.3519 13.5808C34.0897 12.5039 34.0077 12.2554 33.3029 10.5987C32.2866 8.17998 29.9917 5.34704 27.6641 3.60752C25.6643 2.1165 23.6973 1.25502 20.632 0.509506C19.7796 0.310703 16.7471 0.145034 15.78 0.261003ZM59.497 6.24165C58.8577 6.34105 57.8414 7.40134 57.5792 8.22968C57.3005 9.14086 57.5791 10.1183 58.366 10.8804C60.1035 12.5868 63.1196 10.9798 62.7426 8.52789C62.5131 6.9706 61.1034 5.97658 59.497 6.24165ZM41.6299 7.2191C41.4824 7.38477 41.4824 27.3645 41.6463 27.5964C41.7283 27.7289 42.4331 27.7786 43.81 27.7621L45.859 27.7455L45.941 24.3824C46.0065 21.6489 46.0721 20.9862 46.2688 20.8702C46.3999 20.7874 47.5146 20.7046 48.744 20.7046C51.4322 20.7046 52.5633 20.5058 53.7926 19.8431C55.399 18.965 56.3334 17.7059 56.8415 15.7014C57.153 14.4423 57.153 13.5311 56.8251 12.2389C56.5301 11.0792 56.3989 10.7976 55.6941 9.85324C54.8253 8.67699 53.9402 8.03088 52.4977 7.51731C51.6945 7.25223 51.0224 7.20253 46.6786 7.15283C43.9739 7.1197 41.6955 7.15283 41.6299 7.2191ZM50.629 11.3443C51.7273 11.6922 52.2682 12.1892 52.5141 13.0838C52.8255 14.26 52.596 15.3534 51.9076 16.0161C51.1536 16.7285 50.4815 16.8942 48.285 16.8942C46.8425 16.8942 46.3999 16.8445 46.2032 16.6291C45.9901 16.4303 45.941 15.9499 45.941 14.0612C45.941 11.0792 45.9246 11.0958 48.203 11.0958C49.1865 11.0958 50.1373 11.1952 50.629 11.3443ZM79.3803 10.3668C79.3803 11.5099 79.2983 12.5868 79.2163 12.769C79.1016 12.9844 78.8721 13.0838 78.4787 13.0838C78.1837 13.0838 77.905 13.1501 77.8722 13.2495C77.8558 13.3323 77.8558 13.9121 77.905 14.5251C77.987 15.6185 78.0033 15.6351 78.4951 15.7511C78.7738 15.8008 79.0852 15.9002 79.1836 15.9664C79.3311 16.0493 79.3803 17.358 79.3803 20.6714C79.3803 25.1279 79.3967 25.2936 79.7573 25.9563C80.5113 27.3645 81.6915 27.8615 84.0847 27.7952L85.6911 27.7455L85.7403 26.1385L85.7895 24.5149H85.3797C84.7568 24.5149 83.8388 24.0179 83.7405 23.6203C83.6913 23.4215 83.6421 21.6654 83.6421 19.694C83.6421 16.977 83.6913 16.0658 83.8552 15.9333C83.97 15.8339 84.4289 15.7345 84.8715 15.7014L85.6911 15.6517V13.1666L84.7896 13.1169C84.2978 13.0838 83.8388 12.9678 83.7733 12.8684C83.7077 12.7524 83.6421 11.6756 83.6421 10.4662V8.27938H79.3803V10.3668ZM140.309 8.37878C140.243 8.44505 140.194 9.48877 140.194 10.6981C140.194 13.0506 140.178 13.0838 139.276 13.0838C138.866 13.0838 138.866 13.1003 138.915 14.3594C138.965 15.6185 138.981 15.6517 139.407 15.7014C139.637 15.7345 139.915 15.8505 139.997 15.9499C140.096 16.0658 140.194 18.0704 140.243 20.6217C140.292 23.0736 140.374 25.3102 140.44 25.5752C140.636 26.3042 141.653 27.2319 142.62 27.5467C143.702 27.9112 146.456 27.9443 146.734 27.5964C146.865 27.4473 146.915 26.8509 146.882 25.9894L146.833 24.5978L146.259 24.4984C145.636 24.399 144.931 24.0676 144.751 23.786C144.685 23.6866 144.62 21.8808 144.62 19.7768C144.62 15.4528 144.521 15.7345 145.947 15.7345C146.882 15.7345 146.964 15.5688 146.882 14.0612L146.833 13.1666L145.767 13.0838L144.702 13.0009L144.62 10.6816L144.538 8.36222L142.472 8.31252C141.341 8.29595 140.374 8.32908 140.309 8.37878ZM71.2663 12.6862C70.4631 12.9015 69.5288 13.4483 68.9059 14.0944C68.1519 14.8896 67.9552 14.8399 67.8732 13.8293L67.824 13.1666H63.7261V27.7455L65.7915 27.7786C67.824 27.8283 67.8732 27.8118 67.9716 27.4473C68.0207 27.2485 68.0699 25.1445 68.0699 22.7589C68.0699 18.0373 68.0863 17.9048 69.0534 16.977C69.4796 16.5628 69.7091 16.48 70.627 16.4303L71.6925 16.364L72.3318 17.0433C73.0858 17.8385 73.0039 17.0764 73.0694 23.9351C73.0858 25.7575 73.1022 27.3644 73.1186 27.5301C73.1514 27.7621 73.4136 27.7952 75.2495 27.7621L77.3313 27.7455V16.1155L76.8559 15.1712C76.0363 13.5311 74.7742 12.7524 72.8399 12.653C72.1515 12.6365 71.4466 12.6365 71.2663 12.6862ZM91.7561 12.6862C89.9858 13.1666 89.1334 13.6471 88.0351 14.7405C86.5599 16.2481 85.8878 18.0042 85.8878 20.3732C85.9042 24.5315 88.4777 27.613 92.2806 27.9774C95.5262 28.2922 98.0341 27.3313 99.6405 25.1611C99.87 24.8463 100.362 23.8357 100.362 23.6535C100.362 23.5872 99.4111 23.5209 98.2636 23.5209H96.1655L95.6737 24.0345C95.1 24.6309 94.2968 25.0119 93.5592 25.0119C92.8216 25.0119 91.6905 24.4818 91.166 23.9185C90.7726 23.4712 90.1989 22.179 90.1989 21.7317C90.1989 21.5826 91.3955 21.5329 95.2475 21.5329C98.0178 21.5329 100.362 21.4666 100.477 21.4004C100.722 21.2347 100.493 18.6006 100.132 17.6397C99.3947 15.6351 98.0014 13.9453 96.5917 13.3489C96.1819 13.1832 95.7065 12.9678 95.5426 12.885C95.1984 12.7027 92.2806 12.5536 91.7561 12.6862ZM94.9525 16.3143C95.5918 16.7616 96.1491 17.8219 96.0671 18.4183C96.018 18.7994 95.9852 18.7994 93.215 18.8491C90.0186 18.8988 90.0022 18.8822 90.5103 17.6894C90.8709 16.861 91.5922 16.1155 92.2642 15.9002C93.0347 15.6517 94.2804 15.8505 94.9525 16.3143ZM116.016 12.6862C114.115 13.1997 112.787 14.0447 111.754 15.3534C111.344 15.8836 111.016 16.3806 111.016 16.48C111.016 16.5628 110.902 16.861 110.754 17.1427C110.607 17.4077 110.394 18.2361 110.279 18.9816C109.705 22.5269 111.279 25.8403 114.229 27.3313L115.36 27.9112H117.737C120.196 27.9112 120.409 27.8615 121.917 27.0497C123.015 26.4533 124.818 24.1339 124.54 23.67C124.474 23.5872 123.54 23.5209 122.442 23.5209H120.425L120.016 24.0014C118.376 25.8734 115.311 24.9125 114.655 22.3115C114.557 21.9636 114.557 21.6654 114.639 21.5992C114.721 21.5495 117.065 21.5163 119.868 21.5329C123.868 21.5329 124.95 21.4998 124.966 21.3341C125.113 19.2632 124.13 16.1984 122.901 14.873C122.212 14.1275 121.015 13.2992 120.425 13.1501C120.163 13.0838 119.868 12.9678 119.753 12.885C119.524 12.7027 116.524 12.5536 116.016 12.6862ZM118.573 15.9167C119.311 16.1818 120.163 17.1095 120.294 17.8219C120.491 18.8988 120.507 18.8988 117.458 18.8491C114.721 18.7994 114.705 18.7994 114.655 18.4183C114.59 17.9545 115.164 16.8113 115.655 16.3806C116.36 15.7842 117.59 15.5854 118.573 15.9167ZM130.277 12.6862C126.917 13.498 125.704 14.7073 125.687 17.2255C125.687 19.9425 127.031 21.0856 131.014 21.798C133.752 22.2784 134.539 22.7092 134.506 23.7529C134.49 24.4984 133.981 24.9788 132.965 25.1942C131.687 25.4758 130.687 25.1611 129.883 24.2499L129.244 23.5209H127.261C125.654 23.5209 125.277 23.5706 125.277 23.7529C125.277 24.2333 125.933 25.4924 126.474 26.1219C126.982 26.6686 127.376 26.9337 128.916 27.6792C129.064 27.7621 129.867 27.8946 130.67 27.994C132.162 28.1762 134.752 28.0106 135.408 27.6792C135.555 27.613 135.981 27.3976 136.342 27.2319C137.276 26.7846 138.161 25.774 138.489 24.8131C138.85 23.7197 138.751 22.1956 138.243 21.1353C137.637 19.8928 136.03 18.9982 133.637 18.5674C130.556 18.0207 130.506 18.0042 130.015 17.5237C129.424 16.9107 129.424 16.6954 130.015 16.0327C130.49 15.5026 130.523 15.486 131.834 15.486C133.145 15.486 133.178 15.5026 133.654 16.0327C133.916 16.3309 134.129 16.6788 134.129 16.8113C134.129 17.0101 134.473 17.0598 136.178 17.0598C138.44 17.0598 138.374 17.1095 137.981 15.9333C137.26 13.8459 135.407 12.7856 132.326 12.6696C131.375 12.6365 130.457 12.6365 130.277 12.6862ZM108.476 13.0341C107.755 13.2826 106.755 14.1109 106.443 14.7073C106.132 15.3037 105.853 15.0552 105.771 14.0612L105.689 13.1666H101.591L101.542 20.1247C101.526 23.9517 101.542 27.2485 101.591 27.4639C101.673 27.8283 101.722 27.8283 103.689 27.7952C104.82 27.7786 105.738 27.6792 105.804 27.5798C105.869 27.497 105.935 25.7409 105.935 23.6866C105.935 20.4395 105.968 19.8596 106.246 19.1307C106.82 17.6231 108.05 16.7285 109.59 16.7285C110.017 16.7285 110.197 16.6457 110.246 16.4303C110.361 15.9499 110.377 13.7133 110.279 13.2163C110.18 12.8187 110.099 12.7524 109.656 12.769C109.361 12.7856 108.836 12.9015 108.476 13.0341ZM57.9889 13.2826C57.9398 13.3986 57.9234 16.6622 57.9398 20.5389L57.9889 27.5798L59.9396 27.6627C61.1198 27.7124 61.9722 27.6792 62.1033 27.5798C62.2836 27.4473 62.3328 26.0391 62.3328 20.4064C62.3492 16.5628 62.3 13.3323 62.2508 13.2495C62.0869 13.0009 58.0709 13.0341 57.9889 13.2826Z" fill="#57897A"/>
</svg>
