<svg width="28" height="28" viewBox="0 0 28 28" fill="none" xmlns="http://www.w3.org/2000/svg">
<path d="M11.7657 20.9789C13.8133 20.979 15.8024 20.2957 17.4178 19.0373L23.5124 25.1328C23.9677 25.5725 24.6932 25.5599 25.1329 25.1046C25.5618 24.6604 25.5618 23.9562 25.1329 23.512L19.0383 17.4166C22.1605 13.3968 21.4335 7.60669 17.4143 4.48399C13.3952 1.36128 7.60599 2.08845 4.48375 6.10822C1.36152 10.128 2.08858 15.9181 6.10774 19.0408C7.72582 20.298 9.71668 20.98 11.7657 20.9789ZM6.86875 6.86582C9.57327 4.16084 13.9582 4.16079 16.6627 6.86572C19.3673 9.57065 19.3674 13.9562 16.6628 16.6612C13.9583 19.3662 9.57342 19.3662 6.86885 16.6613C6.8688 16.6612 6.8688 16.6612 6.86875 16.6612C4.16423 13.976 4.1483 9.6064 6.83311 6.90147C6.84497 6.88955 6.85684 6.87769 6.86875 6.86582Z" fill="#062E32"/>
</svg>
