<svg width="32" height="32" viewBox="0 0 32 32" fill="none" xmlns="http://www.w3.org/2000/svg">
<path d="M10 28C10 29.654 11.346 31 13 31C14.654 31 16 29.654 16 28C16 26.346 14.654 25 13 25C11.346 25 10 26.346 10 28ZM13 27C13.551 27 14 27.449 14 28C14 28.551 13.551 29 13 29C12.449 29 12 28.551 12 28C12 27.449 12.449 27 13 27Z" fill="#062E32"/>
<path d="M23 28C23 29.654 24.346 31 26 31C27.654 31 29 29.654 29 28C29 26.346 27.654 25 26 25C24.346 25 23 26.346 23 28ZM26 27C26.551 27 27 27.449 27 28C27 28.551 26.551 29 26 29C25.449 29 25 28.551 25 28C25 27.449 25.449 27 26 27Z" fill="#062E32"/>
<path d="M30 23H11C10.449 23 10 22.551 10 22V21H25C26.56 21 28.077 19.815 28.455 18.302L30.97 8.242C31.045 7.943 30.977 7.627 30.788 7.384C30.599 7.141 30.308 7 30 7H7.136L6.41 3.735C6.069 2.201 4.791 1 3.5 1H2C1.448 1 1 1.448 1 2C1 2.552 1.448 3 2 3H3.5C3.746 3 4.297 3.444 4.458 4.169L5.339 8.135C5.347 8.192 5.359 8.246 5.376 8.3L8 20.109V22C8 23.654 9.346 25 11 25H13H26H30C30.552 25 31 24.552 31 24C31 23.448 30.552 23 30 23ZM28.719 9L26.514 17.817C26.36 18.436 25.638 19 25 19H9.802L7.58 9H28.719Z" fill="#062E32"/>
</svg>
