<svg width="32" height="32" viewBox="0 0 32 32" fill="none" xmlns="http://www.w3.org/2000/svg">
<path d="M16 30.05H16.0001C19.7251 30.0458 23.2963 28.5642 25.9303 25.9303C28.5642 23.2963 30.0458 19.7251 30.05 16.0001V16C30.05 13.2212 29.226 10.5048 27.6822 8.19424C26.1383 5.88373 23.944 4.08291 21.3767 3.0195C18.8094 1.95609 15.9844 1.67785 13.259 2.21997C10.5336 2.7621 8.03008 4.10023 6.06516 6.06516C4.10023 8.03008 2.7621 10.5336 2.21997 13.259C1.67785 15.9844 1.95609 18.8094 3.0195 21.3767C4.08291 23.944 5.88373 26.1383 8.19424 27.6822C10.5048 29.226 13.2212 30.05 16 30.05ZM8.80537 5.23248C10.935 3.80952 13.4387 3.05002 15.9999 3.05001C19.4333 3.05396 22.7249 4.41961 25.1527 6.84736C27.5804 9.27511 28.9461 12.5667 28.95 16.0001C28.95 18.5613 28.1905 21.065 26.7675 23.1946C25.3446 25.3243 23.3221 26.9841 20.9558 27.9642C18.5895 28.9444 15.9856 29.2009 13.4736 28.7012C10.9615 28.2015 8.65406 26.9681 6.84297 25.157C5.03188 23.3459 3.79852 21.0385 3.29884 18.5264C2.79916 16.0144 3.05561 13.4106 4.03577 11.0443C5.01592 8.67795 6.67576 6.65544 8.80537 5.23248Z" fill="#062E32" stroke="#062E32" stroke-width="0.1"/>
<path d="M26.188 14.05H22C21.9146 14.05 21.8304 14.0301 21.754 13.9919C21.6777 13.9537 21.6112 13.8983 21.56 13.83L20.6601 12.6301C20.5246 12.4504 20.3493 12.3045 20.1481 12.2039C19.9468 12.1033 19.725 12.0506 19.5 12.05C19.5 12.05 19.4999 12.05 19.4999 12.05M26.188 14.05L19.5 12L19.4999 12.05M26.188 14.05C26.2714 14.05 26.3537 14.0311 26.4286 13.9946C26.5036 13.9582 26.5693 13.9052 26.6208 13.8396C26.6723 13.774 26.7082 13.6976 26.7258 13.6161C26.7434 13.5346 26.7423 13.4502 26.7224 13.3692M26.188 14.05L5.27785 13.3692C5.86419 10.9679 7.23963 8.83289 9.18378 7.30633C11.1279 5.77976 13.5283 4.95 16.0001 4.95C18.472 4.95 20.8723 5.77976 22.8165 7.30633C24.7607 8.8329 26.1361 10.9679 26.7224 13.3692M19.4999 12.05H12.5001M19.4999 12.05H12.5001M12.5001 12.05L12.5 12.05M12.5001 12.05L12.5 12.05M12.5 12.05C12.275 12.0505 12.0532 12.1032 11.8519 12.2038C11.6507 12.3045 11.4754 12.4503 11.34 12.63C11.34 12.63 11.34 12.6301 11.3399 12.6301L10.44 13.83C10.3888 13.8983 10.3224 13.9537 10.246 13.9919C10.1696 14.0301 10.0854 14.05 10 14.05H5.81201C5.72866 14.05 5.6464 14.031 5.57145 13.9946C5.4965 13.9581 5.43082 13.9051 5.37937 13.8395C5.32792 13.7739 5.29204 13.6975 5.27446 13.616L12.5 12.05ZM26.7224 13.3692L26.6739 13.3811L26.7224 13.3692C26.7224 13.3692 26.7224 13.3692 26.7224 13.3692ZM11.3826 11.2651C11.0356 11.4386 10.7335 11.6902 10.5 12L11.3826 11.2651ZM11.3826 11.2651C11.7296 11.0916 12.1121 11.0009 12.5 11L11.3826 11.2651ZM10.4601 11.9699L10.46 11.97L9.72502 12.95H6.53833C7.17776 10.9577 8.43 9.21752 10.1172 7.97815C11.8228 6.72534 13.8838 6.04973 16 6.04973C18.1163 6.04973 20.1772 6.72534 21.8828 7.97815C23.57 9.21752 24.8223 10.9577 25.4617 12.95H22.275L21.54 11.97L21.5399 11.9699C21.3018 11.6539 20.9937 11.3974 20.6398 11.2205C20.2859 11.0435 19.8958 10.9509 19.5001 10.95H19.5H12.5L12.4999 10.95C12.1042 10.9509 11.7141 11.0435 11.3602 11.2204C11.0063 11.3974 10.6982 11.6539 10.4601 11.9699Z" fill="#062E32" stroke="#062E32" stroke-width="0.1"/>
<path d="M13.8955 26.8467L13.8955 26.8467L14 26.8567C14 26.8567 14 26.8567 14 26.8567C14.1459 26.8566 14.2858 26.7987 14.3889 26.6956C14.4921 26.5924 14.55 26.4525 14.55 26.3067V25.5V25.4999C14.5475 23.2331 13.6459 21.0599 12.043 19.457C10.4401 17.8541 8.26689 16.9525 6.00008 16.95H6.00002H5.61942H5.61942C5.54059 16.95 5.46268 16.967 5.39098 16.9997C5.31927 17.0324 5.25544 17.0802 5.20381 17.1398C5.15219 17.1994 5.11397 17.2693 5.09175 17.345C5.06953 17.4206 5.06383 17.5001 5.07503 17.5781C5.40032 19.8479 6.42445 21.96 8.00515 23.621C9.58585 25.282 11.6446 26.4094 13.8955 26.8467ZM8.79228 22.8525C7.52501 21.517 6.65389 19.856 6.27546 18.0551C8.18978 18.1281 10.0036 18.9351 11.3399 20.3101C12.6909 21.7002 13.4477 23.5616 13.45 25.5001V25.6171C11.6719 25.1447 10.0593 24.1878 8.79228 22.8525Z" fill="#062E32" stroke="#062E32" stroke-width="0.1"/>
<path d="M17.45 25.5V25.4999C17.4525 23.2331 18.3541 21.0599 19.957 19.457C21.5599 17.8541 23.7331 16.9525 25.9999 16.95L26 16.95L26.3808 16.95H26.3809C26.4597 16.95 26.5376 16.967 26.6093 16.9998C26.681 17.0325 26.7448 17.0803 26.7964 17.1398C26.848 17.1994 26.8863 17.2694 26.9085 17.345C26.9308 17.4206 26.9365 17.5001 26.9253 17.5781L26.9253 17.5781C26.5999 19.8479 25.5756 21.9599 23.9949 23.6209C22.4142 25.2819 20.3554 26.4093 18.1045 26.8467L18.1045 26.8467L17.45 25.5ZM17.45 25.5V26.3066V25.5ZM17.7895 26.8149C17.8562 26.8425 17.9278 26.8567 18 26.8567L17.4918 26.5172C17.5194 26.5839 17.5599 26.6446 17.611 26.6957C17.6621 26.7467 17.7227 26.7873 17.7895 26.8149ZM20.6602 20.3101C21.9966 18.9351 23.8104 18.1281 25.7248 18.0551C25.3462 19.856 24.475 21.517 23.2077 22.8525C21.9407 24.1877 20.3282 25.1446 18.55 25.6171V25.5001C18.5523 23.5616 19.3092 21.7001 20.6602 20.3101Z" fill="#062E32" stroke="#062E32" stroke-width="0.1"/>
<path d="M16 20.05H16.0001C16.8087 20.0491 17.5839 19.7275 18.1557 19.1557C18.7275 18.5839 19.0491 17.8087 19.05 17.0001V17C19.05 16.3968 18.8711 15.8071 18.536 15.3055C18.2008 14.8039 17.7245 14.413 17.1672 14.1822C16.6099 13.9513 15.9966 13.8909 15.405 14.0086C14.8133 14.1263 14.2699 14.4168 13.8433 14.8433C13.4168 15.2699 13.1263 15.8133 13.0086 16.405C12.8909 16.9966 12.9513 17.6099 13.1822 18.1672C13.413 18.7245 13.8039 19.2008 14.3055 19.536C14.8071 19.8711 15.3968 20.05 16 20.05ZM14.9166 15.3786C15.2373 15.1644 15.6143 15.05 15.9999 15.05C16.517 15.0506 17.0126 15.2562 17.3782 15.6218C17.7438 15.9874 17.9494 16.483 17.95 17.0001C17.95 17.3857 17.8356 17.7627 17.6214 18.0834C17.4071 18.404 17.1026 18.654 16.7462 18.8016C16.3899 18.9492 15.9978 18.9878 15.6196 18.9125C15.2413 18.8373 14.8939 18.6516 14.6211 18.3789C14.3484 18.1061 14.1627 17.7587 14.0875 17.3804C14.0122 17.0022 14.0508 16.6101 14.1984 16.2538C14.346 15.8975 14.596 15.5929 14.9166 15.3786Z" fill="#062E32" stroke="#062E32" stroke-width="0.1"/>
</svg>
