<svg width="30" height="30" viewBox="0 0 30 30" fill="none" xmlns="http://www.w3.org/2000/svg">
<path d="M15 29.05H15.0001C18.7251 29.0458 22.2963 27.5642 24.9303 24.9303C27.5642 22.2963 29.0458 18.7251 29.05 15.0001V15C29.05 12.2212 28.226 9.50476 26.6822 7.19424C25.1383 4.88373 22.944 3.08291 20.3767 2.0195C17.8094 0.956088 14.9844 0.677851 12.259 1.21997C9.53356 1.7621 7.03008 3.10023 5.06516 5.06516C3.10023 7.03008 1.7621 9.53356 1.21997 12.259C0.677851 14.9844 0.956088 17.8094 2.0195 20.3767C3.08291 22.944 4.88373 25.1383 7.19424 26.6822C9.50476 28.226 12.2212 29.05 15 29.05ZM7.80537 4.23248C9.93497 2.80952 12.4387 2.05002 14.9999 2.05001C18.4333 2.05396 21.7249 3.41961 24.1527 5.84736C26.5804 8.27511 27.9461 11.5667 27.95 15.0001C27.95 17.5613 27.1905 20.065 25.7675 22.1946C24.3446 24.3243 22.3221 25.9841 19.9558 26.9642C17.5895 27.9444 14.9856 28.2009 12.4736 27.7012C9.96153 27.2015 7.65406 25.9681 5.84297 24.157C4.03188 22.3459 2.79852 20.0385 2.29884 17.5264C1.79916 15.0144 2.05561 12.4106 3.03577 10.0443C4.01592 7.67795 5.67576 5.65544 7.80537 4.23248Z" fill="#062E32" stroke="#062E32" stroke-width="0.1"/>
<path d="M25.188 13.05H21C20.9146 13.05 20.8304 13.0301 20.754 12.9919C20.6777 12.9537 20.6112 12.8983 20.56 12.83L19.6601 11.6301C19.5246 11.4504 19.3493 11.3045 19.1481 11.2039C18.9468 11.1033 18.725 11.0506 18.5 11.05C18.5 11.05 18.4999 11.05 18.4999 11.05M25.188 13.05L18.5 11L18.4999 11.05M25.188 13.05C25.2714 13.05 25.3537 13.0311 25.4286 12.9946C25.5036 12.9582 25.5693 12.9052 25.6208 12.8396C25.6723 12.774 25.7082 12.6976 25.7258 12.6161C25.7434 12.5346 25.7423 12.4502 25.7224 12.3692M25.188 13.05L4.27785 12.3692C4.86419 9.96788 6.23963 7.83289 8.18378 6.30633C10.1279 4.77976 12.5283 3.95 15.0001 3.95C17.472 3.95 19.8723 4.77976 21.8165 6.30633C23.7607 7.8329 25.1361 9.9679 25.7224 12.3692M18.4999 11.05H11.5001M18.4999 11.05H11.5001M11.5001 11.05L11.5 11.05M11.5001 11.05L11.5 11.05M11.5 11.05C11.275 11.0505 11.0532 11.1032 10.8519 11.2038C10.6507 11.3045 10.4754 11.4503 10.34 11.63C10.34 11.63 10.34 11.6301 10.3399 11.6301L9.44002 12.83C9.38878 12.8983 9.32235 12.9537 9.24598 12.9919C9.16961 13.0301 9.0854 13.05 9.00002 13.05H4.81201C4.72866 13.05 4.6464 13.031 4.57145 12.9946C4.4965 12.9581 4.43082 12.9051 4.37937 12.8395C4.32792 12.7739 4.29204 12.6975 4.27446 12.616L11.5 11.05ZM25.7224 12.3692L25.6739 12.3811L25.7224 12.3692C25.7224 12.3692 25.7224 12.3692 25.7224 12.3692ZM10.3826 10.2651C10.0356 10.4386 9.73351 10.6902 9.50002 11L10.3826 10.2651ZM10.3826 10.2651C10.7296 10.0916 11.1121 10.0009 11.5 9.99999L10.3826 10.2651ZM9.46009 10.9699L9.46002 10.97L8.72502 11.95H5.53833C6.17776 9.95773 7.43 8.21752 9.11725 6.97815C10.8228 5.72534 12.8838 5.04973 15 5.04973C17.1163 5.04973 19.1772 5.72534 20.8828 6.97815C22.57 8.21752 23.8223 9.95773 24.4617 11.95H21.275L20.54 10.97L20.5399 10.9699C20.3018 10.6539 19.9937 10.3974 19.6398 10.2205C19.2859 10.0435 18.8958 9.95093 18.5001 9.94999H18.5H11.5L11.4999 9.94999C11.1042 9.95091 10.7141 10.0435 10.3602 10.2204C10.0063 10.3974 9.69823 10.6539 9.46009 10.9699Z" fill="#062E32" stroke="#062E32" stroke-width="0.1"/>
<path d="M12.8955 25.8467L12.8955 25.8467L13 25.8567C13 25.8567 13 25.8567 13 25.8567C13.1459 25.8566 13.2858 25.7987 13.3889 25.6956C13.4921 25.5924 13.55 25.4525 13.55 25.3067V24.5V24.4999C13.5475 22.2331 12.6459 20.0599 11.043 18.457C9.44013 16.8541 7.26689 15.9525 5.00008 15.95H5.00002H4.61942H4.61942C4.54059 15.95 4.46268 15.967 4.39098 15.9997C4.31927 16.0324 4.25544 16.0802 4.20381 16.1398C4.15219 16.1994 4.11397 16.2693 4.09175 16.345C4.06953 16.4206 4.06383 16.5001 4.07503 16.5781C4.40032 18.8479 5.42445 20.96 7.00515 22.621C8.58585 24.282 10.6446 25.4094 12.8955 25.8467ZM7.79228 21.8525C6.52501 20.517 5.65389 18.856 5.27546 17.0551C7.18978 17.1281 9.00359 17.9351 10.3399 19.3101C11.6909 20.7002 12.4477 22.5616 12.45 24.5001V24.6171C10.6719 24.1447 9.05928 23.1878 7.79228 21.8525Z" fill="#062E32" stroke="#062E32" stroke-width="0.1"/>
<path d="M16.45 24.5V24.4999C16.4525 22.2331 17.3541 20.0599 18.957 18.457C20.5599 16.8541 22.7331 15.9525 24.9999 15.95L25 15.95L25.3808 15.95H25.3809C25.4597 15.95 25.5376 15.967 25.6093 15.9998C25.681 16.0325 25.7448 16.0803 25.7964 16.1398C25.848 16.1994 25.8863 16.2694 25.9085 16.345C25.9308 16.4206 25.9365 16.5001 25.9253 16.5781L25.9253 16.5781C25.5999 18.8479 24.5756 20.9599 22.9949 22.6209C21.4142 24.2819 19.3554 25.4093 17.1045 25.8467L17.1045 25.8467L16.45 24.5ZM16.45 24.5V25.3066V24.5ZM16.7895 25.8149C16.8562 25.8425 16.9278 25.8567 17 25.8567L16.4918 25.5172C16.5194 25.5839 16.5599 25.6446 16.611 25.6957C16.6621 25.7467 16.7227 25.7873 16.7895 25.8149ZM19.6602 19.3101C20.9966 17.9351 22.8104 17.1281 24.7248 17.0551C24.3462 18.856 23.475 20.517 22.2077 21.8525C20.9407 23.1877 19.3282 24.1446 17.55 24.6171V24.5001C17.5523 22.5616 18.3092 20.7001 19.6602 19.3101Z" fill="#062E32" stroke="#062E32" stroke-width="0.1"/>
<path d="M15 19.05H15.0001C15.8087 19.0491 16.5839 18.7275 17.1557 18.1557C17.7275 17.5839 18.0491 16.8087 18.05 16.0001V16C18.05 15.3968 17.8711 14.8071 17.536 14.3055C17.2008 13.8039 16.7245 13.413 16.1672 13.1822C15.6099 12.9513 14.9966 12.8909 14.405 13.0086C13.8133 13.1263 13.2699 13.4168 12.8433 13.8433C12.4168 14.2699 12.1263 14.8133 12.0086 15.405C11.8909 15.9966 11.9513 16.6099 12.1822 17.1672C12.413 17.7245 12.8039 18.2008 13.3055 18.536C13.8071 18.8711 14.3968 19.05 15 19.05ZM13.9166 14.3786C14.2373 14.1644 14.6143 14.05 14.9999 14.05C15.517 14.0506 16.0126 14.2562 16.3782 14.6218C16.7438 14.9874 16.9494 15.483 16.95 16.0001C16.95 16.3857 16.8356 16.7627 16.6214 17.0834C16.4071 17.404 16.1026 17.654 15.7462 17.8016C15.3899 17.9492 14.9978 17.9878 14.6196 17.9125C14.2413 17.8373 13.8939 17.6516 13.6211 17.3789C13.3484 17.1061 13.1627 16.7587 13.0875 16.3804C13.0122 16.0022 13.0508 15.6101 13.1984 15.2538C13.346 14.8975 13.596 14.5929 13.9166 14.3786Z" fill="#062E32" stroke="#062E32" stroke-width="0.1"/>
</svg>
