<svg width="114" height="38" viewBox="0 0 114 38" fill="none" xmlns="http://www.w3.org/2000/svg">
<path d="M108.216 7.12577H103.269V0.199219H92.4049L87.4089 7.12577H78.5311L75.5625 10.0943V7.12577H68.636V0.199219H46.8668V7.12577H16.2416L11.2446 0.199219H0.359985V23.9474L14.2131 37.8005H28.0662V33.8425L32.0242 37.8005H58.7409V33.8425L62.6989 37.8005H75.5625V33.8425L79.5206 37.8005H104.258L113.164 28.8949V12.0733L108.216 7.12577ZM17.1816 17.0208H10.2551V18.9999H17.1816V26.9159H6.29703L2.339 22.9579V2.17823H10.2551V9.10478H17.1816V17.0208ZM46.8668 26.9159H23.1187L19.1606 22.9579V9.10478H27.0767V18.9999H29.0557V9.10478H36.9718V18.9999H38.9508V9.10478H46.8668V26.9159ZM56.7619 26.9159H48.8458V9.10478H56.7619V26.9159ZM56.7619 7.12577H48.8458V2.17823H56.7619V7.12577ZM73.5835 17.0208H66.657V18.9999H73.5835V26.9159H62.6989L58.7409 22.9579V2.17823H66.657V9.10478H73.5835V17.0208ZM91.3947 17.0208H83.4786V18.9999H91.3947V26.9159H79.5206L75.5625 22.9579V13.0628L79.5206 9.10478H91.3947V17.0208ZM111.185 26.9159H103.269V17.0208H101.29V26.9159H93.3737V2.17823H101.29V9.10478H107.227L111.185 13.0628V26.9159Z" fill="#57897A"/>
</svg>
