<svg width="28" height="19" viewBox="0 0 28 19" fill="none" xmlns="http://www.w3.org/2000/svg">
<path d="M26.9231 0H1.07692C0.791305 0 0.517386 0.100089 0.315423 0.278249C0.113461 0.456408 0 0.698044 0 0.95V17.1C0 17.6039 0.226922 18.0872 0.630847 18.4435C1.03477 18.7998 1.58261 19 2.15385 19H25.8462C26.4174 19 26.9652 18.7998 27.3692 18.4435C27.7731 18.0872 28 17.6039 28 17.1V0.95C28 0.698044 27.8865 0.456408 27.6846 0.278249C27.4826 0.100089 27.2087 0 26.9231 0ZM14 10.1116L3.84596 1.9H24.154L14 10.1116ZM10.0571 9.5L2.15385 15.8899V3.11006L10.0571 9.5ZM11.651 10.7884L13.2663 12.1006C13.465 12.2615 13.7249 12.3508 13.9946 12.3508C14.2643 12.3508 14.5242 12.2615 14.7229 12.1006L16.3383 10.7884L24.146 17.1H3.84596L11.651 10.7884ZM17.9429 9.5L25.8462 3.10888V15.8911L17.9429 9.5Z" fill="#06282B"/>
</svg>
