<svg width="28" height="28" viewBox="0 0 28 28" fill="none" xmlns="http://www.w3.org/2000/svg">
<path d="M14 0.777832C9.62888 0.777832 5.53777 2.94005 3.07222 6.5645C1.5711 8.75783 0.777771 11.3323 0.777771 14.0001C0.777771 16.6678 1.5711 19.2423 3.07222 21.4356C5.53777 25.0601 9.62888 27.2223 14 27.2223C18.3711 27.2223 22.4622 25.0601 24.9278 21.4356C26.4289 19.2423 27.2222 16.6678 27.2222 14.0001C27.2222 11.3323 26.4289 8.75783 24.9278 6.5645C22.4622 2.94005 18.3789 0.777832 14 0.777832ZM22.6956 6.22228H19.2344C18.7833 4.90005 18.2155 3.78005 17.5622 2.90117C19.5378 3.53894 21.3111 4.68228 22.6956 6.22228ZM9.15444 13.2223C9.20888 11.2934 9.48111 9.42672 9.93222 7.77783H18.06C18.5111 9.42672 18.7833 11.2934 18.8378 13.2223H9.15444ZM18.8456 14.7778C18.7911 16.7067 18.5189 18.5734 18.0678 20.2223H9.93222C9.48111 18.5734 9.20888 16.7067 9.15444 14.7778H18.8456ZM14 2.33339C15.2989 2.33339 16.6133 3.77228 17.5544 6.22228H10.4455C11.3867 3.77228 12.7011 2.33339 14 2.33339ZM10.4378 2.90117C9.78444 3.78005 9.21666 4.90005 8.76555 6.22228H5.30444C6.68888 4.68228 8.46222 3.53894 10.4378 2.90117ZM4.12999 7.77783H8.30666C7.88666 9.44228 7.64555 11.3089 7.59888 13.2223H2.35666C2.48888 11.2856 3.09555 9.41894 4.12999 7.77783ZM4.12999 20.2223C3.09555 18.5812 2.4811 16.7145 2.35666 14.7778H7.59888C7.65333 16.6912 7.89444 18.5578 8.30666 20.2223H4.12999ZM5.30444 21.7778H8.76555C9.21666 23.1001 9.78444 24.2201 10.4378 25.0989C8.46222 24.4612 6.68888 23.3178 5.30444 21.7778ZM14 25.6667C12.7011 25.6667 11.3867 24.2278 10.4455 21.7778H17.5544C16.6133 24.2278 15.2989 25.6667 14 25.6667ZM17.5622 25.0989C18.2155 24.2278 18.7833 23.1001 19.2344 21.7778H22.6956C21.3111 23.3178 19.5378 24.4612 17.5622 25.0989ZM23.87 20.2223H19.6933C20.1133 18.5578 20.3544 16.6912 20.4011 14.7778H25.6433C25.5111 16.7145 24.9044 18.5812 23.87 20.2223ZM20.4011 13.2223C20.3467 11.3089 20.1056 9.44228 19.6933 7.77783H23.87C24.9044 9.41894 25.5189 11.2856 25.6433 13.2223H20.4011Z" fill="#062E32"/>
</svg>
