<svg width="141" height="36" viewBox="0 0 141 36" fill="none" xmlns="http://www.w3.org/2000/svg">
<path d="M45.9471 14.1529C45.9471 11.6346 43.4983 8.96004 39.2606 8.96004C34.5019 8.96004 29.2742 12.4509 28.4753 19.4153C27.659 26.4492 32.0357 29.5754 36.447 29.5754C40.8584 29.5754 43.1683 27.856 45.5303 25.5635C43.4983 23.0104 40.8758 24.1914 40.3721 24.4519C39.8164 24.7298 39.1043 25.1119 37.6454 25.1119C35.9434 25.1119 34.2066 24.3477 34.2066 21.1695C45.1135 20.0927 45.9471 16.6713 45.9471 14.1529ZM40.5458 14.5698C40.4763 15.3513 40.1637 16.6886 34.6408 17.4354C35.8044 13.3019 38.0275 12.9893 39.0522 12.9893C40.0074 12.9893 40.6153 13.7361 40.5458 14.5698ZM22.0667 15.2471C22.0667 15.2471 19.722 22.611 19.531 23.2188C19.4615 22.5936 17.7421 9.37686 17.7421 9.37686C13.7476 9.37686 11.6114 12.2251 10.4825 15.2297C10.4825 15.2297 7.63419 22.611 7.39104 23.2362C7.37367 22.6631 6.95685 15.3166 6.95685 15.3166C6.71371 11.6346 3.34439 9.39423 0.617676 9.39423L3.91752 29.4191C8.10311 29.4017 10.3609 26.5708 11.5419 23.5662C11.5419 23.5662 14.0602 17.0533 14.1644 16.7581C14.1818 17.036 15.9706 29.4191 15.9706 29.4191C20.1736 29.4191 22.4314 26.7618 23.6471 23.8614L29.5347 9.39423C25.3839 9.39423 23.1956 12.2251 22.0667 15.2471ZM61.3696 8.9253C58.7818 8.9253 56.8019 10.3321 55.1346 12.3988V12.3815L56.6282 0.345703C53.1894 0.345703 50.3932 3.33293 49.8548 7.77904L47.2497 29.2628C49.2296 29.2628 51.3311 28.6896 52.46 27.2308C53.4673 28.5333 54.9783 29.5754 57.2187 29.5754C63.0195 29.5754 66.9967 22.8368 66.9967 16.5149C66.9619 10.7489 64.1657 8.9253 61.3696 8.9253ZM60.8312 19.259C60.2233 22.7847 58.2608 25.1814 56.3677 25.1814C54.4573 25.1814 53.641 24.3304 53.641 24.3304C54.0057 21.2389 54.2315 19.3459 54.9262 17.7133C55.6209 16.0808 57.2708 13.4756 58.9902 13.4756C60.6749 13.4756 61.439 15.716 60.8312 19.259ZM81.4812 9.39423H77.4346L77.452 9.18581C77.7298 6.54594 78.3551 5.15653 80.4218 4.93075C81.8286 4.79181 82.4538 4.06237 82.6101 3.26346C82.7317 2.63823 83.1138 0.467276 83.1138 0.467276C74.9858 0.415174 72.4327 3.92343 71.7728 9.27265L71.7554 9.39423H71.6686C70.3486 9.39423 68.8897 10.8878 68.6466 12.7809L68.5598 13.4756H71.2691L68.9939 32.2674L68.2992 35.6367C68.3861 35.6367 68.4903 35.654 68.5771 35.654C72.3806 35.5151 74.8121 32.5105 75.3505 28.1512L77.122 13.4756H78.3898C79.6403 13.4756 81.0992 12.2251 81.3597 10.141L81.4812 9.39423ZM102.531 9.04687C97.8589 9.04687 93.4475 12.4857 92.0929 17.887C90.7382 23.2883 92.7876 29.6796 99.6651 29.6796C106.525 29.6796 110.485 23.0278 110.485 17.4875C110.485 11.982 106.751 9.04687 102.531 9.04687ZM104.424 19.0854C104.181 21.5342 103.104 25.2508 100.151 25.2508C97.1816 25.2508 97.5984 20.9089 97.8936 18.8422C98.2062 16.6365 99.4394 13.493 102.097 13.493C104.476 13.493 104.702 16.3239 104.424 19.0854ZM133.567 15.2471C133.567 15.2471 131.222 22.611 131.031 23.2188C130.962 22.5936 129.242 9.37686 129.242 9.37686C125.248 9.37686 123.111 12.2251 121.983 15.2297C121.983 15.2297 119.134 22.611 118.891 23.2362C118.874 22.6631 118.457 15.3166 118.457 15.3166C118.214 11.6346 114.844 9.39423 112.118 9.39423L115.4 29.4191C119.586 29.4017 121.844 26.5708 123.025 23.5662C123.025 23.5662 125.543 17.0533 125.63 16.7581C125.664 17.036 127.436 29.4191 127.436 29.4191C131.639 29.4191 133.897 26.7618 135.112 23.8614L141 9.39423C136.867 9.39423 134.678 12.2251 133.567 15.2471ZM85.3021 0.467276L81.8981 27.9255L81.2034 31.3121C81.2902 31.3121 81.3944 31.3295 81.4812 31.3295C85.1458 31.2774 87.751 28.0644 88.2372 24.0177L90.1998 8.26533C90.7903 3.4545 87.9246 0.467276 85.3021 0.467276Z" fill="#57897A"/>
</svg>
