<svg width="132" height="30" viewBox="0 0 132 30" fill="none" xmlns="http://www.w3.org/2000/svg">
<path d="M22.3528 29.5941L13.7654 29.4353C10.9849 29.38 8.19753 29.4905 5.47168 28.9174C1.32484 28.0613 1.03108 23.8632 0.723655 20.3419C0.30009 15.3912 0.46405 10.3508 1.26336 5.44164C1.71425 2.68669 3.49049 1.04339 6.23683 0.863865C15.5074 0.214829 24.8395 0.29078 34.0896 0.594584C35.0666 0.622202 36.0503 0.774105 37.0136 0.946721C41.7685 1.78909 41.8846 6.54638 42.192 10.5511C42.4995 14.5972 42.3697 18.664 41.7821 22.6825C41.3107 26.0106 40.409 28.8 36.6037 29.0693C31.8352 29.4215 27.176 29.7046 22.3938 29.6148C22.3938 29.5941 22.3665 29.5941 22.3528 29.5941ZM17.3042 21.1704C20.8976 19.0852 24.4228 17.0345 27.9958 14.9631C24.3955 12.8779 20.8771 10.8273 17.3042 8.75587V21.1704Z" fill="#57897A"/>
<path d="M111.072 25.8107C110.908 26.4874 110.764 27.019 110.621 27.5852H107.26V1.38184H111.181V11.0484C111.386 10.7861 111.488 10.6756 111.577 10.5582C112.247 9.62606 113.114 9.01845 114.235 8.78369C116.018 8.43155 117.541 9.22559 118.081 10.9587C118.429 12.0358 118.655 13.1889 118.682 14.3144C118.737 17.2074 118.696 20.0936 118.593 22.9867C118.552 23.8705 118.286 24.775 117.951 25.6036C116.851 28.3378 113.258 28.7521 111.475 26.3838C111.365 26.2388 111.263 26.08 111.072 25.8107ZM111.263 18.6022V23.3941C111.263 24.1743 111.673 24.6507 112.445 24.8302C113.203 25.0098 113.818 24.7129 114.125 24.0017C114.255 23.7048 114.385 23.3941 114.392 23.0833C114.467 20.1557 114.535 17.2281 114.556 14.2936C114.556 13.7482 114.426 13.182 114.262 12.6503C113.955 11.6906 113.107 11.4075 112.274 11.9668C111.645 12.3949 111.263 13.0025 111.263 13.8103V18.6022ZM100.605 9.15654H104.711V27.599H101.507C101.391 26.9016 101.275 26.1836 101.138 25.3412C100.92 25.6657 100.79 25.8728 100.653 26.08C99.5876 27.6335 98.0778 28.1652 96.2947 27.8821C94.7712 27.6335 93.8558 26.4459 93.6508 24.4988C93.5893 23.9188 93.562 23.3319 93.562 22.7519C93.5484 18.4365 93.562 14.1072 93.562 9.79177V9.14273H97.7157V9.89535C97.7157 14.0658 97.702 18.2293 97.7293 22.3998C97.7293 22.9936 97.7908 23.6081 97.8933 24.2019C98.0094 24.8095 98.4467 25.0305 99.0342 24.989C99.9838 24.9131 100.64 24.2019 100.64 23.2491V9.9713C100.605 9.70201 100.605 9.45344 100.605 9.15654ZM72.336 9.14273H76.4623V9.92296C76.4623 14.0727 76.4487 18.2155 76.476 22.3514C76.476 22.9452 76.5306 23.5598 76.6536 24.1398C76.8107 24.8233 77.207 25.0443 77.8833 24.9545C78.8192 24.8233 79.3863 24.1674 79.3931 23.2076V9.99892V9.17035H83.4989V27.599H80.3086C80.1924 26.9155 80.0763 26.2112 79.926 25.3205C79.721 25.6312 79.6049 25.8107 79.4888 25.9971C78.423 27.5783 76.9269 28.1583 75.1028 27.8752C73.6408 27.6543 72.7459 26.5633 72.4726 24.775C72.3975 24.2157 72.3428 23.6633 72.3428 23.1041C72.3291 18.6229 72.3291 14.121 72.3291 9.63987L72.336 9.14273ZM70.2182 18.9889C70.2045 19.6103 70.1635 20.2317 70.1293 20.8531C69.9722 22.7174 69.8971 25.3619 68.4078 26.7221C67.4582 27.5783 66.2558 27.889 65.0124 27.9305C64.459 27.9443 63.8989 27.9443 63.3455 27.8683C60.7289 27.4678 59.5129 26.3009 59.0757 23.3941C58.577 20.0384 58.536 16.6274 59.1303 13.2717C59.7452 9.79868 61.863 8.56964 65.1559 8.7975C68.2301 9.01845 69.6033 11.0553 69.9654 13.9553C70.1635 15.6194 70.2591 17.3041 70.2182 18.9889ZM66.0372 18.3536C66.0372 17.1729 66.0645 15.9853 66.0235 14.8046C65.9962 14.121 65.9074 13.4306 65.7639 12.7539C65.5999 11.9737 65.1081 11.6008 64.4932 11.6146C63.892 11.6284 63.4685 12.0013 63.2498 12.7263C63.1747 12.9956 63.0927 13.2717 63.0927 13.541C63.0927 15.3915 63.079 17.2489 63.0654 19.0993C63.0517 20.8255 62.8331 22.6345 63.3728 24.2848C63.5368 24.7888 63.9603 25.065 64.5137 25.065C65.0534 25.065 65.4087 24.7957 65.6068 24.3124C65.7639 23.9395 65.9005 23.5322 65.9005 23.1317C65.9484 21.5436 66.0372 19.9486 66.0372 18.3536ZM53.0501 14.8805C53.4122 13.0922 53.7538 11.3453 54.1295 9.59154C54.6009 7.36132 55.127 5.13109 55.5915 2.89397C55.7077 2.3485 55.9263 2.21731 56.4387 2.23112C57.5386 2.27254 58.6589 2.24492 59.834 2.24492C59.4514 3.6673 59.0757 5.02062 58.7068 6.35323C57.5386 10.5375 56.3703 14.7355 55.2158 18.9336C55.127 19.2581 55.086 19.6103 55.086 19.9555C55.0723 22.2479 55.086 24.5333 55.086 26.8257V27.5714H51.0758C51.0621 27.3643 51.0348 27.1571 51.0348 26.95C51.0348 25.6519 50.9323 24.3469 51.0485 23.0626C51.3422 19.9762 50.3721 17.1384 49.5865 14.266C48.5481 10.4684 47.496 6.65704 46.4576 2.85944C46.4029 2.67992 46.3824 2.48659 46.3278 2.26564H50.4199C51.2807 6.4568 52.1484 10.648 53.0501 14.8805ZM131.512 19.6931H124.598C124.674 21.0948 124.701 22.4274 124.844 23.7462C124.947 24.6645 125.445 25.0581 126.231 25.065C127.051 25.0788 127.529 24.6645 127.72 23.7531C127.782 23.4562 127.823 23.1593 127.85 22.8555C127.878 22.5862 127.891 22.2962 127.912 21.9095C129.08 21.9717 130.221 22.0407 131.348 22.0891C132.004 24.0569 130.822 26.584 128.834 27.3643C127.27 27.9857 125.664 27.9857 124.065 27.5093C122.884 27.1571 122.002 26.3976 121.606 25.2307C121.237 24.1398 120.889 23.0005 120.814 21.8612C120.609 19.051 120.534 16.2132 120.957 13.396C121.032 12.9265 121.162 12.4777 121.305 12.022C121.879 10.1439 123.13 8.99083 125.063 8.7975C126.115 8.69393 127.201 8.73535 128.24 8.91488C129.92 9.21178 130.815 10.4339 131.205 12.0358C131.382 12.7884 131.512 13.5617 131.539 14.3282C131.546 16.0889 131.512 17.8358 131.512 19.6931ZM127.584 17.2696C127.584 15.8817 127.597 14.5767 127.57 13.2648C127.57 12.9541 127.454 12.6296 127.338 12.3327C127.106 11.7527 126.621 11.5939 126.04 11.5939C125.459 11.5939 125.09 11.8908 124.947 12.4225C124.51 14.0175 124.653 15.647 124.667 17.2834C125.712 17.2696 126.662 17.2696 127.584 17.2696Z" fill="#57897A"/>
<path d="M86.6684 5.62886H82.6036V2.30078H94.7366V5.60814H90.6991V27.5721H86.6752L86.6684 5.62886Z" fill="#57897A"/>
</svg>
