<svg width="42" height="42" viewBox="0 0 42 42" fill="none" xmlns="http://www.w3.org/2000/svg">
<rect width="42" height="42" rx="5.08675" fill="#084146"/>
<path fill-rule="evenodd" clip-rule="evenodd" d="M21.1949 8.72668C17.8088 8.72668 17.3849 8.74081 16.055 8.80149C14.7276 8.86217 13.8208 9.07328 13.0279 9.38164C12.1967 9.69417 11.4428 10.1846 10.8195 10.8196C10.1855 11.4422 9.69479 12.1956 9.38155 13.0271C9.07485 13.8201 8.8629 14.7277 8.80222 16.0551C8.74238 17.3841 8.72742 17.8072 8.72742 21.1942C8.72742 24.5813 8.74154 25.0043 8.80222 26.3342C8.8629 27.6615 9.07401 28.5684 9.38237 29.3613C9.6949 30.1924 10.1853 30.9463 10.8203 31.5697C11.443 32.2037 12.1963 32.6944 13.0279 33.0076C13.8208 33.3152 14.7276 33.5262 16.055 33.5869C17.3849 33.6477 17.8088 33.6617 21.1949 33.6617C24.5811 33.6617 25.005 33.6477 26.3349 33.5869C27.6622 33.5262 28.5691 33.3152 29.3621 33.0068C30.1931 32.6943 30.9471 32.2039 31.5704 31.5688C32.2044 30.9462 32.6951 30.1929 33.0083 29.3613C33.3159 28.5684 33.527 27.6615 33.5877 26.3342C33.6484 25.0043 33.6625 24.5804 33.6625 21.1942C33.6625 17.808 33.6484 17.3841 33.5877 16.0543C33.527 14.7269 33.3159 13.8201 33.0076 13.0271C32.6945 12.1952 32.2038 11.4416 31.5696 10.8187C30.9469 10.1847 30.1936 9.69405 29.3621 9.38082C28.5691 9.07412 27.6615 8.86217 26.3341 8.80149C25.005 8.74165 24.582 8.72668 21.1949 8.72668ZM21.1949 10.9733C24.5238 10.9733 24.9186 10.9858 26.2335 11.0456C27.4487 11.1013 28.1086 11.3033 28.5483 11.4754C29.1302 11.7006 29.5457 11.9716 29.9821 12.4071C30.4184 12.8435 30.6886 13.259 30.9138 13.8409C31.0851 14.2806 31.2878 14.9405 31.3435 16.1557C31.4034 17.4706 31.4158 17.8654 31.4158 21.1942C31.4158 24.523 31.4034 24.9179 31.3435 26.2327C31.2878 27.4479 31.0858 28.1078 30.9138 28.5476C30.7143 29.0892 30.3959 29.579 29.9821 29.9813C29.5799 30.3953 29.0899 30.7137 28.5483 30.913C28.1086 31.0843 27.4487 31.2871 26.2335 31.3428C24.9186 31.4026 24.5247 31.4151 21.1949 31.4151C17.8653 31.4151 17.4713 31.4026 16.1564 31.3428C14.9412 31.2871 14.2813 31.0851 13.8416 30.913C13.3001 30.7136 12.8101 30.3951 12.4078 29.9813C11.9941 29.579 11.6757 29.089 11.4761 28.5476C11.3049 28.1078 11.1021 27.4479 11.0464 26.2327C10.9865 24.9179 10.9741 24.523 10.9741 21.1942C10.9741 17.8654 10.9865 17.4706 11.0464 16.1557C11.1021 14.9405 11.304 14.2806 11.4761 13.8409C11.7013 13.259 11.9723 12.8435 12.4078 12.4071C12.8101 11.9932 13.3 11.6748 13.8416 11.4754C14.2813 11.3041 14.9412 11.1013 16.1564 11.0456C17.4713 10.9858 17.8661 10.9733 21.1949 10.9733Z" fill="#E2FFCF"/>
<path fill-rule="evenodd" clip-rule="evenodd" d="M21.1949 25.3547C20.6486 25.3547 20.1077 25.2471 19.6029 25.038C19.0982 24.8289 18.6396 24.5225 18.2534 24.1362C17.8671 23.7498 17.5606 23.2913 17.3516 22.7866C17.1425 22.2819 17.0349 21.741 17.0349 21.1946C17.0349 20.6483 17.1425 20.1073 17.3516 19.6026C17.5606 19.098 17.8671 18.6394 18.2534 18.2531C18.6396 17.8668 19.0982 17.5604 19.6029 17.3513C20.1077 17.1422 20.6486 17.0346 21.1949 17.0346C22.2983 17.0346 23.3563 17.4729 24.1365 18.2531C24.9166 19.0333 25.3549 20.0914 25.3549 21.1946C25.3549 22.2979 24.9166 23.356 24.1365 24.1362C23.3563 24.9163 22.2983 25.3547 21.1949 25.3547ZM21.1949 14.7863C19.4953 14.7863 17.8654 15.4615 16.6636 16.6633C15.4618 17.8651 14.7866 19.4951 14.7866 21.1946C14.7866 22.8942 15.4618 24.5242 16.6636 25.726C17.8654 26.9278 19.4953 27.6029 21.1949 27.6029C22.8945 27.6029 24.5245 26.9278 25.7262 25.726C26.9281 24.5242 27.6032 22.8942 27.6032 21.1946C27.6032 19.4951 26.9281 17.8651 25.7262 16.6633C24.5245 15.4615 22.8945 14.7863 21.1949 14.7863ZM29.4675 14.67C29.4675 15.0717 29.3079 15.457 29.0239 15.7411C28.7398 16.0252 28.3545 16.1848 27.9528 16.1848C27.551 16.1848 27.1657 16.0252 26.8816 15.7411C26.5976 15.457 26.438 15.0717 26.438 14.67C26.438 14.2682 26.5976 13.8829 26.8816 13.5988C27.1657 13.3147 27.551 13.1552 27.9528 13.1552C28.3545 13.1552 28.7398 13.3147 29.0239 13.5988C29.3079 13.8829 29.4675 14.2682 29.4675 14.67Z" fill="#E2FFCF"/>
</svg>
