<svg width="42" height="42" viewBox="0 0 42 42" fill="none" xmlns="http://www.w3.org/2000/svg">
<rect width="42" height="42" rx="5.08675" fill="#084146"/>
<path d="M33.3503 10.8277V31.5641C33.3503 32.0382 33.162 32.4929 32.8266 32.8281C32.4914 33.1634 32.0368 33.3517 31.5627 33.3517H10.8262C10.3521 33.3517 9.8974 33.1634 9.56215 32.8281C9.22691 32.4929 9.03857 32.0382 9.03857 31.5641V10.8277C9.03857 10.3536 9.22691 9.89886 9.56215 9.56362C9.8974 9.22837 10.3521 9.04004 10.8262 9.04004H31.5627C32.0368 9.04004 32.4914 9.22837 32.8266 9.56362C33.162 9.89886 33.3503 10.3536 33.3503 10.8277ZM16.1891 18.3357H12.6138V29.7764H16.1891V18.3357ZM16.5108 14.4029C16.5127 14.1325 16.4613 13.8643 16.3596 13.6137C16.2578 13.3632 16.1077 13.1351 15.9178 12.9425C15.7279 12.75 15.5019 12.5967 15.2528 12.4915C15.0037 12.3863 14.7362 12.3311 14.4658 12.3293H14.4014C13.8515 12.3293 13.324 12.5477 12.9352 12.9366C12.5463 13.3255 12.3278 13.8529 12.3278 14.4029C12.3278 14.9529 12.5463 15.4803 12.9352 15.8692C13.324 16.2581 13.8515 16.4766 14.4014 16.4766C14.6719 16.4832 14.941 16.4365 15.1934 16.3391C15.4458 16.2417 15.6766 16.0956 15.8725 15.909C16.0684 15.7224 16.2256 15.499 16.3351 15.2516C16.4446 15.0043 16.5044 14.7377 16.5108 14.4673V14.4029ZM29.775 22.8263C29.775 19.3868 27.5869 18.0497 25.4132 18.0497C24.7015 18.014 23.9928 18.1656 23.358 18.4893C22.7231 18.8131 22.1842 19.2975 21.7951 19.8945H21.695V18.3357H18.3342V29.7764H21.9095V23.6913C21.8577 23.0682 22.0541 22.4497 22.4558 21.9705C22.8575 21.4911 23.432 21.1897 24.0546 21.1316H24.1904C25.3274 21.1316 26.1712 21.8466 26.1712 23.6485V29.7764H29.7465L29.775 22.8263Z" fill="#E2FFCF"/>
</svg>
