<svg width="42" height="42" viewBox="0 0 42 42" fill="none" xmlns="http://www.w3.org/2000/svg">
<rect width="42" height="42" rx="5.08675" fill="#084146"/>
<path fill-rule="evenodd" clip-rule="evenodd" d="M32.3572 11.4031C33.5873 11.7323 34.5541 12.699 34.8833 13.9291C35.4784 16.1563 35.4807 20.8062 35.4807 20.8062C35.4807 20.8062 35.4807 25.4559 34.8833 27.6832C34.5541 28.9133 33.5873 29.8799 32.3572 30.2092C30.1301 30.8066 21.195 30.8066 21.195 30.8066C21.195 30.8066 12.2599 30.8066 10.0326 30.2092C8.80258 29.8799 7.83593 28.9133 7.50666 27.6832C6.90927 25.4559 6.90927 20.8062 6.90927 20.8062C6.90927 20.8062 6.90927 16.1563 7.50666 13.9291C7.83593 12.699 8.80258 11.7323 10.0326 11.4031C12.2599 10.8057 21.195 10.8057 21.195 10.8057C21.195 10.8057 30.1301 10.8057 32.3572 11.4031ZM25.7578 20.8066L18.3351 25.0918V16.5213L25.7578 20.8066Z" fill="#E2FFCF"/>
</svg>
