<svg width="144" height="25" viewBox="0 0 144 25" fill="none" xmlns="http://www.w3.org/2000/svg">
<path d="M11.5245 1.82925C11.6741 1.36859 12.3259 1.36859 12.4755 1.82925L14.5819 8.31203C14.6488 8.51804 14.8408 8.65752 15.0574 8.65752H21.8738C22.3582 8.65752 22.5596 9.27733 22.1677 9.56203L16.6531 13.5686C16.4779 13.6959 16.4046 13.9216 16.4715 14.1276L18.5779 20.6104C18.7276 21.0711 18.2003 21.4541 17.8085 21.1694L12.2939 17.1628C12.1186 17.0355 11.8814 17.0355 11.7061 17.1628L6.19153 21.1694C5.79967 21.4541 5.27243 21.0711 5.42211 20.6104L7.52849 14.1276C7.59543 13.9216 7.5221 13.6959 7.34685 13.5686L1.83227 9.56203C1.44041 9.27733 1.6418 8.65752 2.12616 8.65752H8.94256C9.15917 8.65752 9.35115 8.51804 9.41809 8.31203L11.5245 1.82925Z" fill="#EF4335"/>
<path d="M41.5245 1.82925C41.6741 1.36859 42.3259 1.36859 42.4755 1.82925L44.5819 8.31203C44.6488 8.51804 44.8408 8.65752 45.0574 8.65752H51.8738C52.3582 8.65752 52.5596 9.27733 52.1677 9.56203L46.6531 13.5686C46.4779 13.6959 46.4046 13.9216 46.4715 14.1276L48.5779 20.6104C48.7276 21.0711 48.2003 21.4541 47.8085 21.1694L42.2939 17.1628C42.1186 17.0355 41.8814 17.0355 41.7061 17.1628L36.1915 21.1694C35.7997 21.4541 35.2724 21.0711 35.4221 20.6104L37.5285 14.1276C37.5954 13.9216 37.5221 13.6959 37.3469 13.5686L31.8323 9.56203C31.4404 9.27733 31.6418 8.65752 32.1262 8.65752H38.9426C39.1592 8.65752 39.3512 8.51804 39.4181 8.31203L41.5245 1.82925Z" fill="#EF4335"/>
<path d="M71.5245 1.82925C71.6741 1.36859 72.3259 1.36859 72.4755 1.82925L74.5819 8.31203C74.6488 8.51804 74.8408 8.65752 75.0574 8.65752H81.8738C82.3582 8.65752 82.5596 9.27733 82.1677 9.56203L76.6531 13.5686C76.4779 13.6959 76.4046 13.9216 76.4715 14.1276L78.5779 20.6104C78.7276 21.0711 78.2003 21.4541 77.8085 21.1694L72.2939 17.1628C72.1186 17.0355 71.8814 17.0355 71.7061 17.1628L66.1915 21.1694C65.7997 21.4541 65.2724 21.0711 65.4221 20.6104L67.5285 14.1276C67.5954 13.9216 67.5221 13.6959 67.3469 13.5686L61.8323 9.56203C61.4404 9.27733 61.6418 8.65752 62.1262 8.65752H68.9426C69.1592 8.65752 69.3512 8.51804 69.4181 8.31203L71.5245 1.82925Z" fill="#EF4335"/>
<path d="M101.524 1.82925C101.674 1.36859 102.326 1.36859 102.476 1.82925L104.582 8.31203C104.649 8.51804 104.841 8.65752 105.057 8.65752H111.874C112.358 8.65752 112.56 9.27733 112.168 9.56203L106.653 13.5686C106.478 13.6959 106.405 13.9216 106.472 14.1276L108.578 20.6104C108.728 21.0711 108.2 21.4541 107.808 21.1694L102.294 17.1628C102.119 17.0355 101.881 17.0355 101.706 17.1628L96.1915 21.1694C95.7997 21.4541 95.2724 21.0711 95.4221 20.6104L97.5285 14.1276C97.5954 13.9216 97.5221 13.6959 97.3469 13.5686L91.8323 9.56203C91.4404 9.27733 91.6418 8.65752 92.1262 8.65752H98.9426C99.1592 8.65752 99.3512 8.51804 99.4181 8.31203L101.524 1.82925Z" fill="#EF4335"/>
<path d="M131.524 1.82925C131.674 1.36859 132.326 1.36859 132.476 1.82925L134.582 8.31203C134.649 8.51804 134.841 8.65752 135.057 8.65752H141.874C142.358 8.65752 142.56 9.27733 142.168 9.56203L136.653 13.5686C136.478 13.6959 136.405 13.9216 136.472 14.1276L138.578 20.6104C138.728 21.0711 138.2 21.4541 137.808 21.1694L132.294 17.1628C132.119 17.0355 131.881 17.0355 131.706 17.1628L126.192 21.1694C125.8 21.4541 125.272 21.0711 125.422 20.6104L127.528 14.1276C127.595 13.9216 127.522 13.6959 127.347 13.5686L121.832 9.56203C121.44 9.27733 121.642 8.65752 122.126 8.65752H128.943C129.159 8.65752 129.351 8.51804 129.418 8.31203L131.524 1.82925Z" fill="#EF4335"/>
</svg>
