<svg width="40" height="40" viewBox="0 0 40 40" fill="none" xmlns="http://www.w3.org/2000/svg">
<path d="M6.94605 30.6224C6.68393 30.6224 6.43255 30.5156 6.24721 30.3255C6.06186 30.1354 5.95774 29.8776 5.95774 29.6087C5.94855 28.5025 6.04789 27.3982 6.25423 26.3123C6.30613 26.0488 6.45798 25.8172 6.67638 25.6685C6.89477 25.5198 7.16183 25.4661 7.41879 25.5193C7.67575 25.5726 7.90157 25.7283 8.04657 25.9523C8.19157 26.1763 8.24387 26.4502 8.19197 26.7138C8.01322 27.6677 7.92693 28.6374 7.93435 29.6087C7.93435 29.8776 7.83023 30.1354 7.64489 30.3255C7.45954 30.5156 7.20816 30.6224 6.94605 30.6224Z" fill="#E2FFCF"/>
<path d="M7.22208 27.5266C7.15569 27.5269 7.08945 27.5201 7.02442 27.5063C6.76757 27.4531 6.54187 27.2973 6.39694 27.0734C6.25201 26.8495 6.19972 26.5757 6.25156 26.3123C6.85048 23.2713 8.28485 21.5143 9.54988 19.9601C10.7602 18.4734 11.8395 17.1516 12.2354 14.8242C11.3465 15.2562 10.3748 15.4792 9.39109 15.477H8.01273C7.94659 15.4767 7.88106 15.49 7.81997 15.5159C7.75888 15.5419 7.70346 15.5802 7.65694 15.6284C7.0982 16.2019 6.3402 16.5243 5.54971 16.5246C4.75922 16.5249 4.00098 16.2031 3.4418 15.6301C2.88262 15.057 2.5683 14.2796 2.56799 13.4688C2.56768 12.6581 2.88141 11.8804 3.44015 11.3069L4.2308 10.4959C4.87554 9.83607 5.38753 9.05264 5.73764 8.19022C6.61592 6.03588 8.10959 4.68772 9.03596 4.01466V1.0156C9.03596 0.746767 9.14009 0.488941 9.32543 0.298844C9.51077 0.108748 9.76215 0.00195312 10.0243 0.00195312C10.1976 0.00195312 14.0915 0.0404718 15.7064 3.21996C16.1428 3.3298 16.5693 3.47742 16.9813 3.66123C18.3472 4.31267 19.3849 5.27293 20.0701 6.5177C20.1988 6.75186 20.2315 7.02885 20.1611 7.28775C20.0906 7.54665 19.9228 7.76626 19.6945 7.89829C19.4662 8.03025 19.1962 8.0638 18.9437 7.99157C18.6913 7.91934 18.4772 7.74723 18.3485 7.5131C17.8714 6.64542 17.1315 5.96627 16.1498 5.49594C15.9983 5.42296 15.6194 5.27091 14.7892 5.07156C14.635 5.03435 14.4918 4.95968 14.3717 4.85384C14.2515 4.74799 14.1579 4.61408 14.0987 4.46337C13.4972 2.94019 12.0187 2.36849 11.0185 2.15359V4.55595C11.0186 4.72931 10.9753 4.89979 10.8929 5.05111C10.8104 5.20243 10.6914 5.32953 10.5474 5.42025C9.25602 6.23117 8.14253 7.55838 7.56733 8.96938C7.11791 10.0754 6.46111 11.0801 5.6342 11.9265L4.84355 12.7375C4.74728 12.8321 4.67039 12.9456 4.61739 13.0711C4.56439 13.1966 4.53634 13.3318 4.53488 13.4686C4.53342 13.6053 4.55858 13.7411 4.60889 13.8678C4.6592 13.9945 4.73364 14.1096 4.82787 14.2064C4.9221 14.3032 5.03421 14.3798 5.15765 14.4316C5.28108 14.4835 5.41336 14.5095 5.54673 14.5083C5.68011 14.507 5.8119 14.4785 5.9344 14.4244C6.0569 14.3703 6.16763 14.2916 6.26013 14.1931C6.48986 13.9565 6.76304 13.769 7.06387 13.6414C7.3647 13.5138 7.6872 13.4487 8.01273 13.4497H9.39043C10.0026 13.4511 10.6089 13.328 11.1743 13.0875C11.7398 12.8471 12.2532 12.494 12.6848 12.0488C12.823 11.907 12.9992 11.8104 13.1909 11.7712C13.3827 11.7321 13.5815 11.7522 13.7621 11.8289C13.9428 11.9057 14.0972 12.0357 14.2058 12.2024C14.3143 12.3692 14.3723 12.5653 14.3722 12.7658C14.3722 17.205 12.6914 19.2667 11.0659 21.2609C9.84308 22.7611 8.68808 24.1775 8.18865 26.715C8.14328 26.9438 8.02234 27.1494 7.84624 27.2973C7.67014 27.4452 7.44967 27.5262 7.22208 27.5266Z" fill="#E2FFCF"/>
<path d="M13.0863 35.3117H6.94622C6.21232 35.3097 5.50906 35.0096 4.99042 34.477C4.47178 33.9444 4.18 33.2228 4.17896 32.4701V31.4368C4.17983 30.6835 4.472 29.9612 4.9914 29.4285C5.51079 28.8958 6.21499 28.5961 6.94952 28.5952H15.9306C16.1927 28.5952 16.4441 28.702 16.6295 28.8921C16.8148 29.0822 16.9189 29.34 16.9189 29.6089C16.9189 29.8777 16.8148 30.1355 16.6295 30.3256C16.4441 30.5157 16.1927 30.6225 15.9306 30.6225H6.94622C6.73633 30.6238 6.53544 30.7101 6.38733 30.8626C6.23922 31.0151 6.15592 31.2215 6.15557 31.4368V32.4701C6.15592 32.6853 6.23922 32.8917 6.38733 33.0443C6.53544 33.1968 6.73633 33.2831 6.94622 33.2844H13.0863C13.3484 33.2844 13.5998 33.3912 13.7851 33.5813C13.9704 33.7714 14.0746 34.0292 14.0746 34.298C14.0746 34.5669 13.9704 34.8247 13.7851 35.0148C13.5998 35.2049 13.3484 35.3117 13.0863 35.3117Z" fill="#E2FFCF"/>
<path d="M34.6567 40H18.3219C17.5873 39.9992 16.883 39.6996 16.3636 39.1669C15.8441 38.6341 15.552 37.9118 15.5513 37.1584V36.1258C15.552 35.3724 15.8441 34.65 16.3636 34.1173C16.883 33.5845 17.5873 33.2849 18.3219 33.2842H34.6567C35.3912 33.2849 36.0955 33.5845 36.615 34.1173C37.1344 34.65 37.4265 35.3724 37.4272 36.1258V37.1584C37.4265 37.9118 37.1344 38.6341 36.615 39.1669C36.0955 39.6996 35.3912 39.9992 34.6567 40ZM18.3219 35.3115C18.1114 35.3117 17.9095 35.3975 17.7607 35.5502C17.6118 35.7029 17.5281 35.9099 17.5279 36.1258V37.1584C17.5281 37.3743 17.6118 37.5813 17.7607 37.734C17.9095 37.8866 18.1114 37.9725 18.3219 37.9727H34.6567C34.8672 37.9725 35.069 37.8866 35.2179 37.734C35.3667 37.5813 35.4504 37.3743 35.4506 37.1584V36.1258C35.4504 35.9099 35.3667 35.7029 35.2179 35.5502C35.069 35.3975 34.8672 35.3117 34.6567 35.3115H18.3219Z" fill="#E2FFCF"/>
<path d="M30.9501 19.0119H22.0289C21.2545 19.0001 20.5157 18.6762 19.9721 18.1103C19.4286 17.5444 19.1239 16.7819 19.1239 15.9875C19.1239 15.1932 19.4286 14.4307 19.9721 13.8648C20.5157 13.2989 21.2545 12.975 22.0289 12.9631H30.9501C31.7245 12.975 32.4633 13.2989 33.0069 13.8648C33.5504 14.4307 33.8551 15.1932 33.8551 15.9875C33.8551 16.7819 33.5504 17.5444 33.0069 18.1103C32.4633 18.6762 31.7245 19.0001 30.9501 19.0119ZM22.0289 14.9904C21.7755 14.9972 21.5346 15.1052 21.3577 15.2915C21.1808 15.4777 21.0818 15.7275 21.0818 15.9875C21.0818 16.2476 21.1808 16.4973 21.3577 16.6836C21.5346 16.8698 21.7755 16.9779 22.0289 16.9846H30.9501C31.2035 16.9779 31.4444 16.8698 31.6213 16.6836C31.7982 16.4973 31.8973 16.2476 31.8973 15.9875C31.8973 15.7275 31.7982 15.4777 31.6213 15.2915C31.4444 15.1052 31.2035 14.9972 30.9501 14.9904H22.0289Z" fill="#E2FFCF"/>
<path d="M26.4895 14.9904C25.4963 14.9904 24.5253 14.6883 23.6995 14.1223C22.8736 13.5563 22.23 12.7519 21.8499 11.8107C21.4698 10.8696 21.3703 9.83395 21.5641 8.83481C21.7579 7.83568 22.2362 6.91791 22.9385 6.19757C23.6408 5.47723 24.5356 4.98668 25.5098 4.78794C26.4839 4.5892 27.4937 4.6912 28.4113 5.08104C29.329 5.47088 30.1133 6.13106 30.6651 6.97809C31.2169 7.82512 31.5114 8.82095 31.5114 9.83966C31.5101 11.2053 30.9805 12.5145 30.039 13.4802C29.0975 14.4458 27.821 14.9889 26.4895 14.9904ZM26.4895 6.71627C25.8872 6.71627 25.2984 6.89945 24.7976 7.24266C24.2968 7.58586 23.9065 8.07367 23.676 8.64439C23.4455 9.21512 23.3852 9.84313 23.5027 10.449C23.6202 11.0549 23.9103 11.6114 24.3362 12.0482C24.7621 12.4851 25.3047 12.7825 25.8954 12.903C26.4861 13.0236 27.0985 12.9617 27.6549 12.7253C28.2114 12.4889 28.687 12.0886 29.0216 11.5749C29.3562 11.0613 29.5348 10.4574 29.5348 9.83966C29.534 9.01156 29.2128 8.21763 28.6419 7.63208C28.071 7.04652 27.2969 6.71716 26.4895 6.71627Z" fill="#E2FFCF"/>
<path d="M19.0528 35.3114C18.7907 35.3114 18.5393 35.2046 18.354 35.0145C18.1686 34.8244 18.0645 34.5666 18.0645 34.2978V34.1423C18.0679 31.3223 18.9303 28.5738 20.5313 26.2811L20.6157 26.1588C21.8491 24.3843 23.0074 22.7077 23.0074 17.9983C23.0074 17.7294 23.1115 17.4716 23.2968 17.2815C23.4822 17.0914 23.7336 16.9846 23.9957 16.9846C24.2578 16.9846 24.5092 17.0914 24.6945 17.2815C24.8799 17.4716 24.984 17.7294 24.984 17.9983C24.984 23.3544 23.52 25.4682 22.2286 27.3326L22.1449 27.4536C20.7809 29.4042 20.0453 31.7433 20.0411 34.1437V34.2991C20.0408 34.5677 19.9365 34.8252 19.7512 35.015C19.5659 35.2048 19.3147 35.3114 19.0528 35.3114Z" fill="#E2FFCF"/>
<path d="M33.9264 35.3113C33.6642 35.3113 33.4129 35.2045 33.2275 35.0144C33.0422 34.8243 32.938 34.5665 32.938 34.2977V34.1422C32.9338 31.7418 32.1983 29.4027 30.8343 27.4521L30.7506 27.3312C29.4592 25.4667 27.9952 23.3529 27.9952 17.9968C27.9952 17.728 28.0993 17.4701 28.2846 17.28C28.47 17.0899 28.7214 16.9832 28.9835 16.9832C29.2456 16.9832 29.497 17.0899 29.6823 17.28C29.8677 17.4701 29.9718 17.728 29.9718 17.9968C29.9718 22.7062 31.1327 24.3828 32.3622 26.1574L32.4465 26.2797C34.0483 28.5726 34.9112 31.3216 34.9147 34.1422V34.2977C34.9147 34.5665 34.8105 34.8243 34.6252 35.0144C34.4398 35.2045 34.1885 35.3113 33.9264 35.3113Z" fill="#E2FFCF"/>
</svg>
