<svg width="40" height="40" viewBox="0 0 40 40" fill="none" xmlns="http://www.w3.org/2000/svg">
<g clip-path="url(#clip0_2_134)">
<path d="M16.6667 40.0001C7.5 40.0001 0 32.5001 0 23.3334C0 14.1667 7.5 6.66675 16.6667 6.66675C25.8333 6.66675 33.3333 14.1667 33.3333 23.3334C33.3333 32.5001 25.8333 40.0001 16.6667 40.0001ZM16.6667 8.33341C8.33333 8.33341 1.66667 15.0001 1.66667 23.3334C1.66667 31.6667 8.33333 38.3334 16.6667 38.3334C25 38.3334 31.6667 31.6667 31.6667 23.3334C31.6667 15.0001 25 8.33341 16.6667 8.33341Z" fill="#E2FFCF"/>
<path d="M16.6669 34.1667C10.6669 34.1667 5.83353 29.3333 5.83353 23.3333C5.83353 17.3333 10.6669 12.5 16.6669 12.5C22.6669 12.5 27.5002 17.3333 27.5002 23.3333C27.5002 29.3333 22.6669 34.1667 16.6669 34.1667ZM16.6669 14.1667C11.6669 14.1667 7.50019 18.3333 7.50019 23.3333C7.50019 28.3333 11.6669 32.5 16.6669 32.5C21.6669 32.5 25.8335 28.3333 25.8335 23.3333C25.8335 18.3333 21.6669 14.1667 16.6669 14.1667Z" fill="#E2FFCF"/>
<path d="M16.6665 28.3333C13.8331 28.3333 11.6665 26.1666 11.6665 23.3333C11.6665 20.4999 13.8331 18.3333 16.6665 18.3333C19.4998 18.3333 21.6665 20.4999 21.6665 23.3333C21.6665 26.1666 19.4998 28.3333 16.6665 28.3333ZM16.6665 19.9999C14.8331 19.9999 13.3331 21.4999 13.3331 23.3333C13.3331 25.1666 14.8331 26.6666 16.6665 26.6666C18.4998 26.6666 19.9998 25.1666 19.9998 23.3333C19.9998 21.4999 18.4998 19.9999 16.6665 19.9999Z" fill="#E2FFCF"/>
<path d="M16.6669 24.1666C16.5002 24.1666 16.1669 24.1666 16.0002 23.9999C15.6669 23.6666 15.6669 23.1666 16.0002 22.8333L28.5002 10.3333C28.8336 9.99992 29.3336 9.99992 29.6669 10.3333C30.0002 10.6666 30.0002 11.1666 29.6669 11.4999L17.1669 23.9999C17.1669 24.1666 16.8336 24.1666 16.6669 24.1666Z" fill="#E2FFCF"/>
<path d="M33.3335 11.6667H29.1669C28.6669 11.6667 28.3335 11.3333 28.3335 10.8333V6.66667C28.3335 6.5 28.5002 6.16667 28.5002 6L34.3335 0.166667C34.6669 0 35.0002 0 35.3335 0C35.6669 0.166667 35.8335 0.5 35.8335 0.833333V4.16667H39.1669C39.5002 4.16667 39.8335 4.33333 40.0002 4.66667C40.0002 5 40.0002 5.33333 39.8335 5.66667L34.0002 11.5C33.8335 11.5 33.5002 11.6667 33.3335 11.6667ZM30.0002 10H33.0002L37.1669 5.83333H35.0002C34.5002 5.83333 34.1669 5.5 34.1669 5V2.83333L30.0002 7V10Z" fill="#E2FFCF"/>
</g>
<defs>
<clipPath id="clip0_2_134">
<rect width="40" height="40" fill="white"/>
</clipPath>
</defs>
</svg>
