<svg width="40" height="40" viewBox="0 0 40 40" fill="none" xmlns="http://www.w3.org/2000/svg">
<g clip-path="url(#clip0_2_173)">
<path d="M18.3334 20.5485V2.50011C18.3334 2.04011 17.96 1.66675 17.5 1.66675C7.85 1.66675 0 10.2651 0 20.8334C0 31.4017 8.59836 40.0001 19.1666 40.0001C23.895 40.0001 26.4533 39.1435 29.6966 36.4767C30.045 36.1901 30.1016 35.6784 29.825 35.3217L18.3334 20.5485ZM19.1666 38.3335C9.51664 38.3335 1.66664 30.4835 1.66664 20.8335C1.66664 11.4935 8.32164 3.83847 16.6666 3.35683V20.8335C16.6666 21.0185 16.7283 21.1985 16.8433 21.3451L28.0033 35.6935C25.3716 37.7035 23.1766 38.3335 19.1666 38.3335Z" fill="#E2FFCF"/>
<path d="M20.8334 20H39.1667C39.6267 20 40.0001 19.6266 40.0001 19.1666C40 8.59836 31.4016 0 20.8334 0C20.3734 0 20 0.373359 20 0.833359V19.1667C20 19.6266 20.3734 20 20.8334 20ZM21.6666 1.68664C30.655 2.11 37.89 9.345 38.3133 18.3333H21.6666V1.68664Z" fill="#E2FFCF"/>
<path d="M39.1668 21.6667H22.5002C22.1802 21.6667 21.8852 21.8517 21.7468 22.1417C21.6084 22.4317 21.6502 22.7751 21.8518 23.0234L32.6852 36.435C32.8302 36.6167 33.0435 36.7267 33.2752 36.7434C33.2952 36.745 33.3135 36.745 33.3335 36.745C33.5435 36.745 33.7469 36.665 33.9019 36.5217C37.7768 32.9067 40.0002 27.7967 40.0002 22.5001C40.0002 22.0401 39.6268 21.6667 39.1668 21.6667ZM33.4052 34.6735L24.2452 23.3335H38.3135C38.1085 27.5701 36.3552 31.6217 33.4052 34.6735Z" fill="#E2FFCF"/>
</g>
<defs>
<clipPath id="clip0_2_173">
<rect width="40" height="40" fill="white"/>
</clipPath>
</defs>
</svg>
