<svg width="40" height="38" viewBox="0 0 40 38" fill="none" xmlns="http://www.w3.org/2000/svg">
<g clip-path="url(#clip0_2_163)">
<path d="M39.4543 2.83678C39.3698 1.32732 38.1378 0.126979 36.5886 0.0445963C33.4626 -0.121802 27.3457 0.0400691 21.4966 2.98782C18.5149 4.4906 15.3614 7.03845 12.8447 9.97811C12.8137 10.0143 12.7836 10.0508 12.7528 10.0871L7.04143 10.5169C6.10132 10.5877 5.26396 11.0679 4.74401 11.8341L0.847515 17.5765C0.453173 18.1577 0.390484 18.885 0.679708 19.522C0.969009 20.1591 1.56345 20.603 2.26995 20.7097L7.0818 21.4359C7.06482 21.527 7.04775 21.6181 7.03214 21.7092C6.87195 22.6429 7.18943 23.6028 7.88153 24.2771L14.584 30.8078C15.1578 31.3669 15.9332 31.6751 16.7277 31.6751C16.8913 31.6751 17.0558 31.662 17.2196 31.6354C17.3131 31.6201 17.4066 31.6035 17.5001 31.587L18.2454 36.2755C18.3549 36.9639 18.8105 37.5432 19.4642 37.825C19.7362 37.9422 20.0241 38.0001 20.3106 38.0001C20.7131 38.0001 21.1127 37.8859 21.4609 37.6616L27.3545 33.8649C28.141 33.3582 28.6336 32.5423 28.7062 31.6264L29.1474 26.0615C29.1846 26.0315 29.2221 26.0022 29.2592 25.972C32.2763 23.5198 34.8913 20.4472 36.4336 17.5418C39.459 11.8425 39.6249 5.88235 39.4543 2.83678ZM26.0942 32.0075L20.4567 35.6392L19.7303 31.07C22.113 30.3874 24.4699 29.2941 26.7154 27.8296L26.428 31.4548C26.4101 31.6809 26.2884 31.8824 26.0942 32.0075ZM16.1999 29.2334L9.49729 22.7027C9.32628 22.536 9.24722 22.3018 9.28599 22.0763C9.48525 20.9153 9.79489 19.8101 10.1782 18.7689L20.235 28.5679C18.9517 29.0158 17.8022 29.283 16.8428 29.4393C16.6109 29.4769 16.3709 29.4 16.1999 29.2334ZM7.21747 12.7369L10.938 12.4569C9.43483 14.6448 8.31282 16.9413 7.61226 19.2629L2.92282 18.5552L6.65021 13.0621C6.77864 12.8729 6.98545 12.7543 7.21747 12.7369ZM27.7957 24.262C25.9498 25.7622 24.158 26.8473 22.5065 27.6324L11.14 16.5575C12.1956 14.4568 13.4839 12.7075 14.5995 11.4044C16.9285 8.68388 19.8251 6.33701 22.5466 4.96545C27.9147 2.25995 33.5706 2.11426 36.4642 2.26774C36.8472 2.28808 37.1518 2.58488 37.1727 2.95813C37.3304 5.77755 37.1806 11.2883 34.4039 16.5189C32.9963 19.1705 30.5877 21.9928 27.7957 24.262Z" fill="#E2FFCF"/>
<path d="M27.2149 17.5337C28.6776 17.5336 30.1409 16.991 31.2544 15.906C32.3335 14.8547 32.9276 13.4569 32.9276 11.9701C32.9276 10.4834 32.3334 9.08553 31.2544 8.03422C29.027 5.86384 25.4027 5.86399 23.1755 8.03422C22.0964 9.08553 21.5022 10.4834 21.5022 11.9701C21.5022 13.4569 22.0965 14.8547 23.1755 15.906C24.2893 16.9912 25.7518 17.5339 27.2149 17.5337ZM24.7911 9.60855C25.4593 8.95743 26.3371 8.63191 27.2148 8.63191C28.0926 8.63191 28.9703 8.95743 29.6385 9.60855C30.2859 10.2393 30.6424 11.078 30.6424 11.97C30.6424 12.8621 30.2859 13.7008 29.6385 14.3316C28.3021 15.6338 26.1275 15.6337 24.7911 14.3316C24.1437 13.7008 23.7871 12.8622 23.7871 11.9701C23.7871 11.0781 24.1438 10.2393 24.7911 9.60855Z" fill="#E2FFCF"/>
<path d="M1.66549 31.3157C1.95791 31.3157 2.25034 31.207 2.47337 30.9895L6.20373 27.3548C6.64995 26.9201 6.64995 26.2152 6.20373 25.7804C5.7576 25.3457 5.03411 25.3457 4.5879 25.7804L0.85761 29.4151C0.411395 29.8499 0.411395 30.5548 0.85761 30.9895C1.08064 31.2069 1.37307 31.3157 1.66549 31.3157Z" fill="#E2FFCF"/>
<path d="M9.62238 29.1115C9.17624 28.6767 8.45276 28.6767 8.00655 29.1115L0.834661 36.0995C0.388446 36.5343 0.388446 37.2392 0.834661 37.6739C1.05777 37.8913 1.35012 38 1.64254 38C1.93496 38 2.22739 37.8913 2.45042 37.6739L9.62231 30.6859C10.0686 30.2511 10.0686 29.5463 9.62238 29.1115Z" fill="#E2FFCF"/>
<path d="M11.4255 32.4425L7.69513 36.0772C7.24892 36.512 7.24892 37.2169 7.69513 37.6517C7.91824 37.869 8.21067 37.9778 8.50301 37.9778C8.79536 37.9778 9.08786 37.8691 9.31089 37.6517L13.0413 34.0169C13.4875 33.5822 13.4875 32.8773 13.0413 32.4425C12.5951 32.0078 11.8716 32.0078 11.4255 32.4425Z" fill="#E2FFCF"/>
</g>
<defs>
<clipPath id="clip0_2_163">
<rect width="39" height="38" fill="white" transform="translate(0.5)"/>
</clipPath>
</defs>
</svg>
