<svg width="41" height="40" viewBox="0 0 41 40" fill="none" xmlns="http://www.w3.org/2000/svg">
<g clip-path="url(#clip0_2_338)">
<path d="M20.5 0C31.546 0 40.5 8.954 40.5 20V34C40.5 35.5913 39.8679 37.1174 38.7427 38.2426C37.6175 39.3679 36.0913 40 34.5 40H21.5V31.226C21.5 29.224 21.622 27.15 22.672 25.446C23.4238 24.2248 24.4294 23.1796 25.6206 22.3813C26.8118 21.5829 28.1608 21.0501 29.576 20.819L29.959 20.757C30.1169 20.703 30.254 20.601 30.3511 20.4653C30.4481 20.3296 30.5003 20.1669 30.5003 20C30.5003 19.8331 30.4481 19.6704 30.3511 19.5347C30.254 19.399 30.1169 19.297 29.959 19.243L29.576 19.181C27.5082 18.8432 25.5987 17.8644 24.1172 16.3829C22.6356 14.9013 21.6568 12.9918 21.319 10.924L21.257 10.541C21.2031 10.3831 21.1011 10.246 20.9653 10.149C20.8296 10.0519 20.6669 9.99975 20.5 9.99975C20.3332 9.99975 20.1705 10.0519 20.0348 10.149C19.899 10.246 19.797 10.3831 19.743 10.541L19.681 10.924C19.45 12.3393 18.9172 13.6883 18.1188 14.8795C17.3205 16.0707 16.2753 17.0763 15.054 17.828C13.35 18.878 11.276 19 9.27405 19H0.524048C1.04705 8.419 9.79005 0 20.5 0Z" fill="#F06225"/>
<path d="M0.5 21H9.274C11.276 21 13.35 21.122 15.054 22.172C16.386 22.9928 17.5072 24.114 18.328 25.446C19.378 27.15 19.5 29.224 19.5 31.226V40H6.5C4.9087 40 3.38258 39.3679 2.25736 38.2426C1.13214 37.1174 0.5 35.5913 0.5 34L0.5 21ZM40.5 2C40.5 2.53043 40.2893 3.03914 39.9142 3.41421C39.5391 3.78929 39.0304 4 38.5 4C37.9696 4 37.4609 3.78929 37.0858 3.41421C36.7107 3.03914 36.5 2.53043 36.5 2C36.5 1.46957 36.7107 0.960859 37.0858 0.585786C37.4609 0.210714 37.9696 0 38.5 0C39.0304 0 39.5391 0.210714 39.9142 0.585786C40.2893 0.960859 40.5 1.46957 40.5 2Z" fill="#F06225"/>
</g>
<defs>
<clipPath id="clip0_2_338">
<rect width="40" height="40" fill="white" transform="translate(0.5)"/>
</clipPath>
</defs>
</svg>
