<svg width="81" height="32" viewBox="0 0 81 32" fill="none" xmlns="http://www.w3.org/2000/svg">
<g clip-path="url(#clip0_2_387)">
<path d="M4.31606 3.388C4.52406 2.4008 5.50806 1.6 6.51046 1.6H11.9601L7.42806 23.0584H1.97846C0.975264 23.0584 0.330464 22.2584 0.539264 21.2704L4.31606 3.388ZM22.4817 3.388C22.6905 2.4008 23.6737 1.6 24.6761 1.6H30.1257L25.5937 23.0584H20.1441C19.1409 23.0584 18.4961 22.2584 18.7049 21.2704L22.4817 3.388ZM58.8137 3.388C59.0217 2.4008 60.0041 1.6 61.0081 1.6H66.4577L61.9257 23.0584H56.4753C55.4721 23.0584 54.8281 22.2584 55.0369 21.2704L58.8137 3.388ZM31.9425 1.6H37.3921C38.3953 1.6 39.0401 2.4 38.8313 3.388L35.0545 21.2704C34.8465 22.2584 33.8633 23.0584 32.8601 23.0584H27.4105L31.9425 1.6ZM68.2745 1.6H73.7241C74.7273 1.6 75.3721 2.4 75.1633 3.388L71.3857 21.2704C71.1777 22.2584 70.1953 23.0584 69.1921 23.0584H63.7417L68.2745 1.6ZM40.6481 3.388C40.8561 2.4008 41.8385 1.6 42.8417 1.6H48.2921L43.7593 23.0584H38.3097C37.3065 23.0584 36.6617 22.2584 36.8713 21.2704L40.6473 3.388H40.6481ZM50.1081 1.6H55.5585C56.5617 1.6 57.2057 2.4 56.9969 3.388L51.3321 30.212C51.1225 31.1992 50.1401 32 49.1369 32H43.6865L50.1081 1.6ZM10.7553 15.9056H18.0217L16.8889 21.2704C16.6801 22.2584 15.6969 23.0584 14.6945 23.0584H9.24406L10.7545 15.9064L10.7553 15.9056ZM36.1161 24.8472H43.3817L41.8713 32H36.4217C35.4177 32 34.7737 31.2 34.9825 30.212L36.1161 24.8472ZM55.8393 26.5104L54.9193 30.8672C54.8793 31.0544 54.8169 31.1056 54.6265 31.1056H54.2081C54.0177 31.1056 53.9761 31.0544 54.0161 30.8672L54.9361 26.5104C54.9761 26.324 55.0385 26.272 55.2289 26.272H55.6473C55.8377 26.272 55.8793 26.324 55.8393 26.5104ZM57.0489 29.4496H56.9633C56.8721 29.4496 56.8401 29.4752 56.8217 29.5656L56.5465 30.8672C56.5065 31.0544 56.4433 31.1056 56.2537 31.1056H55.8345C55.6449 31.1056 55.6033 31.0544 55.6425 30.8672L56.5625 26.5104C56.6025 26.324 56.6665 26.272 56.8561 26.272H57.7201C58.7153 26.272 59.0921 26.6264 58.9081 27.496L58.7545 28.2248C58.5705 29.0952 58.0441 29.4496 57.0489 29.4496ZM57.3017 27.2904L57.0617 28.4312C57.0417 28.5216 57.0625 28.5472 57.1545 28.5472H57.2921C57.6121 28.5472 57.7841 28.4184 57.8537 28.0896L57.9497 27.632C58.0193 27.304 57.9025 27.1744 57.5817 27.1744H57.4441C57.3529 27.1744 57.3209 27.2 57.3017 27.2904ZM60.2921 27.9928L60.9721 28.7408C61.3289 29.1272 61.3785 29.3592 61.2873 29.7912L61.2633 29.9072C61.0913 30.7192 60.6817 31.1704 59.7321 31.1704C58.7833 31.1704 58.5489 30.7904 58.7681 29.752L58.7953 29.624C58.8353 29.4368 58.8985 29.3848 59.0881 29.3848H59.5329C59.7233 29.3848 59.7649 29.4368 59.7249 29.6232L59.6649 29.9072C59.6105 30.1648 59.6937 30.268 59.9225 30.268C60.1521 30.268 60.2769 30.172 60.3265 29.94L60.3521 29.8168C60.3905 29.636 60.3697 29.5464 60.1729 29.3336L59.5329 28.644C59.1745 28.264 59.1289 28.044 59.2201 27.612L59.2497 27.4712C59.4217 26.6592 59.8313 26.2072 60.7801 26.2072C61.7297 26.2072 61.9641 26.588 61.7449 27.6256L61.7177 27.7544C61.6777 27.9416 61.6145 27.9928 61.4249 27.9928H60.9793C60.7897 27.9928 60.7481 27.9416 60.7873 27.7544L60.8473 27.4712C60.9017 27.2128 60.8193 27.1104 60.5897 27.1104C60.3609 27.1104 60.2353 27.2064 60.1865 27.4384L60.1633 27.548C60.1233 27.7352 60.1441 27.8256 60.2921 27.9928ZM64.1257 26.5104C64.1657 26.324 64.2281 26.272 64.4185 26.272H64.8369C65.0273 26.272 65.0689 26.324 65.0289 26.5104L64.3441 29.7528C64.1249 30.7904 63.7305 31.1704 62.7809 31.1704C61.8321 31.1704 61.5977 30.7904 61.8169 29.752L62.5017 26.5104C62.5417 26.324 62.6049 26.272 62.7945 26.272H63.2137C63.4033 26.272 63.4449 26.324 63.4057 26.5104L62.6881 29.9072C62.6337 30.1648 62.7233 30.268 62.9721 30.268C63.2137 30.268 63.3537 30.1648 63.4081 29.9072L64.1257 26.5104ZM66.8505 29.1336C66.8529 29.1856 66.8697 29.1976 66.9025 29.1976C66.9345 29.1976 66.9577 29.1856 66.9817 29.1336L68.1129 26.44C68.1681 26.304 68.2337 26.272 68.3977 26.272H69.0329C69.2225 26.272 69.2641 26.324 69.2249 26.5104L68.3049 30.8672C68.2649 31.0544 68.2009 31.1056 68.0113 31.1056H67.7105C67.5209 31.1056 67.4785 31.0544 67.5185 30.8672L67.9601 28.7792C67.9721 28.7216 67.9617 28.708 67.9225 28.708C67.8961 28.708 67.8665 28.7216 67.8505 28.7664L66.9369 30.8936C66.8713 31.048 66.7873 31.1056 66.5977 31.1056H66.4201C66.2233 31.1056 66.1641 31.048 66.1641 30.8936L66.1417 28.7656C66.1377 28.7208 66.1273 28.708 66.0945 28.708C66.0553 28.708 66.0393 28.7216 66.0273 28.7792L65.5865 30.8672C65.5465 31.0544 65.4841 31.1056 65.2937 31.1056H64.9929C64.8025 31.1056 64.7609 31.0544 64.8009 30.8672L65.7209 26.5104C65.7609 26.324 65.8241 26.272 66.0137 26.272H66.5577C66.7865 26.272 66.8601 26.324 66.8585 26.5496L66.8497 29.1336H66.8505ZM80.5001 1.6C80.5001 2.484 79.7881 3.2 78.9105 3.2C78.701 3.19937 78.4937 3.15748 78.3005 3.07672C78.1072 2.99596 77.9318 2.87792 77.7842 2.72934C77.6366 2.58075 77.5197 2.40454 77.4402 2.21076C77.3607 2.01699 77.3201 1.80945 77.3209 1.6C77.3209 0.716 78.0329 0 78.9105 0C79.7881 0 80.5001 0.716 80.5001 1.6Z" fill="#1D2633"/>
</g>
<defs>
<clipPath id="clip0_2_387">
<rect width="80" height="32" fill="white" transform="translate(0.5)"/>
</clipPath>
</defs>
</svg>
