<svg width="112" height="26" viewBox="0 0 112 26" fill="none" xmlns="http://www.w3.org/2000/svg">
<g clip-path="url(#clip0_2_352)">
<path fill-rule="evenodd" clip-rule="evenodd" d="M7.07777 1.625V26H0.5V1.625H7.07777Z" fill="#283841"/>
<path fill-rule="evenodd" clip-rule="evenodd" d="M10.3667 1.625H24.3445C28.8855 1.625 32.5667 5.26269 32.5667 9.75C32.5667 14.2373 28.8855 17.875 24.3445 17.875H16.9445V26H10.3667V1.625ZM16.9445 11.375H24.3445C25.2527 11.375 25.9889 10.6475 25.9889 9.75C25.9889 8.85254 25.2527 8.125 24.3445 8.125H16.9445V11.375Z" fill="#283841"/>
<path fill-rule="evenodd" clip-rule="evenodd" d="M57.2333 1.625V14.2188C57.2333 17.1355 59.626 19.5 62.5777 19.5C65.5294 19.5 67.9223 17.1355 67.9223 14.2188V1.625H74.5002V14.2188C74.5002 20.7254 69.1623 26 62.5777 26C55.9932 26 50.6555 20.7254 50.6555 14.2188V1.625H57.2333Z" fill="#283841"/>
<path fill-rule="evenodd" clip-rule="evenodd" d="M35.0333 13C35.0333 6.71775 40.187 1.625 46.5444 1.625H48.1889V8.125H46.5444C43.8198 8.125 41.6111 10.3076 41.6111 13V13.8125C41.6111 20.5434 36.0893 26 29.2778 26H28.4556V19.5H29.2778C32.4565 19.5 35.0333 16.9536 35.0333 13.8125V13Z" fill="#283841"/>
<path d="M111.5 2.4375C111.5 3.7837 110.396 4.875 109.033 4.875C107.671 4.875 106.567 3.7837 106.567 2.4375C106.567 1.0913 107.671 0 109.033 0C110.396 0 111.5 1.0913 111.5 2.4375Z" fill="#283841"/>
<path d="M81.5629 26.0001L84.7017 13.0118L87.0354 20.8256C88.4265 25.486 95.1068 25.486 96.4986 20.8256L98.8316 13.0118L101.97 26.0001H108.733L103.798 5.57674C102.624 0.719907 95.698 0.540079 94.2674 5.32936L91.767 13.7042L89.2659 5.32937C87.836 0.540107 80.9094 0.719881 79.7356 5.57673L74.8004 26.0001H81.5629Z" fill="#283841"/>
</g>
<defs>
<clipPath id="clip0_2_352">
<rect width="111" height="26" fill="white" transform="translate(0.5)"/>
</clipPath>
</defs>
</svg>
