<svg width="176" height="32" viewBox="0 0 176 32" fill="none" xmlns="http://www.w3.org/2000/svg">
<g clip-path="url(#clip0_2_294)">
<path d="M16.4091 32C25.1957 32 32.3182 24.8368 32.3182 16V4.8C32.3182 3.52696 31.8153 2.30606 30.9203 1.40589C30.0252 0.505713 28.8113 0 27.5455 0L17.2045 0V7.0192C17.2045 8.6208 17.3016 10.28 18.1368 11.6432C18.7348 12.6202 19.5346 13.4564 20.4822 14.095C21.4298 14.7337 22.5028 15.1599 23.6286 15.3448L23.9333 15.3944C24.0589 15.4376 24.1679 15.5192 24.2451 15.6278C24.3223 15.7364 24.3638 15.8665 24.3638 16C24.3638 16.1335 24.3223 16.2636 24.2451 16.3722C24.1679 16.4808 24.0589 16.5624 23.9333 16.6056L23.6286 16.6552C21.9838 16.9254 20.4649 17.7085 19.2863 18.8937C18.1078 20.0789 17.3293 21.6065 17.0606 23.2608L17.0112 23.5672C16.9683 23.6935 16.8872 23.8032 16.7792 23.8808C16.6712 23.9585 16.5418 24.0002 16.4091 24.0002C16.2764 24.0002 16.1469 23.9585 16.039 23.8808C15.931 23.8032 15.8499 23.6935 15.8069 23.5672L15.7576 23.2608C15.5738 22.1286 15.1499 21.0494 14.5149 20.0964C13.8798 19.1435 13.0484 18.339 12.077 17.7376C10.7216 16.8976 9.07182 16.8 7.47932 16.8H0.519089C0.935111 25.2648 7.88977 32 16.4091 32Z" fill="#0E1534"/>
<path d="M0.5 15.2H7.47932C9.07182 15.2 10.7216 15.1024 12.077 14.2624C13.1366 13.6058 14.0285 12.7088 14.6814 11.6432C15.5166 10.28 15.6136 8.6208 15.6136 7.0192V0H5.27273C4.00692 0 2.79296 0.505713 1.8979 1.40589C1.00284 2.30606 0.5 3.52696 0.5 4.8L0.5 15.2ZM37.4528 1.6C37.4528 2.02435 37.2852 2.43131 36.9869 2.73137C36.6885 3.03143 36.2839 3.2 35.8619 3.2C35.44 3.2 35.0353 3.03143 34.737 2.73137C34.4386 2.43131 34.271 2.02435 34.271 1.6C34.271 1.17565 34.4386 0.768687 34.737 0.468629C35.0353 0.168571 35.44 0 35.8619 0C36.2839 0 36.6885 0.168571 36.9869 0.468629C37.2852 0.768687 37.4528 1.17565 37.4528 1.6ZM168.906 9.6832C173.354 9.6832 175.5 12.8072 175.5 16.4256V23.2216H170.846V17.232C170.846 15.592 170.251 14.2384 168.545 14.2384C166.838 14.2384 166.27 15.592 166.27 17.232V23.2208H161.615V17.232C161.615 15.592 161.047 14.2384 159.34 14.2384C157.633 14.2384 157.038 15.592 157.038 17.232V23.2208H152.385V16.4248C152.385 12.8064 154.53 9.6824 158.978 9.6824C161.409 9.6824 163.166 10.6456 163.968 12.2336C164.821 10.6456 166.683 9.6816 168.906 9.6816V9.6832ZM144.021 19.056C145.521 19.056 146.168 17.676 146.168 16.0352V10.2032H150.821V16.608C150.821 20.4352 148.598 23.612 144.021 23.612C139.444 23.612 137.221 20.436 137.221 16.608V10.2032H141.875V16.0352C141.875 17.6752 142.521 19.056 144.021 19.056ZM130.378 23.6376C127.456 23.6376 125.569 22.6224 124.456 20.644L127.818 18.7432C128.283 19.576 128.981 19.9928 130.145 19.9928C131.102 19.9928 131.541 19.6544 131.541 19.2376C131.541 17.6496 124.715 19.264 124.715 14.2136C124.715 11.7656 126.783 9.7872 130.3 9.7872C133.377 9.7872 135.057 11.2968 135.808 12.7552L132.446 14.6816C132.162 13.9008 131.282 13.432 130.403 13.432C129.731 13.432 129.369 13.7184 129.369 14.1088C129.369 15.7232 136.195 14.2392 136.195 19.1336C136.195 21.8672 133.532 23.6376 130.378 23.6376ZM114.117 29.2096H109.463V16.6864C109.463 12.7024 112.436 9.8128 116.574 9.8128C120.607 9.8128 123.684 12.9112 123.684 16.6864C123.684 20.852 120.943 23.612 116.832 23.612C115.875 23.612 114.919 23.3256 114.117 22.8824V29.2096ZM116.574 19.212C118.048 19.212 119.03 18.0664 119.03 16.712C119.03 15.3328 118.048 14.2128 116.574 14.2128C115.1 14.2128 114.117 15.3328 114.117 16.7128C114.117 18.0664 115.1 19.212 116.574 19.212ZM104.801 8.824C103.275 8.824 102.009 7.548 102.009 6.012C102.009 4.476 103.275 3.2 104.801 3.2C106.326 3.2 107.594 4.476 107.594 6.012C107.594 7.548 106.326 8.824 104.801 8.824ZM102.474 10.2032H107.128V23.2216H102.474V10.2032ZM93.5443 23.612C89.5106 23.612 86.4338 20.488 86.4338 16.6864C86.4338 12.9112 89.5106 9.7872 93.5443 9.7872C97.5781 9.7872 100.655 12.9112 100.655 16.6864C100.655 20.488 97.5781 23.612 93.5443 23.612ZM93.5443 19.212C95.0183 19.212 96.0007 18.0664 96.0007 16.712C96.0007 15.3328 95.0183 14.1872 93.5443 14.1872C92.0703 14.1872 91.088 15.3328 91.088 16.712C91.088 18.0664 92.0703 19.212 93.5443 19.212ZM77.6456 29.6C74.4399 29.6 72.1124 28.168 70.9232 25.616L74.7756 23.5336C75.1892 24.4192 75.9648 25.3304 77.5676 25.3304C79.2492 25.3304 80.3605 24.2624 80.4901 22.388C79.8697 22.9352 78.8865 23.3512 77.4133 23.3512C73.8186 23.3512 70.9224 20.5656 70.9224 16.66C70.9224 12.8856 74 9.8128 78.0338 9.8128C82.1709 9.8128 85.1443 12.7032 85.1443 16.6864V21.8416C85.1443 26.528 81.9116 29.6 77.6456 29.6ZM77.9558 18.952C79.3518 18.952 80.4122 17.988 80.4122 16.556C80.4122 15.1504 79.3526 14.2128 77.9558 14.2128C76.5852 14.2128 75.4994 15.1504 75.4994 16.5568C75.4994 17.9888 76.5852 18.9512 77.9558 18.9512V18.952ZM63.0283 23.612C58.9945 23.612 55.9169 20.488 55.9169 16.6864C55.9169 12.9112 58.9945 9.7872 63.0283 9.7872C67.0613 9.7872 70.1389 12.9112 70.1389 16.6864C70.1389 20.488 67.062 23.612 63.0283 23.612ZM63.0283 19.212C64.5023 19.212 65.4847 18.0664 65.4847 16.712C65.4847 15.3328 64.5023 14.1872 63.0283 14.1872C61.5543 14.1872 60.5719 15.3328 60.5719 16.712C60.5719 18.0664 61.5543 19.212 63.0283 19.212ZM47.4422 5.648V18.7952H55.1477V23.2216H46.7955C43.8483 23.2216 42.6591 21.6592 42.6591 19.1856V5.648H47.4422Z" fill="#0E1534"/>
</g>
<defs>
<clipPath id="clip0_2_294">
<rect width="175" height="32" fill="white" transform="translate(0.5)"/>
</clipPath>
</defs>
</svg>
