<svg width="57" height="56" viewBox="0 0 57 56" fill="none" xmlns="http://www.w3.org/2000/svg">
<g clip-path="url(#clip0_2_308)">
<path d="M56.5 28C56.5 43.464 43.964 56 28.5 56C13.036 56 0.5 43.464 0.5 28C0.5 12.536 13.036 0 28.5 0C43.964 0 56.5 12.536 56.5 28Z" fill="#1D2633"/>
<path d="M49.2995 35.1494C50.2451 35.1494 50.9176 36.0684 50.562 36.9445C47.0266 45.6564 38.4807 51.8001 28.4999 51.8001C18.5192 51.8001 9.97331 45.6564 6.43784 36.9445C6.08226 36.0684 6.75484 35.1494 7.70041 35.1494H49.2995Z" fill="#EDEBDE"/>
<path d="M50.562 19.0555C50.9176 19.9317 50.2451 20.8506 49.2995 20.8506H7.70042C6.75485 20.8506 6.08228 19.9317 6.43785 19.0555C9.97332 10.3436 18.5192 4.19995 28.4999 4.19995C38.4807 4.19995 47.0266 10.3436 50.562 19.0555Z" fill="#EDEBDE"/>
<path d="M49.3859 26.0049C50.9589 26.0049 51.718 27.1023 51.718 28.3735V30.7605H50.0718V28.6571C50.0718 28.0809 49.8615 27.6054 49.2579 27.6054C48.6543 27.6054 48.4531 28.0809 48.4531 28.6571V30.7605H46.8069V28.6571C46.8069 28.0809 46.6057 27.6054 46.0021 27.6054C45.3985 27.6054 45.1881 28.0809 45.1881 28.6571V30.7605H43.5419V28.3735C43.5419 27.1023 44.301 26.0049 45.8741 26.0049C46.7337 26.0049 47.3556 26.3433 47.6391 26.9012C47.941 26.3433 48.5994 26.0049 49.3859 26.0049Z" fill="#EDEBDE"/>
<path d="M40.5839 29.2972C41.1143 29.2972 41.343 28.8125 41.343 28.2364V26.1877H42.9892V28.4375C42.9892 29.7819 42.2026 30.8977 40.5839 30.8977C38.9651 30.8977 38.1787 29.7819 38.1787 28.4375V26.1877H39.8248V28.2364C39.8248 28.8125 40.0535 29.2972 40.5839 29.2972Z" fill="#EDEBDE"/>
<path d="M35.7581 30.9069C34.7247 30.9069 34.057 30.5502 33.6638 29.8552L34.8527 29.1875C35.0174 29.4802 35.2642 29.6265 35.6758 29.6265C36.0142 29.6265 36.1696 29.5076 36.1696 29.3613C36.1696 28.8034 33.7553 29.3704 33.7553 27.5962C33.7553 26.7365 34.4869 26.0415 35.7307 26.0415C36.819 26.0415 37.4135 26.5719 37.6787 27.0841L36.4897 27.7608C36.3891 27.4864 36.0782 27.3219 35.7673 27.3219C35.5295 27.3219 35.4014 27.4225 35.4014 27.5597C35.4014 28.1267 37.8158 27.6054 37.8158 29.3247C37.8158 30.285 36.8739 30.9069 35.7581 30.9069Z" fill="#EDEBDE"/>
<path d="M30.0067 32.8639H28.3605V28.465C28.3605 27.0657 29.4122 26.0505 30.8755 26.0505C32.3022 26.0505 33.3905 27.1389 33.3905 28.465C33.3905 29.9283 32.4211 30.8977 30.9669 30.8977C30.6286 30.8977 30.2902 30.7971 30.0067 30.6416V32.8639ZM30.8755 29.3521C31.3968 29.3521 31.7443 28.9497 31.7443 28.4741C31.7443 27.9894 31.3968 27.5961 30.8755 27.5961C30.3542 27.5961 30.0067 27.9894 30.0067 28.4741C30.0067 28.9497 30.3542 29.3521 30.8755 29.3521Z" fill="#EDEBDE"/>
<path d="M26.7114 25.7033C26.1719 25.7033 25.7237 25.2551 25.7237 24.7156C25.7237 24.1759 26.1719 23.7278 26.7114 23.7278C27.2511 23.7278 27.6992 24.1759 27.6992 24.7156C27.6992 25.2551 27.2511 25.7033 26.7114 25.7033ZM25.8884 26.1879H27.5346V30.7607H25.8884V26.1879Z" fill="#EDEBDE"/>
<path d="M22.73 30.8978C21.3033 30.8978 20.2149 29.8003 20.2149 28.465C20.2149 27.139 21.3033 26.0415 22.73 26.0415C24.1566 26.0415 25.245 27.139 25.245 28.465C25.245 29.8003 24.1566 30.8978 22.73 30.8978ZM22.73 29.3522C23.2513 29.3522 23.5988 28.9497 23.5988 28.4742C23.5988 27.9895 23.2513 27.5871 22.73 27.5871C22.2087 27.5871 21.8611 27.9895 21.8611 28.4742C21.8611 28.9497 22.2087 29.3522 22.73 29.3522Z" fill="#EDEBDE"/>
<path d="M17.1063 33.0011C15.9723 33.0011 15.1492 32.4981 14.7285 31.6019L16.0912 30.8702C16.2375 31.1812 16.5119 31.5013 17.0789 31.5013C17.6733 31.5013 18.0666 31.1263 18.1123 30.4678C17.8929 30.6599 17.5453 30.8062 17.024 30.8062C15.7528 30.8062 14.7285 29.8277 14.7285 28.4558C14.7285 27.1297 15.8168 26.0505 17.2435 26.0505C18.7068 26.0505 19.7585 27.0657 19.7585 28.465V30.2758C19.7585 31.9219 18.6153 33.0011 17.1063 33.0011ZM17.2161 29.2606C17.71 29.2606 18.0849 28.9222 18.0849 28.4193C18.0849 27.9254 17.71 27.5961 17.2161 27.5961C16.7314 27.5961 16.3473 27.9254 16.3473 28.4193C16.3473 28.9222 16.7314 29.2606 17.2161 29.2606Z" fill="#EDEBDE"/>
<path d="M11.9362 30.8978C10.5095 30.8978 9.42114 29.8003 9.42114 28.465C9.42114 27.139 10.5095 26.0415 11.9362 26.0415C13.3628 26.0415 14.4512 27.139 14.4512 28.465C14.4512 29.8003 13.3628 30.8978 11.9362 30.8978ZM11.9362 29.3522C12.4575 29.3522 12.805 28.9497 12.805 28.4742C12.805 27.9895 12.4575 27.5871 11.9362 27.5871C11.4149 27.5871 11.0673 27.9895 11.0673 28.4742C11.0673 28.9497 11.4149 29.3522 11.9362 29.3522Z" fill="#EDEBDE"/>
<path d="M6.42352 24.5874V29.2059H9.14884V30.7606H6.19489C5.1523 30.7606 4.73161 30.2118 4.73161 29.343V24.5874H6.42352Z" fill="#EDEBDE"/>
<path d="M24.2999 4.56937C25.6633 4.32662 27.0668 4.19995 28.5 4.19995C29.9331 4.19995 31.3366 4.32662 32.6999 4.56936V20.8506H24.2999V4.56937Z" fill="#AC2828"/>
<path d="M32.7003 35.1494H24.2995C24.2819 38.8019 23.6164 42.4228 22.3336 45.8435L20.603 50.4586C23.074 51.3275 25.7318 51.8001 28.4999 51.8001C31.268 51.8001 33.9258 51.3275 36.3968 50.4586L34.6662 45.8435C33.3834 42.4228 32.7179 38.8019 32.7003 35.1494Z" fill="#AC2828"/>
<path d="M32.7 4.56934C35.7386 5.11036 38.5777 6.22799 41.1 7.80508V20.8506H32.7V4.56934Z" fill="#306A9F"/>
<path d="M36.3969 50.4586C40.2171 49.1154 43.5912 46.8251 46.2374 43.8694L45.8244 43.6066C42.9239 41.7608 41.1511 38.5804 41.101 35.1494H32.7003C32.718 38.8019 33.3835 42.4228 34.6663 45.8435L36.3969 50.4586Z" fill="#306A9F"/>
<path d="M15.8999 7.80508C18.4222 6.228 21.2613 5.11036 24.2999 4.56934V20.8506H15.8999V7.80508Z" fill="#DEB038"/>
<path d="M15.8988 35.1494H24.2995C24.2819 38.7863 23.6221 42.3918 22.35 45.7997L20.603 50.4586C16.7827 49.1154 13.4086 46.8251 10.7624 43.8694L11.1754 43.6066C14.0759 41.7608 15.8488 38.5804 15.8988 35.1494Z" fill="#DEB038"/>
</g>
<defs>
<clipPath id="clip0_2_308">
<rect width="56" height="56" fill="white" transform="translate(0.5)"/>
</clipPath>
</defs>
</svg>
