<svg width="146" height="32" viewBox="0 0 146 32" fill="none" xmlns="http://www.w3.org/2000/svg">
<g clip-path="url(#clip0_2_370)">
<path fill-rule="evenodd" clip-rule="evenodd" d="M15.9072 3.6536L17.952 0L23.7489 3.4536L21.7049 7.1064C21.3459 7.7472 21.8832 8.5264 22.5873 8.3864L26.5046 7.6064L27.7724 14.388L23.8551 15.1672C17.5185 16.428 12.6808 9.42 15.9072 3.6536Z" fill="#3A724F"/>
<path fill-rule="evenodd" clip-rule="evenodd" d="M12.3652 28.3464L10.3205 32L4.52278 28.5472L6.56751 24.8936C6.92652 24.2528 6.38917 23.4736 5.68433 23.6136L1.76778 24.3928L0.5 17.612L4.41733 16.8328C10.7539 15.572 15.5909 22.58 12.3652 28.3464Z" fill="#DC8E43"/>
<path fill-rule="evenodd" clip-rule="evenodd" d="M12.542 3.6536L10.498 0L4.70035 3.4536L6.74508 7.1064C7.10332 7.7472 6.56674 8.5264 5.8619 8.3864L1.94457 7.6064L0.678345 14.388L4.5949 15.1672C10.9322 16.428 15.77 9.42 12.5428 3.6536H12.542Z" fill="#14424C"/>
<path fill-rule="evenodd" clip-rule="evenodd" d="M15.7367 28.3464L17.7798 32L23.5775 28.5472L21.5328 24.8936C21.1745 24.2528 21.7111 23.4736 22.416 23.6136L26.3325 24.3928L27.6003 17.612L23.683 16.8328C17.3464 15.572 12.5094 22.58 15.7351 28.3464H15.7367Z" fill="#C85D1B"/>
<path d="M126.979 24.1224V17.3224C126.979 16.38 127.189 15.5344 127.609 14.7864C128.044 14.0232 128.661 13.4248 129.459 12.9904C130.256 12.5568 131.206 12.34 132.308 12.34C132.822 12.3348 133.335 12.4026 133.831 12.5416C134.295 12.6616 134.716 12.8336 135.093 13.0576C135.484 13.2672 135.818 13.5216 136.094 13.8208H136.137C136.433 13.5173 136.77 13.2601 137.137 13.0576C137.541 12.8281 137.973 12.6546 138.421 12.5416C138.925 12.4036 139.445 12.3358 139.966 12.34C141.068 12.34 142.018 12.556 142.816 12.9904C143.613 13.4248 144.229 14.0224 144.664 14.7864C145.1 15.5344 145.317 16.3792 145.317 17.3224V24.1224H141.923V17.4344C141.923 17.0608 141.829 16.724 141.641 16.4248C141.468 16.1118 141.221 15.8492 140.923 15.6616C140.608 15.4642 140.246 15.363 139.878 15.3696C139.487 15.3696 139.132 15.4672 138.813 15.6616C138.515 15.849 138.268 16.1116 138.095 16.4248C137.919 16.7299 137.829 17.0794 137.834 17.4344V24.1224H134.462V17.4344C134.462 17.0608 134.368 16.724 134.179 16.4248C134.002 16.1073 133.747 15.8439 133.439 15.6616C133.125 15.4642 132.763 15.363 132.395 15.3696C132.003 15.3696 131.648 15.4672 131.33 15.6616C131.031 15.849 130.784 16.1116 130.612 16.4248C130.436 16.7301 130.346 17.0794 130.35 17.4344V24.1224H126.979ZM119.604 24.392C118.459 24.392 117.465 24.168 116.624 23.7184C115.797 23.2544 115.159 22.6336 114.71 21.856C114.26 21.0632 114.035 20.1872 114.035 19.2296V12.6088H117.407V19.14C117.407 19.544 117.501 19.9184 117.689 20.2624C117.878 20.5912 118.132 20.8608 118.451 21.0704C118.784 21.2648 119.162 21.3624 119.582 21.3624C119.989 21.3624 120.351 21.2648 120.67 21.0704C121.004 20.8608 121.265 20.5912 121.453 20.2624C121.642 19.9184 121.736 19.544 121.736 19.14V12.6088H125.108V19.2296C125.108 20.1872 124.89 21.0632 124.455 21.856C124.02 22.6336 123.389 23.2552 122.563 23.7184C121.75 24.1672 120.764 24.392 119.604 24.392ZM103.174 24.1224V21.3624H108.547C108.692 21.3624 108.823 21.332 108.939 21.272C109.055 21.1976 109.149 21.1 109.221 20.9808C109.292 20.8628 109.33 20.7268 109.33 20.588C109.33 20.4491 109.292 20.3131 109.221 20.1952C109.154 20.0798 109.056 19.9864 108.939 19.9256C108.822 19.8504 108.686 19.8116 108.547 19.8136H106.59C105.864 19.8136 105.204 19.6936 104.61 19.4544C104.046 19.2132 103.562 18.8076 103.217 18.2872C102.884 17.7488 102.717 17.0528 102.717 16.2C102.717 15.5416 102.869 14.9432 103.174 14.4048C103.491 13.868 103.932 13.4206 104.457 13.1024C105.006 12.774 105.629 12.6036 106.263 12.6088H111.636V15.392H106.785C106.592 15.388 106.406 15.4604 106.263 15.5944C106.2 15.6585 106.149 15.7353 106.116 15.8202C106.082 15.9051 106.065 15.9962 106.067 16.088C106.067 16.2976 106.133 16.4768 106.263 16.6264C106.406 16.7603 106.592 16.8327 106.785 16.8288H108.699C109.511 16.8288 110.208 16.956 110.788 17.2096C111.382 17.4496 111.839 17.8384 112.159 18.3776C112.492 18.916 112.659 19.6112 112.659 20.464C112.659 21.1376 112.492 21.7512 112.159 22.304C111.842 22.855 111.392 23.3115 110.853 23.6288C110.316 23.9584 109.707 24.1224 109.026 24.1224H103.174ZM95.8278 12.34C96.7707 12.34 97.6043 12.4968 98.3293 12.8112C99.0414 13.0913 99.6816 13.5366 100.2 14.1128C100.729 14.6773 101.137 15.3502 101.397 16.088C101.672 16.836 101.81 17.6664 101.81 18.5792C101.81 19.716 101.578 20.7264 101.114 21.6088C100.685 22.4544 100.037 23.1613 99.2435 23.6512C98.4456 24.1448 97.5174 24.392 96.459 24.392C96.0093 24.392 95.5812 24.332 95.1749 24.2128C94.7901 24.096 94.4239 23.9219 94.0878 23.696C93.771 23.4742 93.4979 23.1924 93.2829 22.8656H93.217V28.9936H89.8456V18.5784C89.8456 17.3064 90.0922 16.2064 90.5853 15.2792C91.0634 14.3665 91.7891 13.6175 92.6735 13.124C93.5729 12.6008 94.6244 12.3392 95.8278 12.3392V12.34ZM95.8278 15.3472C95.306 15.3472 94.8493 15.4816 94.4577 15.7512C94.0801 16.0056 93.7901 16.3648 93.5869 16.8288C93.3845 17.2768 93.2829 17.7864 93.2829 18.3544C93.2829 18.9232 93.3845 19.432 93.5869 19.8808C93.7901 20.3296 94.0801 20.6888 94.4577 20.9584C94.8493 21.2128 95.306 21.34 95.8278 21.34C96.3497 21.34 96.7994 21.212 97.1762 20.9584C97.5555 20.6868 97.8564 20.3145 98.047 19.8808C98.2641 19.432 98.3727 18.9232 98.3727 18.3544C98.3727 17.7864 98.2641 17.2776 98.047 16.8288C97.8439 16.3648 97.5539 16.0048 97.1762 15.7512C96.7994 15.4816 96.3497 15.3472 95.8278 15.3472ZM84.7217 24.1224V12.6088H88.1157V24.1224H84.7217ZM86.4183 11.3072C85.8817 11.3072 85.4181 11.1056 85.0265 10.7016C84.6349 10.2976 84.4387 9.81835 84.4387 9.26475C84.4387 8.71115 84.6349 8.23275 85.0265 7.82875C85.4181 7.40955 85.8817 7.19995 86.4183 7.19995C86.9549 7.19995 87.4194 7.40955 87.8109 7.82875C88.2025 8.23275 88.3979 8.71115 88.3979 9.26475C88.3979 9.81835 88.2025 10.2968 87.8109 10.7016C87.4194 11.1056 86.9549 11.3072 86.4183 11.3072ZM77.3461 24.392C76.2009 24.392 75.1711 24.1304 74.2569 23.6064C73.3601 23.0992 72.6096 22.3558 72.0819 21.452C71.5601 20.5392 71.2988 19.5144 71.2988 18.3768C71.2988 17.2248 71.5601 16.2 72.0819 15.3024C72.6096 14.3985 73.3601 13.6551 74.2569 13.148C75.1711 12.6088 76.2009 12.34 77.3461 12.34C78.4922 12.34 79.5141 12.6088 80.4136 13.148C81.3072 13.6516 82.0515 14.3963 82.5669 15.3024C83.1035 16.2 83.3718 17.2248 83.3718 18.3768C83.3718 19.5144 83.1035 20.5392 82.5669 21.452C82.0515 22.358 81.3072 23.1027 80.4136 23.6064C79.5002 24.1304 78.4774 24.392 77.3461 24.392ZM77.3461 21.3624C77.8827 21.3624 78.3472 21.2272 78.7388 20.9584C79.1304 20.689 79.4457 20.3171 79.6522 19.8808C79.8701 19.432 79.9786 18.9232 79.9786 18.3544C79.9786 17.8008 79.8701 17.3 79.6522 16.8504C79.4456 16.4142 79.1303 16.0426 78.7388 15.7736C78.3472 15.504 77.8827 15.3696 77.3461 15.3696C76.8096 15.3696 76.3381 15.504 75.9326 15.7736C75.5407 16.0429 75.2252 16.4148 75.0184 16.8512C74.7968 17.3191 74.6852 17.8344 74.6927 18.3552C74.6927 18.9232 74.8013 19.432 75.0184 19.8808C75.2253 20.3171 75.5408 20.689 75.9326 20.9584C76.3381 21.2272 76.8096 21.3624 77.3461 21.3624ZM60.3408 28.6792V25.6936H65.909C66.1269 25.6936 66.3083 25.6192 66.4533 25.4696C66.524 25.4051 66.5801 25.3254 66.6176 25.2361C66.6551 25.1468 66.6731 25.05 66.6704 24.9528V22.4168H66.6053C66.3298 22.7472 66.0157 23.0412 65.6701 23.292C65.3507 23.532 64.9878 23.7112 64.5822 23.8312C64.1506 23.9563 63.7038 24.0166 63.2555 24.0104C62.2692 24.0104 61.3845 23.7704 60.6013 23.292C59.8329 22.7984 59.2235 22.1176 58.7737 21.2496C58.3395 20.3824 58.1216 19.3944 58.1216 18.2872C58.1216 17.1952 58.3465 16.2 58.7962 15.3024C59.2599 14.4048 59.9345 13.6864 60.8192 13.148C61.7032 12.6088 62.7841 12.34 64.0604 12.34C65.2786 12.34 66.33 12.6016 67.2147 13.1256C68.1032 13.6231 68.8296 14.38 69.3029 15.3016C69.7961 16.2296 70.0426 17.3224 70.0426 18.5792V25.312C70.0426 26.344 69.7456 27.16 69.1509 27.7584C68.5709 28.372 67.766 28.6784 66.7363 28.6784L60.3408 28.6792ZM64.0821 21.0928C64.604 21.0928 65.0537 20.9728 65.4313 20.7336C65.8039 20.4839 66.1042 20.1351 66.3005 19.724C66.5068 19.2911 66.6112 18.8142 66.6053 18.332C66.6053 17.7936 66.5045 17.3 66.3013 16.8512C66.0982 16.4024 65.8082 16.0504 65.4305 15.796C65.0537 15.5264 64.604 15.392 64.0813 15.392C63.5742 15.392 63.1245 15.5192 62.7329 15.7736C62.3561 16.028 62.0661 16.372 61.8629 16.8056C61.6605 17.24 61.559 17.7256 61.559 18.2648C61.559 18.7888 61.6598 19.2672 61.8629 19.7016C62.0661 20.12 62.3561 20.4568 62.7337 20.7112C63.1245 20.9656 63.5742 21.0928 64.0821 21.0928ZM51.2678 24.392C50.1226 24.392 49.0928 24.1304 48.1794 23.6064C47.2823 23.0993 46.5315 22.3559 46.0036 21.452C45.4818 20.5392 45.2205 19.5144 45.2205 18.3768C45.2205 17.2248 45.4818 16.2 46.0036 15.3024C46.5315 14.3984 47.2823 13.655 48.1794 13.148C49.0928 12.6088 50.1226 12.34 51.2678 12.34C52.4139 12.34 53.4359 12.6088 54.3353 13.148C55.2289 13.6517 55.9732 14.3963 56.4886 15.3024C57.0252 16.2 57.2935 17.2248 57.2935 18.3768C57.2935 19.5144 57.0252 20.5392 56.4886 21.452C55.9732 22.358 55.2289 23.1026 54.3353 23.6064C53.4219 24.1304 52.3991 24.392 51.2678 24.392ZM51.2678 21.3624C51.8044 21.3624 52.2681 21.2272 52.6605 20.9584C53.052 20.6889 53.3672 20.317 53.5739 19.8808C53.791 19.432 53.8995 18.9232 53.8995 18.3544C53.8995 17.8008 53.791 17.3 53.5739 16.8504C53.3671 16.4144 53.0519 16.0428 52.6605 15.7736C52.2689 15.504 51.8044 15.3696 51.2678 15.3696C50.7313 15.3696 50.2598 15.504 49.8543 15.7736C49.4624 16.0429 49.1469 16.4148 48.9401 16.8512C48.7186 17.3191 48.607 17.8344 48.6144 18.3552C48.6144 18.9232 48.723 19.432 48.9401 19.8808C49.147 20.3171 49.4625 20.689 49.8543 20.9584C50.2598 21.2272 50.7313 21.3624 51.2678 21.3624ZM40.4696 24.1224C39.5267 24.1224 38.7001 23.9064 37.9899 23.472C37.2991 23.0587 36.7282 22.462 36.3367 21.744C35.9451 21.0256 35.749 20.232 35.749 19.3648V8.41195H39.4034V19.6336C39.4034 19.9936 39.5275 20.3072 39.7733 20.5768C40.0199 20.8456 40.3238 20.9808 40.6867 20.9808H44.711V24.1224H40.4696Z" fill="#14424C"/>
</g>
<defs>
<clipPath id="clip0_2_370">
<rect width="145" height="32" fill="white" transform="translate(0.5)"/>
</clipPath>
</defs>
</svg>
