<svg width="126" height="36" viewBox="0 0 126 36" fill="none" xmlns="http://www.w3.org/2000/svg">
<path d="M32.6228 0.365723H38.3946V36H32.6228V0.365723Z" fill="#17313B"/>
<path d="M58.4701 24.7077C58.4701 30.2285 53.9531 30.7304 52.4474 30.7304C48.9342 30.7304 48.4323 27.4681 48.4323 25.7114V11.9094H42.6605V25.4605C42.6605 28.7228 43.6643 31.7341 45.6719 33.4907C47.4285 35.2474 49.687 36.0002 52.4474 36.0002C54.455 36.0002 56.9644 35.4983 58.4701 33.9926V36.0002H64.2419V11.9094H58.4701V24.7077Z" fill="#17313B"/>
<path d="M75.5345 3.12622H69.7628V11.9093H65.4967V17.4301H69.7628V36.0001H75.5345V17.4301H79.8006V11.9093H75.5345V3.12622Z" fill="#17313B"/>
<path d="M97.8685 28.7225C96.6138 29.7263 94.8572 30.4791 93.1005 30.4791C89.0854 30.4791 86.325 27.4677 86.325 23.4526C86.325 19.4375 89.0854 16.6771 93.1005 16.6771C94.8572 16.6771 96.6138 17.179 97.8685 18.4337L98.6213 19.1865L102.636 15.4224L101.633 14.6695C99.3742 12.6619 96.3628 11.4072 93.1005 11.4072C86.0741 11.4072 80.8042 16.6771 80.8042 23.7036C80.8042 30.73 86.0741 35.9999 93.1005 35.9999C96.3628 35.9999 99.3742 34.7452 101.633 32.7376L102.636 31.9848L98.6213 27.9696L97.8685 28.7225Z" fill="#17313B"/>
<path d="M122.963 13.9168C121.207 12.1602 119.45 11.4073 116.69 11.4073C114.682 11.4073 112.675 11.9092 111.169 13.4149V0.365723H105.397V36H111.169V22.6999C111.169 17.1791 114.933 16.6772 116.439 16.6772C119.952 16.6772 119.701 19.9395 119.701 21.6961V35.7491H125.473V21.9471C125.473 18.6848 124.72 15.6734 122.963 13.9168Z" fill="#17313B"/>
<path d="M92.8501 27.719C95.0676 27.719 96.8652 25.9213 96.8652 23.7039C96.8652 21.4864 95.0676 19.6887 92.8501 19.6887C90.6326 19.6887 88.835 21.4864 88.835 23.7039C88.835 25.9213 90.6326 27.719 92.8501 27.719Z" fill="#EF4335"/>
<path d="M24.5927 27.2168C22.5851 29.2244 19.5738 30.4791 16.3115 30.4791C10.0378 30.4791 5.52081 25.4602 5.52081 18.6847C5.52081 11.9091 10.0378 6.89021 16.5624 6.89021C19.5738 6.89021 22.5851 8.14494 24.8436 10.4035L25.5965 11.1563L29.3606 7.39211L28.6078 6.63927C25.3455 3.37697 21.0794 1.62035 16.5624 1.62035C7.02648 1.36941 0 8.89778 0 18.6847C0 28.4715 7.02648 35.9999 16.3115 35.9999C20.8285 35.9999 25.3455 34.2433 28.3569 30.981L29.1097 30.2282L25.3455 26.464L24.5927 27.2168Z" fill="#17313B"/>
</svg>
