<svg width="23" height="25" viewBox="0 0 23 25" fill="none" xmlns="http://www.w3.org/2000/svg">
<path d="M17.8685 17.7225C16.6138 18.7263 14.8572 19.4791 13.1005 19.4791C9.08541 19.4791 6.325 16.4677 6.325 12.4526C6.325 8.43748 9.08541 5.67708 13.1005 5.67708C14.8572 5.67708 16.6138 6.17897 17.8685 7.4337L18.6213 8.18654L22.6365 4.42235L21.6327 3.66952C19.3742 1.66195 16.3628 0.407227 13.1005 0.407227C6.07406 0.407227 0.804199 5.67708 0.804199 12.7036C0.804199 19.73 6.07406 24.9999 13.1005 24.9999C16.3628 24.9999 19.3742 23.7452 21.6327 21.7376L22.6365 20.9848L18.6213 16.9696L17.8685 17.7225Z" fill="#17313B"/>
</svg>
