<svg width="30" height="35" viewBox="0 0 30 35" fill="none" xmlns="http://www.w3.org/2000/svg">
<path d="M24.5927 26.2168C22.5851 28.2244 19.5738 29.4791 16.3115 29.4791C10.0378 29.4791 5.52081 24.4602 5.52081 17.6847C5.52081 10.9091 10.0378 5.89021 16.5624 5.89021C19.5738 5.89021 22.5851 7.14494 24.8436 9.40345L25.5965 10.1563L29.3606 6.39211L28.6078 5.63927C25.3455 2.37697 21.0794 0.620352 16.5624 0.620352C7.02648 0.369407 0 7.89778 0 17.6847C0 27.4715 7.02648 34.9999 16.3115 34.9999C20.8285 34.9999 25.3455 33.2433 28.3569 29.981L29.1097 29.2282L25.3455 25.464L24.5927 26.2168Z" fill="#17313B"/>
</svg>
